<?xml version="1.0" encoding="utf-8"?>
<!-- Generator: Adobe Illustrator 16.0.0, SVG Export Plug-In . SVG Version: 6.00 Build 0)  -->
<!DOCTYPE svg PUBLIC "-//W3C//DTD SVG 1.1//EN" "http://www.w3.org/Graphics/SVG/1.1/DTD/svg11.dtd">
<svg version="1.1" id="Layer_1" xmlns="http://www.w3.org/2000/svg" xmlns:xlink="http://www.w3.org/1999/xlink" x="0px" y="0px"
	 width="551.463px" height="710.73px" viewBox="0 0 551.463 710.73" enable-background="new 0 0 551.463 710.73"
	 xml:space="preserve">
<g>
	<g>
		<g>
			<path fill-rule="evenodd" clip-rule="evenodd" fill="#D7D1B8" d="M298.588,698.242c-89.08,0-178.16,0-267.24,0
				c-11.555-6.265-15.111-16.221-14.92-28.947c0.458-30.604,0.357-61.221,0.033-91.829c-0.11-10.411,2.523-18.719,10.325-26.249
				c5.107-4.93,12.104-9.613,13.53-16.992c2.69-13.918,3.936-28.11,5.966-42.162c0.366-2.533-0.071-4.144-2.166-5.688
				c-5.899-4.353-11.48-9.151-17.506-13.313c-7.641-5.275-14.133-11.295-16.749-20.573c0-52.821,0-105.642,0-158.463
				c1.299-3.017,2.173-6.315,3.969-8.998c8.399-12.544,16.652-25.235,26.455-36.737c9.613-11.28,9.672-10.8-3.047-18.629
				c-10.784-6.639-23.27-11.729-27.377-25.611c0-58.193,0-116.386,0-174.579c2.462-8.201,6.963-14.801,14.772-18.801
				c168.313,0,336.624,0,504.936,0c7.81,4,12.311,10.6,14.772,18.801c0,16.115,0,32.23,0,48.345
				c-1.696,3.808-3.093,7.784-5.143,11.391c-6.031,10.611-11.976,21.303-18.662,31.498c-3.21,4.896-2.64,7.542,1.08,11.95
				c8.269,9.803,19.895,17.311,22.725,31.107c0,51.926,0,103.853,0,155.778c-2.241,12.17-4.317,24.374-6.772,36.501
				c-2.201,10.87-2.131,22.26-6.477,32.61c-4.146,9.871-8.763,19.579-13.806,29.021c-2.77,5.186-3.424,8.716,1.554,13.173
				c3.201,2.868,5.84,6.684,9.004,9.819c5.651,5.601,8.546,12.063,8.528,20.276c-0.155,70.72-0.278,141.439,0.093,212.157
				c0.063,12.073-4.809,19.831-14.954,25.144c-51.478,0-102.957,0-154.435,0c-15.452-5.5-30.931-10.926-46.332-16.565
				c-2.854-1.045-4.126,0.601-5.691,2.128C309.82,688.908,305.048,694.536,298.588,698.242z"/>
			<path fill-rule="evenodd" clip-rule="evenodd" fill="none" d="M521.512,698.242c10.145-5.313,15.017-13.07,14.954-25.144
				c-0.371-70.718-0.248-141.438-0.093-212.157c0.018-8.214-2.877-14.676-8.528-20.276c-3.165-3.136-5.803-6.951-9.004-9.819
				c-4.979-4.457-4.324-7.987-1.554-13.173c5.042-9.442,9.66-19.15,13.806-29.021c4.346-10.351,4.276-21.74,6.477-32.61
				c2.455-12.127,4.531-24.331,6.772-36.501c0,124.443-0.033,248.887,0.128,373.33c0.006,4.598-0.86,5.905-5.511,5.494
				C533.185,697.854,527.331,698.242,521.512,698.242z"/>
			<path fill-rule="evenodd" clip-rule="evenodd" fill="none" d="M9.862,452.488c2.616,9.278,9.107,15.298,16.749,20.573
				c6.025,4.161,11.607,8.96,17.506,13.313c2.094,1.545,2.532,3.155,2.166,5.688c-2.031,14.052-3.276,28.244-5.966,42.162
				c-1.426,7.379-8.423,12.063-13.53,16.992c-7.802,7.53-10.435,15.838-10.325,26.249c0.324,30.608,0.426,61.225-0.033,91.829
				c-0.191,12.727,3.365,22.683,14.92,28.947c-6.043,0-12.096-0.201-18.125,0.086c-2.905,0.14-3.515-0.551-3.45-3.446
				c0.229-10.066,0.088-20.141,0.088-30.213C9.862,593.941,9.862,523.215,9.862,452.488z"/>
			<path fill-rule="evenodd" clip-rule="evenodd" fill="none" d="M9.862,204.05c4.107,13.883,16.593,18.973,27.377,25.611
				c12.719,7.829,12.66,7.349,3.047,18.629c-9.803,11.502-18.056,24.193-26.455,36.737c-1.796,2.683-2.67,5.981-3.969,8.998
				C9.862,264.033,9.862,234.042,9.862,204.05z"/>
			<path fill-rule="evenodd" clip-rule="evenodd" fill="none" d="M544.342,163.762c-2.83-13.797-14.456-21.305-22.725-31.107
				c-3.719-4.408-4.29-7.055-1.08-11.95c6.686-10.195,12.63-20.887,18.662-31.498c2.05-3.606,3.447-7.583,5.143-11.391
				C544.342,106.465,544.342,135.113,544.342,163.762z"/>
			<path fill-rule="evenodd" clip-rule="evenodd" fill="none" d="M298.588,698.242c6.459-3.706,11.232-9.334,16.466-14.438
				c1.564-1.527,2.837-3.173,5.691-2.128c15.401,5.64,30.88,11.065,46.332,16.565C344.248,698.242,321.418,698.242,298.588,698.242z
				"/>
			<path fill-rule="evenodd" clip-rule="evenodd" fill="none" d="M24.634,10.67c-7.809,4-12.31,10.6-14.772,18.801
				c0-6.267,0-12.534,0-18.801C14.786,10.67,19.71,10.67,24.634,10.67z"/>
			<path fill-rule="evenodd" clip-rule="evenodd" fill="none" d="M544.342,29.471c-2.462-8.201-6.962-14.801-14.772-18.801
				c4.925,0,11.771-1.921,14.232,0.54c2.461,2.463,0.541,9.309,0.541,14.232C544.342,26.785,544.342,28.128,544.342,29.471z"/>
		</g>
	</g>
	<path fill-rule="evenodd" clip-rule="evenodd" d="M119.38,0c4.348,3.806,7.88,8.275,5.451,14.277
		c-2.555,6.313-8.366,6.963-14.503,6.936c-28.9-0.129-57.8-0.057-87.518-0.057c-0.152,2.734-0.405,5.169-0.406,7.604
		c-0.022,53.899,0.035,107.797-0.108,161.693c-0.013,4.693,1.287,7.57,5.506,9.967c8.215,4.668,16.155,9.846,24.022,15.092
		c12.137,8.088,14.081,22.805,5.073,34.277c-10.54,13.424-20.951,26.959-31.051,40.715c-2.005,2.732-3.3,6.682-3.315,10.074
		c-0.208,49.271-0.092,98.545-0.235,147.814c-0.012,4.123,1.166,6.77,4.507,9.215c7.82,5.73,15.336,11.873,22.969,17.861
		c8.395,6.586,11.472,14.891,9.534,25.602c-2.498,13.795-4.433,27.709-6.103,41.633c-0.918,7.637-2.896,14.625-9.033,19.477
		c-12.447,9.836-16.336,22.129-15.538,38.043c1.341,26.764,0.355,53.646,0.386,80.479c0.002,2.709,0.264,5.416,0.444,8.873
		c3.259,0,5.965,0,8.672,0c79.575,0,159.15-0.152,238.722,0.205c9.64,0.043,17.076-1.729,23.586-9.328
		c8.031-9.379,18.411-11.395,30.071-6.533c4.859,2.029,10.051,3.238,15.055,4.932c7.184,2.43,14.219,5.377,21.526,7.326
		c6.355,1.695,12.997,3.225,19.52,3.25c42.556,0.178,85.118-0.195,127.675-0.063c6.627,0.02,8.742-1.891,8.645-8.67
		c-0.38-25.902-0.159-51.813-0.151-77.723c0.005-8.023,3.937-13.262,9.926-13.299c6.28-0.037,11.217,5.586,11.242,13.346
		c0.085,27.758,0.036,55.518,0.03,83.277c-0.001,12.494-6.878,19.975-17.87,24.436c-51.363,0-102.724,0-154.085,0
		c-16.844-5.951-33.638-12.053-50.602-17.631c-1.847-0.607-4.996,1.402-7.018,2.902c-6.377,4.729-12.505,9.795-18.729,14.729
		c-90.23,0-180.458,0-270.689,0c-13.282-5.588-17.472-15.74-17.102-29.797c0.727-27.5,0.122-55.033,0.238-82.553
		c0.138-32.676-2.826-24.941,19.571-49.238c2.164-2.35,3.898-5.697,4.449-8.824c2.438-13.857,4.604-27.771,6.276-41.736
		c0.3-2.506-1.484-6.146-3.497-7.887c-7.507-6.492-15.394-12.566-23.362-18.498c-7.044-5.244-10.321-11.938-10.301-20.744
		c0.113-51.107-0.125-102.217,0.301-153.322c0.049-5.799,2.298-12.396,5.601-17.2c9.671-14.055,20.393-27.39,30.698-41.01
		c1.34-1.773,2.655-3.566,4.323-5.81c-8.975-5.643-17.179-11.221-25.778-16.104C5.7,211.93,1.022,203.479,1.125,190.869
		c0.437-53.648,0.53-107.307-0.048-160.952C0.925,15.857,4.861,5.717,18.045,0C51.824,0,85.604,0,119.38,0z"/>
	<path fill-rule="evenodd" clip-rule="evenodd" d="M534.438,0c13.196,5.721,17.885,15.879,16.898,29.949
		c-0.796,11.281,0.276,22.684-0.358,33.985c-0.298,5.315-1.761,10.993-4.259,15.673c-6.624,12.416-13.969,24.455-21.316,36.465
		c-2.05,3.352-2.011,5.481,0.81,8.338c6.013,6.084,11.602,12.582,17.427,18.851c5.096,5.488,7.634,11.735,7.61,19.407
		c-0.15,50.664,0.538,101.338-0.427,151.982c-0.318,16.678-5.495,33.207-7.068,49.936c-2.014,21.387-12.278,39.428-21.331,58.02
		c-2.133,4.379-1.901,7.139,1.497,10.912c21.427,23.809,20.167,16.158,20.072,52.033c-0.054,20.588-0.005,41.176-0.018,61.768
		c0,2.078,0.132,4.199-0.217,6.23c-1.083,6.277-6.161,10.031-12.555,9.178c-6.128-0.816-8.433-4.889-8.43-10.691
		c0.008-27.297,0.19-54.598-0.204-81.891c-0.056-3.859-2.254-8.191-4.662-11.402c-4.277-5.705-9.74-10.506-14.229-16.07
		c-5.711-7.076-6.115-15.328-2.967-23.486c2.733-7.084,5.8-14.16,9.717-20.637c8.842-14.619,10.32-31.127,13.878-47.258
		c8.116-36.8,4.624-74.006,5.246-111.064c0.408-24.514-0.06-49.043,0.185-73.563c0.052-5.312-1.565-9.117-5.34-12.785
		c-5.791-5.629-11.161-11.712-16.447-17.829c-7.336-8.487-8.169-17.822-2.328-28.21c6.898-12.264,14.199-24.303,21.204-36.508
		c1.229-2.139,2.604-4.603,2.65-6.941c0.264-12.718,0.318-25.449-0.094-38.161c-0.053-1.627-3.103-4.31-4.982-4.516
		c-6.179-0.68-12.462-0.542-18.702-0.542c-111.045-0.021-222.087-0.016-333.129-0.016c-1.851,0-3.702-0.024-5.553,0.004
		c-5.864,0.091-11.07-0.885-13.431-7.334c-2.422-6.619,1.659-10.26,6.052-13.826C284.571,0,409.504,0,534.438,0z"/>
	<path fill-rule="evenodd" clip-rule="evenodd" fill="none" d="M18.045,0C4.861,5.717,0.925,15.857,1.077,29.917
		c0.578,53.646,0.484,107.304,0.048,160.952c-0.102,12.61,4.575,21.061,15.279,27.139c8.599,4.883,16.803,10.461,25.778,16.104
		c-1.668,2.243-2.983,4.036-4.323,5.81c-10.305,13.62-21.026,26.955-30.698,41.01c-3.303,4.804-5.552,11.401-5.601,17.2
		c-0.426,51.105-0.188,102.215-0.301,153.322c-0.02,8.807,3.257,15.5,10.301,20.744c7.968,5.932,15.854,12.006,23.362,18.498
		c2.013,1.74,3.797,5.381,3.497,7.887c-1.673,13.965-3.838,27.879-6.276,41.736c-0.55,3.127-2.285,6.475-4.449,8.824
		C5.296,573.439,8.26,565.705,8.122,598.381c-0.116,27.52,0.489,55.053-0.238,82.553c-0.37,14.057,3.82,24.209,17.102,29.797
		c-8.328,0-16.657,0-24.986,0C0,473.82,0,236.911,0,0C6.015,0,12.03,0,18.045,0z"/>
	<path fill-rule="evenodd" clip-rule="evenodd" fill="none" d="M295.676,710.73c6.225-4.934,12.353-10,18.729-14.729
		c2.021-1.5,5.171-3.51,7.018-2.902c16.964,5.578,33.758,11.68,50.602,17.631C346.576,710.73,321.127,710.73,295.676,710.73z"/>
	<path fill-rule="evenodd" clip-rule="evenodd" fill="#00AEEF" d="M300.814,424.082c-14.784,0.042-25.021-3.477-34.937-8.145
		c-4.893-2.304-11.269-3.72-17.315-4.57c-6.514-0.918-10.435-2.923-10.02-6.861c0.387-3.691,5.184-5.896,11.868-5.624
		c10.893,0.446,20.143,3.197,28.586,7.476c14.466,7.327,23.709,7.299,38.63,0.22c22.33-10.59,41.053-10.501,63.104,0.301
		c13.313,6.521,23.339,6.678,36.625,0.21c8.632-4.201,17.573-7.622,28.839-8.12c7.339-0.322,12.734,1.639,13.557,5.499
		c0.787,3.702-4.08,5.87-11.504,6.937c-6.217,0.894-12.57,2.723-17.685,5.134c-21.033,9.919-40.362,10.214-61.106,0.381
		c-16.596-7.864-24.837-7.878-41.233,0.28C319.482,421.548,309.737,423.912,300.814,424.082z"/>
	<path fill-rule="evenodd" clip-rule="evenodd" d="M398.035,149.325c4.52,0.929,9.077,1.702,13.548,2.829
		c6.21,1.568,9.519,6.486,8.502,12.183c-1.043,5.83-5.762,9.729-12.024,8.723c-9.555-1.538-19.082-3.471-28.438-5.938
		c-6.563-1.73-9.316-7.398-7.609-13.369c1.535-5.363,6.733-8.217,13.14-7.059C389.465,147.473,393.741,148.443,398.035,149.325z"/>
	<path fill-rule="evenodd" clip-rule="evenodd" d="M84.751,478.56c-3.624-2.852-7.24-5.71-10.867-8.557
		c-4.879-3.83-6.082-8.63-2.922-13.932c3.202-5.372,8.509-7.197,13.583-3.679c8.847,6.135,17.353,12.871,25.368,20.059
		c4.649,4.172,3.867,9.774-0.535,14.063c-4.16,4.051-9.056,4.081-13.744,0.583C91.939,484.343,88.375,481.412,84.751,478.56z"/>
	<path fill-rule="evenodd" clip-rule="evenodd" d="M468.079,207.865c0.293,8.261-3.371,12.314-8.277,12.404
		c-3.766,0.072-8.814-2.756-11.159-5.892c-5.296-7.085-9.233-15.179-13.802-22.819c-2.889-4.83-2.402-9.355,1.49-13.199
		c3.702-3.658,8.704-4.447,12.628-1.332C459.612,185.479,465.462,197.021,468.079,207.865z"/>
	<path fill-rule="evenodd" clip-rule="evenodd" d="M273.309,170.693c-2.949,0.395-5.921,1.23-8.847,1.094
		c-6.11-0.289-9.792-3.654-10.263-9.915c-0.426-5.663,2.634-9.125,7.773-10.682c4.178-1.266,8.48-2.181,12.775-3.01
		c5.875-1.134,10.52,0.589,12.648,6.589c2.057,5.793-0.258,10.984-6.141,13.488c-2.5,1.063-5.344,1.326-8.033,1.954
		C273.253,170.371,273.282,170.532,273.309,170.693z"/>
	<circle fill-rule="evenodd" clip-rule="evenodd" fill="#BE1E2D" cx="484.232" cy="652.842" r="24.216"/>
	<g>
		<path fill-rule="evenodd" clip-rule="evenodd" fill="none" d="M130.935,32.775c32.51,0,65.018,0.008,97.526-0.035
			c1.241-0.002,1.485,0.244,1.485,1.484c-0.041,48.099-0.035,96.197-0.035,144.295c-0.099-0.051-0.271-0.087-0.285-0.156
			c-1.243-6.002-2.466-12.008-3.709-18.01c-3.646-17.597-7.294-35.193-10.961-52.785c-0.663-3.176-2.403-5.576-5.3-7.149
			c-2.429-1.319-4.694-2.981-7.21-4.091c-4.962-2.187-8.576-5.541-10.513-10.656c-0.698-1.846-2.065-2.589-4.029-2.084
			c-1.252-1.371-2.189-2.914-2.587-4.751c1.48-1.188,1.521-2.61,0.673-4.173c-2.29-4.217-4.611-8.418-6.863-12.656
			c-1.592-2.997-3.991-4.826-7.276-5.693c-5.676-1.498-11.313-3.138-16.973-4.693c-0.835-0.229-1.523-0.608-2.153-1.213
			c-3.829-3.671-7.704-7.295-11.528-10.97C138.197,36.557,135.423,33.353,130.935,32.775z"/>
		<path fill-rule="evenodd" clip-rule="evenodd" fill="none" d="M44.286,177.795c0-47.797,0.007-95.592-0.034-143.389
			c-0.001-1.359,0.306-1.668,1.666-1.666c27.856,0.047,55.712,0.035,83.567,0.035c-4.836,1.68-9.661,3.395-14.517,5.019
			c-1.282,0.429-2.172,1.143-2.863,2.288c-2.424,4.018-4.846,8.037-7.377,11.986c-5.093,7.945-10.524,15.568-19.764,19.273
			c-0.221,0.088-0.41,0.254-0.629,0.35c-1.5,0.647-2.247,1.824-2.713,3.369c-2.963,9.821-6.002,19.619-8.97,29.438
			c-0.261,0.864-0.674,1.462-1.372,2.013c-4.64,3.66-9.235,7.377-13.873,11.039c-2.023,1.599-3.361,3.584-3.806,6.135
			c-0.372,2.134-0.714,4.271-1.069,6.408c-2.275,13.711-4.516,27.428-6.858,41.127C45.298,173.42,45.353,175.734,44.286,177.795z"/>
		<path fill-rule="evenodd" clip-rule="evenodd" fill="#060708" d="M187.904,83.588c1.964-0.505,3.331,0.238,4.029,2.084
			c1.937,5.115,5.551,8.47,10.513,10.656c2.516,1.109,4.781,2.771,7.21,4.091c2.896,1.573,4.637,3.974,5.3,7.149
			c3.667,17.592,7.314,35.188,10.961,52.785c1.243,6.002,2.466,12.008,3.709,18.01c0.015,0.069,0.187,0.105,0.285,0.156
			c0,0.725,0,1.45,0,2.176c-0.621,0.912-1.224,1.85-2.505,1.886c-0.481-0.024-0.962-0.068-1.443-0.068
			c-47.463-0.003-94.926-0.003-142.389,0c-0.421,0-0.841,0.044-1.261,0.067c-1.487-0.242-2.222-1.203-2.49-2.608
			c0.688-2.317,1.402-2.856,3.875-2.858c8.962-0.007,17.926-0.003,26.889-0.003c4.003,0,4.003,0,4.152-3.976
			c0.065-0.293,0.171-0.58,0.19-0.875c0.642-9.697,1.261-19.396,1.923-29.094c0.149-2.197,0.175-4.37,1.908-6.209
			c4.383-4.651,7.712-9.974,9.622-16.135c0.516-1.662,1.301-3.238,1.889-4.88c0.511-1.425,1.443-2.229,2.9-2.687
			c7.972-2.508,15.92-5.088,23.878-7.639c2.875-0.92,3.328-0.741,5.116,1.743c6.023,8.37,11.501,17.149,18.54,24.759
			c0.454,0.491,0.825,1.063,0.94,1.73c0.872,5.045,1.712,10.094,2.594,15.137c0.335,1.907-0.371,3.16-2.171,3.824
			c-1.833-0.025-2.939-0.919-3.249-2.743c-0.503-2.967-1.042-5.929-1.484-8.904c-0.497-3.357-1.108-6.549-3.811-9.071
			c-2.646-2.471-4.635-5.547-6.703-8.521c-2.654-3.814-5.341-7.604-8.039-11.385c-0.31-0.433-0.432-1.234-1.3-0.949
			c-2.529,0.829-5.06,1.656-7.682,2.516c4.273,6.348,8.541,12.41,13.571,17.891c0.81,0.883,1.318,1.857,1.516,3.013
			c1.249,7.298,2.48,14.597,3.746,21.892c0.956,5.514,1.952,11.021,2.931,16.53c0.106,0.771,0.301,1.542,0.302,2.312
			c0,1.46,0.73,1.808,2.062,1.737c1.864-0.099,3.738-0.024,5.607-0.024c4.063,0,4.063,0,3.196-4.027
			c-0.606-3.713-1.215-7.426-1.818-11.139c-0.37-2.28,0.098-3.086,2.277-3.945c2.335,0.449,2.799,1.005,3.213,3.43
			c0.666,3.903,1.401,7.796,2.107,11.692c0.026,0.421,0.026,0.845,0.082,1.261c0.372,2.738,0.375,2.738,3.109,2.738
			c9.215,0,18.429,0.012,27.644-0.014c1.433-0.004,3.45,0.638,4.128-0.285c0.579-0.789-0.349-2.684-0.614-4.089
			c-0.011-0.053-0.071-0.095-0.108-0.144c-0.056-0.479-0.075-0.966-0.173-1.436c-4.317-20.719-8.648-41.434-12.948-62.156
			c-0.356-1.714-1.178-2.963-2.716-3.814c-2.526-1.398-4.906-3.121-7.543-4.254c-5.969-2.568-10.05-6.797-12.326-12.836
			c-0.021-0.055-0.074-0.096-0.102-0.148C185.939,85.987,186.154,85.014,187.904,83.588z M120.453,173.074
			c-0.033,0.602-0.04,1.206-0.103,1.805c-0.232,2.207-0.239,2.207,1.948,2.207c13.514,0.001,27.027,0.001,40.541,0.001
			c4.023,0,4.023,0,2.899-4.005c-0.001-0.242,0.031-0.488-0.009-0.723c-1.873-10.836-3.729-21.675-5.654-32.5
			c-0.309-1.738-0.049-3.667-1.351-5.142c-3.395-3.845-6.641-7.802-9.5-12.069c-1.341-2.004-2.785-3.938-4.14-5.933
			c-0.6-0.883-1.263-1.138-2.295-0.742c-1.459,0.559-2.937,1.187-4.462,1.431c-2.479,0.396-3.556,1.865-4.351,4.107
			c-2.09,5.896-4.17,11.869-8.863,16.342c-2.459,2.344-2.784,5.24-2.923,8.367c-0.206,4.629-0.665,9.246-0.972,13.872
			C120.935,164.418,120.707,168.746,120.453,173.074z"/>
		<path fill-rule="evenodd" clip-rule="evenodd" fill="#080908" d="M44.286,177.795c1.067-2.061,1.013-4.375,1.389-6.574
			c2.342-13.699,4.583-27.416,6.858-41.127c0.354-2.137,0.697-4.274,1.069-6.408c0.444-2.551,1.782-4.536,3.806-6.135
			c4.638-3.662,9.233-7.379,13.873-11.039c0.698-0.551,1.111-1.148,1.372-2.013c2.968-9.819,6.007-19.617,8.97-29.438
			c0.466-1.545,1.213-2.722,2.713-3.369c0.219-0.096,0.408-0.262,0.629-0.35c9.239-3.705,14.671-11.328,19.764-19.273
			c2.531-3.949,4.953-7.969,7.377-11.986c0.691-1.146,1.581-1.859,2.863-2.288c4.855-1.624,9.681-3.339,14.517-5.019
			c0.484,0,0.967,0,1.45,0c4.488,0.577,7.263,3.781,10.262,6.663c3.824,3.675,7.699,7.299,11.528,10.97
			c0.63,0.604,1.318,0.983,2.153,1.213c5.66,1.556,11.297,3.195,16.973,4.693c3.285,0.867,5.685,2.696,7.276,5.693
			c2.252,4.238,4.573,8.439,6.863,12.656c0.848,1.563,0.808,2.984-0.673,4.173c-2.133,0.728-3.084,0.397-4.157-1.552
			c-1.801-3.271-3.538-6.579-5.361-9.838c-0.695-1.24-1.205-2.607-2.196-3.715c-1.198,2.703-2.31,5.354-3.538,7.947
			c-1.162,2.455-2.493,4.828-4.315,6.872c-3.143,3.523-7.494,3.589-10.757,0.167c-1.256-1.316-2.196-2.867-3.111-4.434
			c-0.852-1.455-1.771-2.871-2.652-4.309c-0.635-1.037-1.563-1.38-2.753-1.371c-4.136,0.033-8.156,3.482-9.024,7.761
			c-0.755,3.718-1.505,7.445-3.461,10.774c-2.29,3.896-5.658,5.816-10.227,5.463c-4.077-0.316-6.306-2.908-7.788-6.385
			c-0.613-1.438-1.135-2.914-1.755-4.35c-0.222-0.515-0.314-1.286-1.101-1.254c-0.73,0.029-0.903,0.73-1.127,1.27
			c-0.369,0.885-0.734,1.781-0.989,2.704c-1.27,4.59-1.872,9.321-2.922,13.959c-0.957,4.229-1.863,8.483-4.591,12.042
			c-3.105,4.053-8.414,4.346-11.95,0.641c-1.479-1.548-2.503-3.391-3.354-5.334c-1.55-3.537-2.582-7.248-3.668-10.941
			c-0.473-1.602-0.987-3.192-1.613-5.207c-1.863,6.112-3.592,11.746-5.288,17.388c-0.36,1.198-0.969,2.138-1.971,2.925
			c-4.89,3.844-9.726,7.754-14.609,11.605c-1.202,0.947-1.966,2.104-2.212,3.601c-2.617,15.931-5.23,31.862-7.845,47.794
			c-0.117,0.647-0.167,1.316-0.363,1.939c-0.494,1.575-0.179,2.19,1.681,2.154c6.21-0.117,12.425-0.053,18.638-0.039
			c2.358,0.004,3.204,0.723,3.55,2.91c-0.168,1.363-0.831,2.289-2.253,2.541c-8.481,0.005-16.962,0.012-25.444,0.018
			c-1.278-0.041-1.883-0.977-2.504-1.889C44.286,179.729,44.286,178.762,44.286,177.795z M130.856,38.486
			c-1.049,0.01-1.805,0.154-2.557,0.421c-3.063,1.085-6.103,2.255-9.22,3.152c-1.784,0.514-2.823,1.556-3.762,3.062
			c-3.534,5.676-6.739,11.563-10.926,16.824c-3.549,4.46-6.584,9.418-12.297,11.582c-0.835,0.316-1.54,0.973-2.371,1.305
			c-2.203,0.882-3.372,2.435-3.801,4.783c-0.185,1.014-0.184,1.854,0.201,2.766c1.121,2.66,1.921,5.429,2.781,8.18
			c1.487,4.748,2.544,9.65,4.783,14.135c0.78,1.561,1.479,3.641,3.69,3.471c2.207-0.17,2.83-2.241,3.427-3.984
			c1.808-5.282,2.689-10.783,3.714-16.254c0.583-3.113,1.335-6.205,2.827-9.057c1.365-2.609,3.393-3.892,6.431-3.715
			c2.683,0.154,4.134,1.713,5.143,3.909c0.952,2.072,1.792,4.196,2.736,6.272c0.579,1.275,1.621,1.781,3.043,1.854
			c2.277,0.115,3.589-1.143,4.593-2.908c1.569-2.762,2.052-5.877,2.724-8.91c1.2-5.428,4.382-9.123,9.466-11.214
			c4.465-1.835,9.358-1.29,11.859,2.147c0.813,1.117,1.516,2.315,2.253,3.486c0.93,1.479,1.79,3.002,2.778,4.439
			c1.236,1.799,2.224,1.802,3.692,0.147c0.807-0.909,1.404-1.952,1.977-3.015c1.518-2.813,2.769-5.745,4.007-8.689
			c0.53-1.258,0.332-1.723-0.979-2.072c-4.704-1.252-9.378-2.623-14.076-3.898c-1.434-0.39-2.618-1.052-3.702-2.102
			c-5.073-4.912-10.215-9.754-15.329-14.623C133.016,39.078,131.981,38.392,130.856,38.486z"/>
		<path fill-rule="evenodd" clip-rule="evenodd" fill="none" d="M82.313,182.58c-0.013,0.1,0,0.197,0.04,0.291
			c-3.384,0-6.767,0-10.151,0c0.003-0.104,0.014-0.205,0.032-0.305c1.422-0.252,2.084-1.178,2.253-2.541
			c1.777-0.209,3.557-0.14,5.337-0.054C80.092,181.377,80.827,182.338,82.313,182.58z"/>
		<path fill-rule="evenodd" clip-rule="evenodd" fill="#9FACBA" d="M50.98,173.061c2.614-15.932,5.228-31.863,7.845-47.794
			c0.246-1.497,1.01-2.653,2.212-3.601c4.883-3.852,9.719-7.762,14.609-11.605c1.002-0.787,1.611-1.727,1.971-2.925
			c1.696-5.642,3.425-11.275,5.288-17.388c0.626,2.015,1.141,3.605,1.613,5.207c1.086,3.693,2.118,7.404,3.668,10.941
			c0.852,1.943,1.876,3.786,3.354,5.334c3.536,3.705,8.845,3.412,11.95-0.641c2.728-3.559,3.634-7.813,4.591-12.042
			c1.05-4.638,1.652-9.369,2.922-13.959c0.255-0.923,0.62-1.819,0.989-2.704c0.224-0.539,0.396-1.24,1.127-1.27
			c0.786-0.032,0.879,0.739,1.101,1.254c0.62,1.436,1.142,2.912,1.755,4.35c1.482,3.477,3.711,6.068,7.788,6.385
			c4.568,0.354,7.937-1.567,10.227-5.463c1.956-3.329,2.706-7.057,3.461-10.774c0.868-4.278,4.889-7.728,9.024-7.761
			c1.189-0.009,2.118,0.334,2.753,1.371c0.882,1.438,1.801,2.854,2.652,4.309c0.915,1.566,1.855,3.117,3.111,4.434
			c3.263,3.422,7.614,3.356,10.757-0.167c1.822-2.044,3.153-4.417,4.315-6.872c1.229-2.594,2.34-5.244,3.538-7.947
			c0.991,1.107,1.501,2.475,2.196,3.715c1.823,3.259,3.561,6.566,5.361,9.838c1.073,1.949,2.024,2.279,4.157,1.552
			c0.397,1.837,1.335,3.38,2.587,4.751c-1.75,1.426-1.965,2.399-0.959,4.348c0.027,0.053,0.081,0.094,0.102,0.148
			c2.276,6.039,6.357,10.268,12.326,12.836c2.637,1.133,5.017,2.855,7.543,4.254c1.538,0.852,2.359,2.101,2.716,3.814
			c4.3,20.723,8.631,41.438,12.948,62.156c0.098,0.47,0.117,0.957,0.173,1.436c-0.577,0.805-1.435,0.49-2.176,0.492
			c-10.688,0.029-21.377,0.031-32.064,0.04c-0.706-3.896-1.441-7.789-2.107-11.692c-0.414-2.425-0.878-2.98-3.213-3.43
			c-0.728-1.65-0.459-3.516-1.122-5.18c1.8-0.664,2.506-1.917,2.171-3.824c-0.882-5.043-1.722-10.092-2.594-15.137
			c-0.115-0.667-0.486-1.239-0.94-1.73c-7.039-7.609-12.517-16.389-18.54-24.759c-1.788-2.484-2.241-2.663-5.116-1.743
			c-7.958,2.551-15.906,5.131-23.878,7.639c-1.457,0.457-2.39,1.262-2.9,2.687c-0.588,1.642-1.373,3.218-1.889,4.88
			c-1.91,6.161-5.239,11.483-9.622,16.135c-1.733,1.839-1.759,4.012-1.908,6.209c-0.662,9.697-1.281,19.396-1.923,29.094
			c-0.02,0.295-0.125,0.582-0.19,0.875c-0.905-0.017-1.811-0.047-2.715-0.047C91.677,173.076,71.329,173.068,50.98,173.061z"/>
		<path fill-rule="evenodd" clip-rule="evenodd" fill="#5A6C76" d="M120.453,173.074c0.254-4.328,0.481-8.656,0.768-12.981
			c0.307-4.626,0.766-9.243,0.972-13.872c0.139-3.127,0.464-6.023,2.923-8.367c4.693-4.473,6.773-10.445,8.863-16.342
			c0.795-2.242,1.871-3.711,4.351-4.107c1.525-0.244,3.003-0.872,4.462-1.431c1.032-0.396,1.695-0.141,2.295,0.742
			c1.354,1.995,2.799,3.929,4.14,5.933c2.859,4.268,6.105,8.225,9.5,12.069c1.302,1.475,1.042,3.403,1.351,5.142
			c1.925,10.825,3.781,21.664,5.654,32.5c0.04,0.234,0.008,0.48,0.009,0.723C150.644,173.079,135.548,173.076,120.453,173.074z"/>
		<path fill-rule="evenodd" clip-rule="evenodd" fill="#798B97" d="M182.07,152.811c0.663,1.664,0.395,3.529,1.122,5.18
			c-2.18,0.859-2.647,1.665-2.277,3.945c0.604,3.713,1.212,7.426,1.818,11.139c-3.724,0-7.444,0.002-11.167,0.003
			c-0.979-5.51-1.975-11.017-2.931-16.53c-1.266-7.295-2.497-14.594-3.746-21.892c-0.197-1.155-0.706-2.13-1.516-3.013
			c-5.03-5.48-9.298-11.543-13.571-17.891c2.622-0.859,5.152-1.687,7.682-2.516c0.868-0.285,0.99,0.517,1.3,0.949
			c2.698,3.781,5.385,7.57,8.039,11.385c2.068,2.975,4.058,6.051,6.703,8.521c2.702,2.522,3.313,5.714,3.811,9.071
			c0.442,2.976,0.981,5.938,1.484,8.904C179.131,151.892,180.237,152.785,182.07,152.811z"/>
		<path fill-rule="evenodd" clip-rule="evenodd" fill="#929DA8" d="M50.98,173.061c20.348,0.008,40.696,0.016,61.045,0.027
			c0.904,0,1.81,0.03,2.715,0.047c-0.149,3.976-0.149,3.976-4.152,3.976c-8.963,0-17.927-0.004-26.889,0.003
			c-2.474,0.002-3.187,0.541-3.875,2.858c-1.78-0.086-3.56-0.155-5.337,0.054c-0.346-2.188-1.192-2.906-3.55-2.91
			c-6.213-0.014-12.428-0.078-18.638,0.039c-1.86,0.036-2.175-0.579-1.681-2.154C50.813,174.377,50.864,173.708,50.98,173.061z"/>
		<path fill-rule="evenodd" clip-rule="evenodd" fill="#4F5F67" d="M120.453,173.074c15.095,0.002,30.19,0.005,45.286,0.008
			c1.124,4.005,1.124,4.005-2.899,4.005c-13.514,0-27.027,0-40.541-0.001c-2.188,0-2.181,0-1.948-2.207
			C120.413,174.28,120.42,173.676,120.453,173.074z"/>
		<path fill-rule="evenodd" clip-rule="evenodd" fill="#929DA8" d="M188.513,173.112c10.688-0.009,21.377-0.011,32.064-0.04
			c0.741-0.002,1.599,0.313,2.176-0.492c0.037,0.049,0.098,0.091,0.108,0.144c0.266,1.405,1.193,3.3,0.614,4.089
			c-0.678,0.923-2.695,0.281-4.128,0.285c-9.215,0.025-18.429,0.014-27.644,0.014c-2.734,0-2.737,0-3.109-2.738
			C188.539,173.957,188.539,173.533,188.513,173.112z"/>
		<path fill-rule="evenodd" clip-rule="evenodd" fill="#6F7F88" d="M171.566,173.077c3.723-0.001,7.443-0.003,11.167-0.003
			c0.866,4.027,0.866,4.027-3.196,4.027c-1.869,0-3.743-0.074-5.607,0.024c-1.331,0.07-2.062-0.277-2.062-1.737
			C171.867,174.619,171.673,173.848,171.566,173.077z"/>
		<path fill-rule="evenodd" clip-rule="evenodd" fill="#5A6D76" d="M130.856,38.486c1.125-0.095,2.159,0.592,3.105,1.494
			c5.114,4.869,10.256,9.711,15.329,14.623c1.084,1.05,2.269,1.712,3.702,2.102c4.698,1.275,9.372,2.646,14.076,3.898
			c1.312,0.35,1.51,0.814,0.979,2.072c-1.238,2.944-2.489,5.876-4.007,8.689c-0.572,1.063-1.17,2.105-1.977,3.015
			c-1.469,1.654-2.456,1.651-3.692-0.147c-0.988-1.438-1.849-2.961-2.778-4.439c-0.737-1.171-1.439-2.369-2.253-3.486
			c-2.501-3.438-7.395-3.982-11.859-2.147c-5.084,2.091-8.266,5.786-9.466,11.214c-0.672,3.033-1.154,6.148-2.724,8.91
			c-1.004,1.766-2.315,3.023-4.593,2.908c-1.422-0.072-2.464-0.578-3.043-1.854c-0.944-2.076-1.784-4.2-2.736-6.272
			c-1.009-2.196-2.46-3.755-5.143-3.909c-3.038-0.177-5.065,1.105-6.431,3.715c-1.492,2.852-2.244,5.943-2.827,9.057
			c-1.024,5.471-1.906,10.972-3.714,16.254c-0.597,1.743-1.22,3.814-3.427,3.984c-2.211,0.17-2.91-1.91-3.69-3.471
			c-2.239-4.484-3.296-9.387-4.783-14.135c-0.86-2.751-1.66-5.52-2.781-8.18c-0.385-0.912-0.386-1.752-0.201-2.766
			c0.429-2.349,1.598-3.901,3.801-4.783c0.831-0.332,1.536-0.988,2.371-1.305c5.713-2.164,8.748-7.122,12.297-11.582
			c4.187-5.262,7.392-11.148,10.926-16.824c0.938-1.506,1.978-2.548,3.762-3.062c3.117-0.897,6.157-2.067,9.22-3.152
			C129.052,38.641,129.808,38.496,130.856,38.486z"/>
	</g>
	<g>
		<path fill-rule="evenodd" clip-rule="evenodd" fill="#D3C1A3" stroke="#000000" stroke-width="3" stroke-miterlimit="10" d="
			M307.971,297.084c-3.129,0.502-6.314,0.244-9.475,0.468c-10.359,0.733-20.398,2.478-30.164,5.36
			c-12.266,3.621-23.345,8.91-33.516,15.488c-2.693,1.743-5.037,3.861-8.084,5.227c-9.578,4.297-21.348,0.377-24.583-8.119
			c-0.173-0.453,0.006-1.047-0.638-1.363c0-1.572,0-3.146,0-4.717c0.656-1.335,1.022-2.744,1.811-4.053
			c2.023-3.361,5.799-5.344,9.03-7.758c4.166-2.584,8.332-5.168,12.498-7.752c0.831-0.022,1.352-0.538,1.973-0.863
			c4.065-2.121,8.188-4.156,12.541-5.875c4.076-1.713,8.234-3.279,12.472-4.712c4.907-1.622,9.912-3.028,15.009-4.182
			c4.617-1.046,9.241-2.11,14.029-2.56c0.596-0.107,1.188-0.242,1.79-0.32c3.554-0.458,7.112-0.902,10.667-1.352
			c4.891,0.014,9.76-0.625,14.66-0.298C307.984,278.831,307.978,287.957,307.971,297.084z"/>
		<path fill-rule="evenodd" clip-rule="evenodd" fill="#A3967E" stroke="#000000" stroke-width="3" stroke-miterlimit="10" d="
			M307.971,297.084c0.007-9.127,0.014-18.253,0.02-27.38c1.854,0.001,3.709-0.019,5.563,0.006c2.94,0.038,5.862,0.577,8.818,0.222
			c4.036,0.827,8.177,1.082,12.291,1.482c0.921,0.205,1.831,0.454,2.763,0.609c8.986,1.496,17.762,3.557,26.254,6.386
			c4.156,1.467,8.313,2.934,12.471,4.401c4.75,2.416,9.785,4.449,14.42,7.023c0.18,0.099,0.523,0.001,0.791-0.004
			c0.219,0.275,0.363,0.633,0.668,0.818c3.875,2.344,7.773,4.662,11.666,6.987c1.566,1.155,3.111,2.331,4.705,3.464
			c3.265,2.318,4.962,5.342,6.01,8.664c0,1.461,0,2.921,0,4.381c-1.274,2.014-1.987,4.217-3.79,6.065
			c-5.345,5.478-15.847,6.815-22.759,2.637c-4.988-3.018-9.545-6.476-14.715-9.329c-13.575-7.494-28.389-12.473-44.541-14.88
			C321.779,297.621,314.883,297.313,307.971,297.084z"/>
		<path fill-rule="evenodd" clip-rule="evenodd" fill="#C23735" stroke="#000000" stroke-width="3" stroke-miterlimit="10" d="
			M212.223,271.373c-0.033-2.033,1.379-3.395,3.148-4.652c7.318-5.207,15.275-9.646,23.962-13.221
			c0.001,3.922,0.001,7.844,0.001,11.768c-5.149,2.098-9.557,5.055-14.023,7.945c-0.518,0.336-0.523,0.742-0.521,1.192
			c0.021,5.153,0.041,10.307,0.061,15.46c-4.166,2.584-8.332,5.168-12.498,7.752c-0.039-0.678-0.078-1.355-0.117-2.032
			C212.415,287.515,212.402,279.443,212.223,271.373z"/>
		<path fill-rule="evenodd" clip-rule="evenodd" fill="none" stroke="#000000" stroke-width="3" stroke-miterlimit="10" d="
			M280.873,271.674c-4.788,0.449-9.412,1.514-14.029,2.56c-5.097,1.153-10.102,2.56-15.009,4.182
			c0.004-6.171,0.007-12.341,0.011-18.511c0.259-0.065,0.526-0.113,0.776-0.196c9.119-3.013,18.501-5.255,28.278-6.339
			C280.891,259.471,280.882,265.572,280.873,271.674z"/>
		<path fill-rule="evenodd" clip-rule="evenodd" fill="none" stroke="#000000" stroke-width="3" stroke-miterlimit="10" d="
			M322.371,269.932c-2.955,0.355-5.877-0.184-8.817-0.222c-1.854-0.024-3.709-0.005-5.563-0.006c-4.9-0.327-9.77,0.312-14.659,0.298
			c0.021-5.97,0.04-11.939,0.06-17.908c4.838-0.525,9.729-0.277,14.577-0.666c4.569,0.149,9.138,0.299,13.706,0.447
			c0.154,0.06,0.307,0.119,0.461,0.178c0.058,0.439,0.163,0.878,0.166,1.316C322.333,258.891,322.35,264.41,322.371,269.932z"/>
		<path fill-rule="evenodd" clip-rule="evenodd" fill="#E09A5D" stroke="#000000" stroke-width="3" stroke-miterlimit="10" d="
			M251.846,259.904c-0.004,6.17-0.007,12.34-0.011,18.511c-4.237,1.433-8.396,2.999-12.472,4.713
			c-0.01-5.954-0.02-11.907-0.029-17.86c0-3.924,0-7.846-0.001-11.768c0.004-2.021-0.022-4.041,0.019-6.061
			c0.059-2.921,2.449-5.014,5.803-5.133c3.647-0.131,6.279,1.793,6.639,4.824c0.071,0.596-0.233,1.246,0.352,1.775
			c-0.359,0.445-0.342,0.947-0.338,1.451C251.824,253.54,251.834,256.722,251.846,259.904z"/>
		<path fill-rule="evenodd" clip-rule="evenodd" fill="#DF9A5D" stroke="#000000" stroke-width="3" stroke-miterlimit="10" d="
			M293.391,252.094c-0.02,5.969-0.039,11.938-0.06,17.908c-3.556,0.449-7.114,0.894-10.668,1.352
			c-0.603,0.078-1.194,0.213-1.79,0.32c0.009-6.102,0.018-12.203,0.027-18.305c-0.003-3.455-0.006-6.911-0.01-10.367
			c-0.002-1.74-0.055-3.481,0.008-5.221c0.092-2.625,2.431-4.669,5.471-4.867c3.43-0.223,6.065,1.429,6.732,4.131
			c0.385,1.563,0.049,3.141,0.291,4.699C293.392,245.194,293.391,248.644,293.391,252.094z"/>
		<path fill-rule="evenodd" clip-rule="evenodd" fill="none" stroke="#000000" stroke-width="3" stroke-miterlimit="10" d="
			M239.334,265.268c0.01,5.953,0.02,11.906,0.029,17.86c-4.353,1.718-8.476,3.753-12.541,5.874
			c-0.621,0.325-1.142,0.841-1.973,0.863c-0.02-5.153-0.039-10.307-0.061-15.46c-0.002-0.45,0.004-0.856,0.521-1.192
			C229.777,270.322,234.185,267.365,239.334,265.268z"/>
		<path fill-rule="evenodd" clip-rule="evenodd" fill="none" stroke="#000000" stroke-width="3" stroke-miterlimit="10" d="
			M363.68,278.408c-8.492-2.828-17.268-4.889-26.254-6.385c-0.932-0.155-1.842-0.404-2.763-0.609
			c-0.015-6.055-0.028-12.107-0.042-18.161c1.293,0.146,2.596,0.251,3.877,0.442c8.64,1.293,17.006,3.345,25.157,5.984
			C363.663,265.922,363.671,272.166,363.68,278.408z"/>
		<path fill-rule="evenodd" clip-rule="evenodd" fill="#7F3129" stroke="#000000" stroke-width="3" stroke-miterlimit="10" d="
			M376.196,253.387c9.218,3.719,17.603,8.424,25.253,14c1.535,1.119,2.293,2.482,2.289,4.15c-0.02,8.7-0.03,17.399-0.043,26.099
			c-3.893-2.325-7.791-4.644-11.666-6.987c-0.305-0.186-0.449-0.543-0.668-0.82c-0.004-4.986-0.006-9.973-0.016-14.959
			c0-0.604,0.105-1.212-0.608-1.686c-4.587-3.049-9.209-6.051-14.56-8.207C376.184,261.113,376.19,257.25,376.196,253.387z"/>
		<path fill-rule="evenodd" clip-rule="evenodd" fill="#A66D46" stroke="#000000" stroke-width="3" stroke-miterlimit="10" d="
			M376.196,253.387c-0.006,3.863-0.013,7.727-0.019,11.59c-0.01,5.945-0.018,11.889-0.027,17.834
			c-4.157-1.468-8.314-2.935-12.471-4.401c-0.009-6.243-0.017-12.487-0.024-18.729c0.016-2.52,0.073-5.039,0.026-7.557
			c-0.02-1.1,0.363-2.245-0.386-3.293c0.796-0.373,0.405-1,0.464-1.514c0.363-3.193,2.898-5.139,6.588-5.02
			c3.497,0.112,5.812,2.233,5.849,5.391C376.219,249.587,376.197,251.486,376.196,253.387z"/>
		<path fill-rule="evenodd" clip-rule="evenodd" fill="#A66D46" stroke="#000000" stroke-width="3" stroke-miterlimit="10" d="
			M334.621,253.253c0.014,6.054,0.027,12.106,0.042,18.161c-4.114-0.4-8.255-0.655-12.291-1.482
			c-0.022-5.521-0.039-11.041-0.071-16.563c-0.003-0.438-0.108-0.877-0.166-1.316c0.02-0.088,0.023-0.178,0.009-0.268
			c0.729-3.104,0.218-6.234,0.251-9.354c0.002-0.2-0.428-0.404-0.656-0.605c0.549-0.171,0.635-0.527,0.622-0.951
			c-0.021-0.672-0.009-1.346-0.003-2.02c0.031-4.676,3.34-6.756,8.89-5.591c2.573,1.302,3.644,3.172,3.487,5.628
			c-0.088,1.373-0.256,2.779,0.25,4.141c-0.538,0.396-0.377,0.922-0.378,1.406C334.602,247.377,334.614,250.315,334.621,253.253z"/>
		<path fill-rule="evenodd" clip-rule="evenodd" fill="none" stroke="#000000" stroke-width="3" stroke-miterlimit="10" d="
			M376.15,282.811c0.01-5.945,0.018-11.889,0.027-17.834c5.351,2.156,9.973,5.158,14.56,8.207c0.714,0.474,0.608,1.081,0.608,1.686
			c0.01,4.986,0.012,9.973,0.016,14.959c-0.268,0.007-0.611,0.104-0.791,0.006C385.936,287.26,380.9,285.227,376.15,282.811z"/>
		<path fill-rule="evenodd" clip-rule="evenodd" fill="#C23735" stroke="#000000" stroke-width="3" stroke-miterlimit="10" d="
			M280.891,243.002c0.004,3.456,0.007,6.912,0.01,10.367c-9.777,1.084-19.159,3.326-28.278,6.339
			c-0.25,0.083-0.518,0.131-0.776,0.196c-0.012-3.183-0.021-6.364-0.039-9.547c-0.004-0.504-0.021-1.006,0.338-1.451
			c8.854-2.688,17.996-4.494,27.301-5.797C279.92,243.043,280.408,243.037,280.891,243.002z"/>
		<path fill-rule="evenodd" clip-rule="evenodd" fill="#C23735" stroke="#000000" stroke-width="3" stroke-miterlimit="10" d="
			M293.391,252.094c0-3.45,0.001-6.899,0.002-10.35c4.861-0.033,9.703-0.631,14.576-0.317c0,3.334,0,6.667-0.001,10.001
			C303.12,251.816,298.229,251.568,293.391,252.094z"/>
		<path fill-rule="evenodd" clip-rule="evenodd" fill="#80332A" stroke="#000000" stroke-width="3" stroke-miterlimit="10" d="
			M307.968,251.428c0.001-3.334,0.001-6.667,0.001-10.001c4.6-0.105,9.182,0.192,13.77,0.399c0.229,0.201,0.658,0.405,0.656,0.605
			c-0.033,3.119,0.479,6.25-0.252,9.354c-0.156,0.031-0.313,0.061-0.469,0.09C317.105,251.727,312.537,251.577,307.968,251.428z"/>
		<path fill-rule="evenodd" clip-rule="evenodd" fill="#7F322A" stroke="#000000" stroke-width="3" stroke-miterlimit="10" d="
			M334.621,253.253c-0.007-2.938-0.02-5.876-0.015-8.813c0.001-0.484-0.16-1.011,0.378-1.406c9.684,1.141,19.138,3.019,28.311,5.797
			c0.75,1.048,0.367,2.193,0.387,3.293c0.047,2.518-0.011,5.037-0.026,7.557c-8.151-2.64-16.518-4.691-25.157-5.984
			C337.217,253.504,335.914,253.398,334.621,253.253z"/>
		<path fill-rule="evenodd" clip-rule="evenodd" fill="#A3967E" stroke="#000000" stroke-width="3" stroke-miterlimit="10" d="
			M321.674,251.875c0.156-0.029,0.313-0.059,0.469-0.09c0.016,0.09,0.012,0.18-0.008,0.268
			C321.98,251.994,321.828,251.935,321.674,251.875z"/>
	</g>
	<g>
		<g>
			<path fill-rule="evenodd" clip-rule="evenodd" fill="#070A08" d="M244.907,587.212c-43.405,0-86.811,0-130.216,0
				c-1.182-1.01-1.975-2.152-1.297-3.798c0.754-1.832,1.449-3.69,2.271-5.49c1.389-3.046,3.807-4.954,7.035-5.654
				c1.478-0.321,3.061-0.175,4.596-0.211c3.388-0.079,5.108-1.791,5.201-5.176c0.183-6.663,0.355-13.326,0.586-19.987
				c0.035-1.008-0.208-1.406-1.262-1.507c-2.271-0.218-2.817-0.825-3.112-3.056c1.055-2.104,1.725-2.365,4.465-1.988
				c11.567,1.59,22.847,0.355,33.849-3.514c0.344-0.12,0.781-0.148,0.867-0.805c-0.897-0.137-1.778-0.289-2.663-0.404
				c-4.298-0.555-8.475-1.694-12.698-2.614c-2.453-0.844-4.917-1.656-7.355-2.538c-3.969-1.436-4.989-2.841-5.174-6.977
				c0.418-0.994,0.785-2.014,1.264-2.978c2.756-5.551,5.531-11.093,8.322-16.626c0.375-0.744,0.577-1.207-0.457-1.651
				c-4.004-1.722-5.052-4.653-3.128-8.524c2.276-4.58,4.559-9.157,6.878-13.716c0.416-0.817,0.526-1.466,0.073-2.354
				c-3.201-6.279-6.328-12.595-9.493-18.892c-0.188-0.373-0.227-0.906-0.896-1.022c-1.155,2.378-2.318,4.771-3.481,7.163
				c-4.423,8.789-8.847,17.577-13.268,26.367c-1.023,2.034-1.02,2.036,1.125,2.758c2.759,0.928,3.314,2.2,2.036,4.767
				c-2.411,4.84-4.793,9.695-7.29,14.49c-0.701,1.346-0.721,1.914,0.924,2.398c2.948,0.867,3.402,2.219,2.023,5.006
				c-2.496,5.043-4.989,10.088-7.483,15.132c0.417,1.162,1.596,1.038,2.455,1.344c1.664,0.593,2.59,1.574,2.455,3.397
				c-0.67,1.477-1.774,2.235-3.395,1.766c-2.856-0.829-5.775-1.62-7.054-4.793c0-0.914,0-1.827,0-2.741
				c2.742-4.615,4.851-9.556,7.342-14.299c0.3-0.572-0.083-0.609-0.444-0.827c-3.094-1.864-3.721-4.064-2.097-7.322
				c2.13-4.271,4.29-8.525,6.398-12.807c0.23-0.468,0.981-0.994-0.225-1.548c-3.31-1.521-4.011-3.812-2.372-7.089
				c6.493-12.982,13.004-25.957,19.477-38.95c0.682-1.369,1.497-2.472,3.147-2.445c1.565,0.024,2.376,1.089,3.017,2.397
				c1.948,3.977,3.947,7.929,6.01,12.056c3.079-6.143,6.073-12.121,9.072-18.099c1.141-2.273,1.464-2.441,4.011-2.145
				c1.487,1.197,1.574,2.592,0.739,4.239c-2.878,5.684-5.708,11.391-8.555,17.089c-1.852,3.708-1.851,3.709,2.11,5.02
				c2.748,0.91,3.307,2.191,2.025,4.76c-3.149,6.312-6.313,12.615-9.474,18.921c-1.716,3.426-1.719,3.425,1.976,4.698
				c2.758,0.951,3.264,2.162,1.957,4.784c-3.276,6.568-6.566,13.13-9.849,19.696c-1.012,2.025-0.995,2.056,1.308,2.637
				c0.403,0.196,0.792,0.436,1.212,0.581c12.94,4.479,26.222,6.173,39.878,4.971c8.5-0.748,16.721-2.65,24.746-5.522
				c1.606-0.575,1.786-1.308,0.974-2.607c-0.18-0.289-0.318-0.604-0.471-0.909c-3.208-6.411-6.426-12.816-9.614-19.236
				c-1.03-2.075-0.425-3.495,1.742-4.286c1.014-0.37,2.021-0.774,3.058-1.064c0.868-0.243,0.902-0.638,0.522-1.35
				c-0.749-1.406-1.437-2.845-2.151-4.271c-2.88-5.752-5.77-11.499-8.635-17.259c-1.113-2.239-0.481-3.687,1.895-4.474
				c0.863-0.285,1.718-0.624,2.603-0.813c1.501-0.32,1.468-0.968,0.841-2.211c-7.17-14.226-14.282-28.481-21.41-42.729
				c-0.777-1.553-1.564-3.101-2.478-4.911c-1.34,2.729-2.563,5.22-3.786,7.711c-1.46,2.876-2.908,5.758-4.386,8.625
				c-0.966,1.874-1.864,2.25-3.843,1.694c-1.525-1.19-1.537-2.579-0.705-4.216c3.154-6.209,6.275-12.435,9.356-18.68
				c0.558-1.13,1.249-2.083,2.245-2.831c0.686,0,1.371,0,2.056,0c1.163,0.598,1.841,1.585,2.415,2.737
				c5.915,11.886,11.86,23.757,17.799,35.631c1.264,2.526,2.536,5.05,3.892,7.751c3.374-6.768,6.641-13.312,9.899-19.86
				c0.601-1.207,1.449-2.021,2.887-2.032c1.422-0.011,2.314,0.71,2.932,1.947c7.414,14.858,14.859,29.701,22.253,44.569
				c1.407,2.83,0.345,5.575-2.6,6.637c-1.327,0.479-1.285,0.927-0.729,2.011c2.563,5.003,5.073,10.034,7.546,15.083
				c1.395,2.847,0.44,5.742-2.43,6.973c-1.268,0.543-0.907,1.027-0.497,1.848c2.653,5.311,5.276,10.636,7.908,15.956
				c0,0.686,0,1.371,0,2.057c-0.899,2.566-2.83,3.863-5.334,4.701c-5.659,1.895-11.391,3.443-17.318,4.185
				c-0.974,0.122-1.225,0.442-1.167,1.386c0.124,2.046,0.073,4.102,0.191,6.146c0.106,1.832-0.667,2.915-2.444,3.305
				c-2.117-0.471-2.66-1.136-2.717-3.236c-0.05-1.881-0.194-3.761-0.181-5.641c0.007-1.096-0.432-1.289-1.428-1.259
				c-2.563,0.078-5.132,0.112-7.692-0.003c-1.274-0.058-1.647,0.265-1.665,1.564c-0.08,6.214-0.207,12.429-0.448,18.639
				c-0.107,2.765,0.174,5.613-1.073,8.236c-0.329,0.692-0.112,0.929,0.599,0.929c4.277-0.007,8.554-0.005,12.83-0.002
				c0.61,0.001,0.828-0.162,0.525-0.811c-1.25-2.677-1.038-5.557-1.119-8.397c-0.05-1.754,0.724-2.807,2.463-3.125
				c2.081,0.416,2.644,1.09,2.697,3.219c0.024,0.967,0.039,1.935,0.083,2.9c0.197,4.368,1.947,6.074,6.331,6.263
				c4.261,0.183,7.278,2.263,9.036,6.132c0.701,1.542,1.312,3.127,1.939,4.702C247.066,585.048,246.819,585.83,244.907,587.212z
				 M214.285,450.919c-1.8,3.549-3.502,7.152-5.447,10.619c-0.86,1.534-0.819,2.69-0.011,4.207c1.994,3.744,0.813,6.619-3.21,8.045
				c-1.19,0.422-1.427,0.797-0.813,1.993c3.123,6.076,6.167,12.193,9.196,18.316c1.714,3.465,0.523,6.705-3.075,8.05
				c-1.296,0.484-1.119,0.934-0.636,1.884c2.884,5.682,5.73,11.382,8.564,17.088c2.032,4.09,0.667,7.6-3.618,9.149
				c-3.038,1.099-6.127,2.058-9.193,3.079c-2.435,0.538-4.869,1.077-7.643,1.69c0.526,0.26,0.662,0.362,0.814,0.397
				c15.736,3.64,31.195,2.665,46.398-2.755c1.093-0.39,1.231-0.821,0.71-1.844c-2.586-5.071-4.981-10.243-7.68-15.252
				c-2.252-4.182-1.412-5.475,2.577-6.515c1.029-0.268,1.262-0.643,0.723-1.698c-2.979-5.832-5.887-11.699-8.786-17.571
				c-1.028-2.083-0.418-3.484,1.758-4.253c0.535-0.189,1.078-0.372,1.632-0.488c1.29-0.27,1.562-0.74,0.899-2.051
				c-6.34-12.544-12.603-25.128-18.896-37.696c-0.22-0.44-0.306-0.992-0.948-1.28C216.494,446.333,215.39,448.626,214.285,450.919z
				 M119.713,582.07c0.584,0,1.138,0,1.692,0c38.937,0,77.873,0,116.809,0c0.343,0,0.686-0.021,1.027,0.003
				c0.797,0.054,0.956-0.168,0.674-0.98c-0.922-2.661-2.608-3.859-5.729-3.86c-36.196-0.003-72.392-0.003-108.588,0.001
				C122.162,577.234,120.578,578.522,119.713,582.07z M191.862,552.333c0.68,4.157,0.569,8.327,0.701,12.491
				c0.076,2.393,0.735,4.542,2.823,5.914c2.618,1.722,5.488,1.809,8.317,0.658c1.678-0.682,2.737-2.147,2.803-3.983
				c0.293-8.099,0.487-16.2,0.742-24.299c0.025-0.802-0.245-1.054-1.044-1.151c-4.35-0.527-8.626-1.451-12.807-2.759
				c-1.264-0.396-1.618-0.32-1.575,1.15C191.939,544.344,191.862,548.34,191.862,552.333z M167.891,542.057
				c-4.941,1.539-9.698,2.829-14.618,3.381c-0.935,0.104-0.833,0.737-0.813,1.376c0.208,6.892,0.403,13.784,0.624,20.676
				c0.059,1.852,0.836,3.449,2.617,4.033c2.945,0.967,5.958,0.998,8.691-0.745c1.606-1.024,2.627-2.612,2.703-4.525
				C167.411,558.283,167.628,550.311,167.891,542.057z M189.448,572.022c-1.953-3.055-2.042-6.174-2.113-9.329
				c-0.186-8.333-0.465-16.664-0.654-24.997c-0.022-0.992-0.309-1.344-1.275-1.188c-0.448,0.072-0.915,0.099-1.367,0.062
				c-1.158-0.093-1.582,0.339-1.543,1.559c0.09,2.795,0.05,5.596,0.02,8.394c-0.02,1.84-1.038,2.974-2.586,2.987
				c-1.545,0.013-2.55-1.114-2.567-2.962c-0.025-2.627-0.113-5.259,0.031-7.878c0.09-1.648-0.441-2.322-2.068-2.134
				c-0.224,0.026-0.461,0.016-0.683-0.024c-1.113-0.204-1.462,0.237-1.467,1.365c-0.012,2.91-0.013,5.833-0.272,8.729
				c-0.758,8.441,0.82,17.081-2.111,25.418c1.569,0,3.169-0.085,4.755,0.025c1.384,0.096,1.88-0.292,1.844-1.771
				c-0.102-4.166-0.038-8.336-0.032-12.505c0.001-0.68-0.04-1.364,0.402-1.971c0.722-0.993,1.695-1.392,2.843-1.06
				c1.305,0.377,1.915,1.37,1.917,2.715c0.007,4.397,0.029,8.795-0.016,13.191c-0.01,0.994,0.186,1.454,1.305,1.397
				C185.57,571.957,187.337,572.022,189.448,572.022z M148.944,572.021c-0.753-1.863-0.998-3.519-1.038-5.251
				c-0.149-6.449-0.43-12.896-0.573-19.347c-0.026-1.211-0.479-1.367-1.515-1.327c-2.052,0.08-4.113,0.108-6.162-0.007
				c-1.165-0.066-1.429,0.326-1.442,1.408c-0.044,3.653-0.02,7.319-0.331,10.954c-0.369,4.301,0.421,8.698-1.04,12.905
				c-0.301,0.868,0.369,0.652,0.744,0.654C141.295,572.028,145.003,572.021,148.944,572.021z"/>
			<path fill-rule="evenodd" clip-rule="evenodd" fill="none" d="M164.941,443.706c-2.547-0.297-2.87-0.129-4.011,2.145
				c-2.999,5.978-5.993,11.956-9.072,18.099c-2.063-4.127-4.062-8.079-6.01-12.056c-0.641-1.309-1.451-2.373-3.017-2.397
				c-1.65-0.026-2.465,1.076-3.147,2.445c-6.473,12.993-12.983,25.968-19.477,38.95c-1.639,3.277-0.938,5.567,2.372,7.089
				c1.207,0.554,0.455,1.08,0.225,1.548c-2.108,4.281-4.268,8.536-6.398,12.807c-1.624,3.258-0.997,5.458,2.097,7.322
				c0.361,0.218,0.745,0.255,0.444,0.827c-2.491,4.743-4.6,9.684-7.342,14.299c0-40.55,0.006-81.1-0.033-121.648
				c-0.001-1.174,0.229-1.407,1.403-1.404c21.931,0.045,43.862,0.033,65.793,0.033c-0.996,0.748-1.687,1.701-2.245,2.831
				c-3.081,6.245-6.202,12.471-9.356,18.68c-0.832,1.637-0.82,3.025,0.705,4.215C166.897,439.562,165.919,441.634,164.941,443.706z"
				/>
			<path fill-rule="evenodd" clip-rule="evenodd" fill="none" d="M252.103,531.014c-2.632-5.32-5.255-10.646-7.908-15.956
				c-0.41-0.82-0.771-1.305,0.497-1.848c2.87-1.23,3.825-4.126,2.43-6.973c-2.473-5.049-4.983-10.08-7.546-15.083
				c-0.555-1.084-0.598-1.532,0.729-2.011c2.945-1.062,4.006-3.807,2.6-6.637c-7.394-14.868-14.839-29.711-22.253-44.569
				c-0.618-1.237-1.509-1.958-2.932-1.947c-1.438,0.012-2.287,0.825-2.887,2.032c-3.258,6.549-6.525,13.093-9.899,19.86
				c-1.356-2.701-2.627-5.225-3.892-7.751c-5.939-11.874-11.884-23.745-17.799-35.631c-0.574-1.152-1.252-2.14-2.415-2.737
				c23.281,0,46.562,0.015,69.842-0.038c1.294-0.003,1.463,0.339,1.462,1.515C252.097,452.498,252.103,491.756,252.103,531.014z"/>
			<path fill-rule="evenodd" clip-rule="evenodd" fill="none" d="M244.907,587.212c1.912-1.382,2.159-2.164,1.305-4.309
				c-0.627-1.575-1.238-3.16-1.939-4.702c-1.758-3.869-4.775-5.949-9.036-6.132c-4.384-0.188-6.134-1.895-6.331-6.263
				c-0.044-0.966-0.059-1.934-0.083-2.9c-0.053-2.129-0.616-2.803-2.697-3.219c-0.032-2.298-0.063-4.597-0.095-6.895
				c1.777-0.39,2.55-1.473,2.444-3.305c-0.118-2.045-0.067-4.101-0.191-6.146c-0.057-0.943,0.193-1.264,1.167-1.386
				c5.927-0.741,11.659-2.29,17.318-4.185c2.504-0.838,4.435-2.135,5.334-4.701c0,17.59-0.015,35.181,0.034,52.771
				c0.003,1.173-0.222,1.48-1.407,1.404C248.797,587.121,246.849,587.212,244.907,587.212z"/>
			<path fill-rule="evenodd" clip-rule="evenodd" fill="none" d="M128.708,542.333c0.295,2.23,0.84,2.838,3.112,3.056
				c1.054,0.101,1.297,0.499,1.262,1.507c-0.231,6.661-0.403,13.324-0.586,19.987c-0.093,3.385-1.813,5.097-5.201,5.176
				c-1.536,0.036-3.118-0.11-4.596,0.211c-3.228,0.7-5.646,2.608-7.035,5.654c-0.821,1.8-1.517,3.658-2.271,5.49
				c-0.678,1.646,0.116,2.788,1.297,3.798c-1.028,0-2.458,0.401-2.971-0.112c-0.514-0.515-0.113-1.943-0.113-2.972
				c0-15.534,0-31.069,0-46.604c1.279,3.173,4.198,3.964,7.054,4.793c1.62,0.47,2.724-0.289,3.396-1.766
				C124.153,541.599,126.479,541.789,128.708,542.333z"/>
			<path fill-rule="evenodd" clip-rule="evenodd" fill="#82C88E" d="M164.941,443.706c0.978-2.072,1.956-4.145,2.934-6.217
				c1.979,0.557,2.878,0.181,3.844-1.693c1.479-2.867,2.926-5.749,4.386-8.625c0.427,0.24,0.603,0.669,0.807,1.076
				c5.383,10.766,10.772,21.528,16.144,32.301c0.908,1.82,0.474,3.051-1.477,3.743c-2.438,0.865-3.975,3.612-2.409,6.48
				c3.169,5.805,5.988,11.801,8.936,17.726c1.148,2.308,0.76,3.367-1.523,4.33c-2.07,0.872-3.129,3.274-2.32,5.351
				c0.392,1.005,0.867,1.977,1.305,2.964c-0.669,0.136-1.335,0.287-2.007,0.405c-4.333,0.756-8.699,1.082-13.096,1.13
				c-2.185,0.024-3.283,1.174-3.077,2.978c0.176,1.549,1.317,2.296,3.439,2.262c5.879-0.093,11.688-0.827,17.462-1.888
				c1.541,3.178,3.083,6.354,4.623,9.533c1.118,2.31,0.438,4.456-1.922,5.323c-4.322,1.589-8.705,3.015-13.223,3.966
				c-5,1.052-10.032,1.806-15.145,2.162c-5.527,0.385-11.02,0.317-16.512-0.307c-2.982-0.339-5.954-0.768-8.93-1.156
				c-2.302-0.581-2.32-0.611-1.308-2.637c3.282-6.566,6.572-13.128,9.849-19.696c1.308-2.622,0.802-3.833-1.957-4.784
				c-3.695-1.273-3.692-1.272-1.976-4.698c3.161-6.306,6.325-12.609,9.474-18.921c1.282-2.568,0.723-3.85-2.025-4.76
				c-3.96-1.311-3.962-1.312-2.11-5.02c2.847-5.698,5.677-11.405,8.555-17.089C166.515,446.298,166.429,444.903,164.941,443.706z
				 M176.622,478.338c0.853,0.043,1.706,0.111,2.56,0.123c2.022,0.028,3.332-1.011,3.334-2.612c0.002-1.52-1.203-2.619-3.161-2.635
				c-3.537-0.027-7.039-0.38-10.541-0.819c-2.077-0.261-3.241,0.501-3.418,2.105c-0.188,1.705,0.832,2.771,2.909,3.039
				C171.068,477.896,173.824,478.332,176.622,478.338z"/>
			<path fill-rule="evenodd" clip-rule="evenodd" fill="#66B39C" d="M147.179,525.55c2.977,0.389,5.948,0.817,8.93,1.156
				c5.492,0.624,10.985,0.691,16.512,0.307c5.113-0.356,10.145-1.11,15.145-2.162c4.518-0.951,8.901-2.377,13.223-3.966
				c2.36-0.867,3.041-3.014,1.922-5.323c-1.54-3.179-3.082-6.355-4.623-9.533c1.659-1.133,2.197-2.357,1.611-3.665
				c-0.574-1.28-1.833-1.69-3.826-1.255c-0.164,0.035-0.338,0.023-0.507,0.033c-0.438-0.987-0.913-1.959-1.305-2.964
				c-0.81-2.076,0.25-4.479,2.32-5.351c2.283-0.963,2.671-2.022,1.523-4.33c-2.948-5.925-5.767-11.921-8.936-17.726
				c-1.566-2.868-0.029-5.615,2.409-6.48c1.951-0.692,2.385-1.923,1.477-3.743c-5.371-10.772-10.76-21.535-16.144-32.301
				c-0.204-0.407-0.379-0.836-0.807-1.076c1.223-2.491,2.446-4.981,3.786-7.711c0.913,1.811,1.7,3.358,2.478,4.911
				c7.128,14.247,14.24,28.503,21.41,42.729c0.626,1.243,0.66,1.891-0.841,2.211c-0.885,0.188-1.739,0.527-2.603,0.813
				c-2.376,0.787-3.008,2.234-1.895,4.474c2.865,5.76,5.755,11.507,8.635,17.259c0.714,1.426,1.402,2.864,2.151,4.271
				c0.38,0.712,0.346,1.106-0.522,1.35c-1.038,0.29-2.044,0.694-3.058,1.064c-2.167,0.791-2.772,2.211-1.742,4.286
				c3.188,6.42,6.406,12.825,9.614,19.236c0.153,0.305,0.291,0.62,0.471,0.909c0.812,1.3,0.632,2.032-0.974,2.607
				c-8.025,2.872-16.246,4.774-24.746,5.522c-13.656,1.202-26.938-0.492-39.878-4.971
				C147.97,525.985,147.582,525.746,147.179,525.55z"/>
			<path fill-rule="evenodd" clip-rule="evenodd" fill="#81C78D" d="M206.042,533.35c3.066-1.021,6.155-1.98,9.193-3.079
				c4.285-1.55,5.649-5.06,3.618-9.149c-2.834-5.706-5.681-11.406-8.564-17.088c-0.483-0.95-0.66-1.399,0.636-1.884
				c3.598-1.345,4.789-4.585,3.075-8.05c-3.03-6.123-6.074-12.24-9.196-18.316c-0.614-1.196-0.377-1.571,0.813-1.993
				c4.023-1.426,5.205-4.301,3.21-8.045c-0.808-1.517-0.849-2.673,0.011-4.207c1.945-3.467,3.647-7.07,5.447-10.619
				c0.307,0.735,0.571,1.491,0.926,2.202c3.488,7,6.997,13.989,10.483,20.99c0.379,0.763,0.811,1.551,0.949,2.372
				c0.238,1.412,0.346,2.826-1.314,3.683c-2.501,1.29-2.921,2.771-1.657,5.306c2.522,5.058,5.054,10.11,7.577,15.168
				c0.941,1.887,0.69,2.563-1.242,3.413c-2.087,0.919-2.839,2.83-1.927,4.949c0.449,1.044,0.936,2.072,1.406,3.107
				c-2.122,0.438-4.269,0.651-6.428,0.825c-1.986,0.159-2.974,1.263-2.828,2.917c0.142,1.612,1.379,2.379,3.358,2.259
				c2.901-0.177,5.75-0.716,8.621-1.103c0.928,1.949,1.842,3.906,2.79,5.846c1.319,2.701,0.733,4.375-2.03,5.343
				c-2.411,0.844-4.85,1.624-7.31,2.312C219.247,532.301,212.689,533.146,206.042,533.35z"/>
			<path fill-rule="evenodd" clip-rule="evenodd" fill="#65B39C" d="M229.486,512.109c-0.47-1.035-0.957-2.063-1.406-3.107
				c-0.912-2.119-0.16-4.03,1.927-4.949c1.932-0.851,2.183-1.526,1.242-3.413c-2.523-5.058-5.055-10.11-7.577-15.168
				c-1.264-2.535-0.844-4.016,1.657-5.306c1.66-0.856,1.552-2.271,1.314-3.683c-0.138-0.821-0.57-1.609-0.949-2.372
				c-3.486-7.001-6.995-13.99-10.483-20.99c-0.354-0.711-0.619-1.467-0.926-2.202c1.104-2.293,2.209-4.586,3.317-6.885
				c0.642,0.288,0.728,0.84,0.948,1.28c6.293,12.568,12.556,25.152,18.896,37.696c0.662,1.311,0.39,1.781-0.899,2.051
				c-0.554,0.116-1.098,0.299-1.632,0.488c-2.176,0.769-2.786,2.17-1.758,4.253c2.899,5.872,5.807,11.739,8.786,17.571
				c0.539,1.056,0.306,1.431-0.723,1.698c-3.989,1.04-4.829,2.333-2.577,6.515c2.699,5.009,5.093,10.181,7.68,15.252
				c0.521,1.022,0.383,1.454-0.71,1.844c-15.203,5.42-30.662,6.395-46.398,2.755c-0.152-0.035-0.289-0.138-0.814-0.397
				c2.773-0.613,5.208-1.152,7.643-1.69c6.646-0.203,13.205-1.049,19.617-2.842c2.46-0.688,4.898-1.468,7.31-2.312
				c2.763-0.968,3.349-2.642,2.03-5.343c-0.947-1.939-1.861-3.896-2.79-5.846c1.672-1.13,2.244-2.343,1.567-3.634
				c-0.779-1.487-2.07-1.81-3.622-1.325C229.947,512.114,229.71,512.092,229.486,512.109z"/>
			<path fill-rule="evenodd" clip-rule="evenodd" fill="#81C78D" d="M140,523.493c0.186,4.136,1.206,5.541,5.174,6.977
				c2.438,0.882,4.902,1.694,7.355,2.538c-6.419,2.201-13.064,3.32-19.798,3.771c-5.211,0.35-10.425-0.057-15.583-0.969
				c2.494-5.044,4.987-10.089,7.483-15.132c1.379-2.787,0.925-4.139-2.023-5.006c-1.645-0.484-1.625-1.053-0.924-2.398
				c2.497-4.795,4.879-9.65,7.29-14.49c1.278-2.566,0.723-3.839-2.036-4.767c-2.144-0.722-2.148-0.724-1.125-2.758
				c4.421-8.79,8.845-17.578,13.268-26.367c2.671,4.165,3.103,8.408,0.702,12.894c-1.965,3.671-3.746,7.441-5.6,11.171
				c-1.113,2.238-0.72,3.096,1.718,3.845c0.489,0.149,0.968,0.338,1.441,0.535c2.335,0.97,2.572,1.589,1.434,3.873
				c-2.901,5.824-5.778,11.66-8.745,17.45c-0.732,1.431-1.142,2.837-0.899,4.422c-0.577,1.311-0.587,2.534,0.608,3.527
				c1.352,1.123,5.351,1.199,6.856,0.152C137.73,523.006,138.865,523.249,140,523.493z"/>
			<path fill-rule="evenodd" clip-rule="evenodd" fill="#66B39C" d="M129.132,519.082c-0.243-1.585,0.167-2.991,0.899-4.422
				c2.966-5.79,5.844-11.626,8.745-17.45c1.138-2.284,0.901-2.903-1.434-3.873c-0.473-0.197-0.952-0.386-1.441-0.535
				c-2.438-0.749-2.831-1.606-1.718-3.845c1.854-3.729,3.635-7.5,5.6-11.171c2.401-4.485,1.969-8.729-0.702-12.894
				c1.163-2.393,2.326-4.785,3.481-7.163c0.67,0.116,0.709,0.649,0.896,1.022c3.165,6.297,6.292,12.612,9.493,18.892
				c0.453,0.889,0.343,1.537-0.073,2.354c-2.319,4.559-4.602,9.136-6.878,13.716c-1.924,3.871-0.876,6.803,3.128,8.524
				c1.034,0.444,0.832,0.907,0.457,1.651c-2.791,5.533-5.566,11.075-8.322,16.626c-0.479,0.964-0.845,1.983-1.264,2.978
				c-1.135-0.244-2.27-0.487-3.404-0.731c0.638-1.337,0.787-2.639-0.491-3.688C134.623,517.856,130.621,517.895,129.132,519.082z"/>
			<path fill-rule="evenodd" clip-rule="evenodd" fill="#82C88E" d="M119.713,582.07c0.865-3.548,2.448-4.836,5.886-4.837
				c36.196-0.004,72.392-0.004,108.588-0.001c3.121,0.001,4.807,1.199,5.729,3.86c0.282,0.813,0.123,1.034-0.674,0.98
				c-0.341-0.023-0.685-0.003-1.027-0.003c-38.937,0-77.873,0-116.809,0C120.852,582.07,120.298,582.07,119.713,582.07z"/>
			<path fill-rule="evenodd" clip-rule="evenodd" fill="none" d="M191.862,552.333c0-3.993,0.077-7.989-0.04-11.979
				c-0.043-1.471,0.311-1.546,1.575-1.15c4.18,1.308,8.457,2.231,12.807,2.759c0.799,0.098,1.069,0.35,1.044,1.151
				c-0.255,8.099-0.449,16.2-0.742,24.299c-0.066,1.836-1.125,3.302-2.803,3.983c-2.829,1.15-5.699,1.063-8.317-0.658
				c-2.088-1.372-2.747-3.521-2.823-5.914C192.431,560.66,192.542,556.49,191.862,552.333z"/>
			<path fill-rule="evenodd" clip-rule="evenodd" fill="none" d="M167.891,542.057c-0.263,8.254-0.48,16.227-0.796,24.195
				c-0.076,1.913-1.097,3.501-2.703,4.525c-2.732,1.743-5.746,1.712-8.691,0.745c-1.78-0.584-2.558-2.182-2.617-4.033
				c-0.221-6.892-0.416-13.784-0.624-20.676c-0.02-0.639-0.122-1.271,0.813-1.376C158.193,544.886,162.95,543.596,167.891,542.057z"
				/>
			<path fill-rule="evenodd" clip-rule="evenodd" fill="#E09169" d="M189.448,572.022c-2.111,0-3.878-0.065-5.637,0.023
				c-1.12,0.057-1.315-0.403-1.305-1.397c0.045-4.396,0.022-8.794,0.016-13.191c-0.002-1.345-0.612-2.338-1.917-2.715
				c-1.148-0.332-2.122,0.066-2.843,1.06c-0.442,0.606-0.401,1.291-0.402,1.971c-0.006,4.169-0.07,8.339,0.032,12.505
				c0.037,1.479-0.46,1.867-1.844,1.771c-1.586-0.11-3.187-0.025-4.755-0.025c2.931-8.337,1.353-16.977,2.111-25.418
				c0.26-2.896,0.261-5.818,0.272-8.729c0.005-1.128,0.354-1.569,1.467-1.365c0.222,0.04,0.459,0.051,0.683,0.024
				c1.627-0.188,2.158,0.485,2.068,2.134c-0.144,2.619-0.056,5.251-0.031,7.878c0.017,1.848,1.022,2.975,2.567,2.962
				c1.548-0.014,2.567-1.147,2.586-2.987c0.03-2.798,0.07-5.599-0.02-8.394c-0.039-1.22,0.385-1.651,1.543-1.559
				c0.452,0.037,0.919,0.011,1.367-0.062c0.966-0.156,1.252,0.195,1.275,1.188c0.189,8.333,0.469,16.664,0.654,24.997
				C187.406,565.849,187.495,568.968,189.448,572.022z"/>
			<path fill-rule="evenodd" clip-rule="evenodd" fill="#E1916A" d="M226.031,552.793c0.032,2.298,0.063,4.597,0.095,6.895
				c-1.739,0.318-2.513,1.371-2.463,3.125c0.081,2.841-0.131,5.721,1.119,8.397c0.302,0.648,0.085,0.812-0.525,0.811
				c-4.276-0.003-8.553-0.005-12.83,0.002c-0.711,0-0.928-0.236-0.599-0.929c1.248-2.623,0.966-5.472,1.073-8.236
				c0.242-6.21,0.368-12.425,0.448-18.639c0.017-1.3,0.39-1.622,1.665-1.564c2.56,0.115,5.129,0.081,7.692,0.003
				c0.996-0.03,1.436,0.163,1.428,1.259c-0.013,1.88,0.131,3.76,0.181,5.641C223.371,551.657,223.915,552.322,226.031,552.793z"/>
			<path fill-rule="evenodd" clip-rule="evenodd" fill="#E0916A" d="M148.944,572.021c-3.941,0-7.649,0.007-11.356-0.01
				c-0.375-0.002-1.045,0.214-0.744-0.654c1.461-4.207,0.671-8.604,1.04-12.905c0.312-3.635,0.287-7.301,0.331-10.954
				c0.013-1.082,0.277-1.475,1.442-1.408c2.048,0.115,4.11,0.087,6.162,0.007c1.036-0.04,1.488,0.116,1.515,1.327
				c0.143,6.45,0.423,12.897,0.573,19.347C147.946,568.503,148.191,570.158,148.944,572.021z"/>
			<path fill-rule="evenodd" clip-rule="evenodd" fill="#65B39C" d="M117.147,535.811c5.158,0.912,10.372,1.318,15.583,0.969
				c6.734-0.451,13.379-1.57,19.798-3.771c4.223,0.92,8.4,2.06,12.698,2.614c0.885,0.115,1.765,0.268,2.663,0.404
				c-0.086,0.656-0.523,0.685-0.867,0.805c-11.002,3.869-22.282,5.104-33.849,3.514c-2.74-0.377-3.41-0.116-4.465,1.988
				c-2.23-0.544-4.555-0.734-6.651-1.781c0.134-1.823-0.792-2.805-2.456-3.397C118.743,536.849,117.564,536.973,117.147,535.811z"/>
			<path fill-rule="evenodd" clip-rule="evenodd" fill="#050E08" d="M195.567,501.142c0.169-0.01,0.343,0.002,0.507-0.033
				c1.992-0.436,3.251-0.025,3.826,1.255c0.586,1.308,0.048,2.532-1.611,3.665c-5.774,1.061-11.583,1.795-17.462,1.888
				c-2.123,0.034-3.263-0.713-3.439-2.262c-0.206-1.804,0.892-2.953,3.077-2.978c4.397-0.048,8.763-0.374,13.096-1.13
				C194.232,501.429,194.898,501.277,195.567,501.142z"/>
			<path fill-rule="evenodd" clip-rule="evenodd" fill="#050E08" d="M176.622,478.338c-2.797-0.006-5.553-0.442-8.316-0.799
				c-2.078-0.268-3.097-1.334-2.909-3.039c0.177-1.604,1.341-2.366,3.418-2.105c3.502,0.439,7.004,0.792,10.541,0.819
				c1.958,0.016,3.163,1.115,3.161,2.635c-0.002,1.602-1.312,2.641-3.334,2.612C178.328,478.449,177.475,478.381,176.622,478.338z"
				/>
			<path fill-rule="evenodd" clip-rule="evenodd" fill="#050E08" d="M229.486,512.109c0.224-0.018,0.46,0.005,0.669-0.061
				c1.552-0.484,2.842-0.162,3.622,1.325c0.677,1.291,0.105,2.504-1.567,3.634c-2.871,0.387-5.72,0.926-8.621,1.103
				c-1.979,0.12-3.217-0.646-3.358-2.259c-0.146-1.654,0.842-2.758,2.828-2.917C225.217,512.761,227.364,512.547,229.486,512.109z"
				/>
			<path fill-rule="evenodd" clip-rule="evenodd" fill="#050E08" d="M129.132,519.082c1.489-1.188,5.491-1.226,6.972-0.009
				c1.278,1.05,1.129,2.352,0.491,3.688c-1.504,1.047-5.503,0.971-6.855-0.152C128.544,521.616,128.555,520.393,129.132,519.082z"/>
		</g>
	</g>
	<path fill-rule="evenodd" clip-rule="evenodd" d="M56.088,411.659c-0.002-4.611,0.006-9.221-0.002-13.832
		c-0.011-6.202,3.016-10.118,9.137-10.917c6.2-0.809,10.918,2.23,11.295,8.395c0.654,10.747,0.625,21.597-0.063,32.341
		c-0.4,6.234-5.285,9.086-11.377,8.281c-5.756-0.762-8.81-4.59-8.963-10.436C55.993,420.884,56.09,416.271,56.088,411.659z"/>
	<path fill-rule="evenodd" clip-rule="evenodd" d="M151.684,292.506c4.484-1.074,8.97-2.14,13.452-3.22
		c6.029-1.453,10.541,0.579,12.742,6.347c2.229,5.842,0.371,11.137-5.536,12.938c-10.299,3.137-20.857,5.633-31.467,7.464
		c-6.156,1.061-10.066-3.026-10.701-9.139c-0.599-5.775,2.414-9.636,8.064-11.145C142.69,294.56,147.199,293.581,151.684,292.506z"
		/>
	<path fill-rule="evenodd" clip-rule="evenodd" d="M434.579,253.314c3.135-3.383,6.275-6.757,9.405-10.143
		c4.21-4.555,9.092-5.367,14.122-1.79c5.096,3.624,6.488,9.06,2.572,13.835c-6.828,8.324-14.228,16.259-22.038,23.668
		c-4.534,4.299-10.055,3.068-13.974-1.665c-3.701-4.474-3.337-9.356,0.525-13.746C428.236,260.012,431.445,256.695,434.579,253.314z
		"/>
	<path fill-rule="evenodd" clip-rule="evenodd" d="M294.405,577.654c-4.568-0.633-9.133-1.274-13.702-1.9
		c-6.143-0.842-9.605-4.378-9.557-10.551c0.052-6.253,3.711-10.508,9.868-10.034c10.734,0.83,21.477,2.352,32.024,4.509
		c6.12,1.255,8.273,6.484,6.639,12.407c-1.546,5.598-5.757,8.096-11.568,7.443C303.528,579.017,298.973,578.286,294.405,577.654z"/>
	<path fill-rule="evenodd" clip-rule="evenodd" d="M358.75,594.692c-4.325-1.599-8.646-3.205-12.974-4.798
		c-5.819-2.142-8.441-6.339-7.066-12.356c1.393-6.096,5.88-9.466,11.792-7.681c10.306,3.115,20.471,6.907,30.309,11.28
		c5.708,2.539,6.688,8.11,3.818,13.544c-2.711,5.134-7.361,6.67-12.896,4.785C367.368,597.983,363.075,596.291,358.75,594.692z"/>
	<path fill-rule="evenodd" clip-rule="evenodd" d="M89.233,339.557c3.135-3.382,6.275-6.756,9.405-10.143
		c4.21-4.553,9.092-5.366,14.122-1.789c5.096,3.623,6.488,9.061,2.572,13.836c-6.828,8.322-14.228,16.258-22.038,23.668
		c-4.534,4.297-10.055,3.066-13.974-1.666c-3.701-4.473-3.337-9.355,0.525-13.746C82.891,346.255,86.1,342.939,89.233,339.557z"/>
	<path fill-rule="evenodd" clip-rule="evenodd" fill="#00AEEF" d="M412.098,457.879c-10.408,0.504-19.083-1.955-26.462-6.132
		c-11.135-6.303-24.778-6.202-35.044-0.184c-15.216,8.921-39.703,8.502-54.138,0c-4.729-2.787-10.271-4.56-17.245-4.626
		c-5.63-0.054-8.597-2.668-8.24-5.952c0.322-2.954,3.908-4.954,9.318-4.92c9.603,0.062,17.978,2.276,25.247,6.186
		c6.88,3.701,14.386,6.366,23.689,4.466c3.826-0.781,7.678-2.096,10.699-3.762c16.85-9.289,39.018-8.869,55.137-0.375
		c12.768,6.73,21.112,6.437,34.293-0.035c7.628-3.746,15.849-6.396,25.692-6.484c5.915-0.052,9.968,2.156,10.12,5.31
		c0.139,2.837-3.768,5.593-9.184,5.623c-6.547,0.04-11.484,1.88-16.232,4.348C431.677,455.536,422.845,458.51,412.098,457.879z"/>
	<path fill-rule="evenodd" clip-rule="evenodd" d="M328.053,140.525c4.613-0.002,9.234-0.164,13.84,0.039
		c6.398,0.283,10.631,4.432,10.785,10.217c0.154,5.92-3.682,10.69-10.018,10.969c-9.668,0.422-19.391,0.45-29.051-0.08
		c-6.779-0.369-10.619-5.366-10.15-11.559c0.422-5.563,4.938-9.406,11.445-9.564C319.285,140.441,323.67,140.527,328.053,140.525z"
		/>
	<g>
		<g>
			<path fill-rule="evenodd" clip-rule="evenodd" fill="none" d="M367.5,541.469c33.326,0,66.651,0,99.977,0
				c0,35.589,0,71.176,0,106.766c-33.326,0-66.651,0-99.977,0C367.5,612.645,367.5,577.058,367.5,541.469z M422.853,639.336
				l-0.045-0.027c-0.548,0.279-1.096,0.562-1.734,0.891c2.211,0.144,4.336-1.547,6.475-0.456c-0.358,0.487-0.612,0.831-1.019,1.383
				c2.389-0.249,2.389-0.249,2.898,0.866c-0.661,0.147-1.321,0.294-1.983,0.441c0.026,0.146,0.05,0.292,0.076,0.438
				c1.178-0.149,2.355-0.298,3.624-0.459c-0.117,0.642-0.177,0.965-0.288,1.576c2.413,0,4.669,0,7.2,0
				c-1.5-0.265-2.779-0.393-3.994-0.738c-0.858-0.245-1.758-0.644-2.421-1.225c-2.57-2.246-4.307-5.05-5.249-8.352
				c-2.275-7.963-2.373-16.221-3.324-24.36c-0.536-4.589-0.994-9.187-1.58-13.768c-0.294-2.298-0.794-4.569-1.201-6.853
				c0.427,0.068,0.554,0.22,0.583,0.389c0.915,5.276,1.948,10.537,2.686,15.838c0.627,4.516,0.822,9.093,1.377,13.621
				c0.489,3.993,1.181,7.962,1.839,11.935c0.618,3.721,2.264,7.007,4.744,9.798c0.905,1.019,2.225,1.963,3.517,2.276
				c2.201,0.532,4.529,0.56,6.808,0.738c0.281,0.021,0.59-0.334,1.088-0.637c-3.723-0.906-3.723-0.906-3.493-2.96
				c1.139,0.217,2.286,0.436,3.432,0.653c0.005-0.074,0.01-0.146,0.015-0.222c-1.105-0.598-2.212-1.195-3.317-1.792
				c0.075-0.16,0.149-0.319,0.226-0.479c3.77,2.894,7.982,3.166,12.376,2.348c-3.473-0.857-5.647-2.264-6.841-4.884
				c4.01,3.578,8.757,2.934,13.215,3.44c-1.884-0.502-3.822-0.685-5.751-0.94c-1.973-0.262-3.978-0.479-5.498-1.815
				c5.039,0.671,10.101,1.345,15.162,2.019c0.035-0.15,0.071-0.299,0.106-0.448c-3.999-0.94-7.999-1.883-11.998-2.825
				c0.029-0.155,0.058-0.313,0.086-0.467c3.662,0.479,7.323,0.957,10.984,1.437c0.028-0.156,0.057-0.314,0.085-0.471
				c-1.161-0.619-2.324-1.23-3.481-1.855c-5.003-2.695-7.107-7.511-9.009-12.438c-2.66-6.888-3.662-14.192-5.116-21.37
				c-1.589-7.839-2.919-15.714-9.236-21.509c-0.287-0.263-0.297-1.037-0.173-1.503c0.656-2.469,0.666-4.818-0.592-7.152
				c-1.02-1.896-1.93-3.862-2.726-5.862c-2.142-5.387-4.878-10.41-8.691-14.809c-0.571-0.659-1.146-1.326-1.793-1.908
				c-1.647-1.48-3.083-1.502-4.534,0.188c-3.729,4.342-6.965,9.008-9.074,14.394c-0.876,2.239-1.838,4.467-3.006,6.563
				c-1.453,2.611-1.788,5.215-0.648,7.962c0.427,1.03,0.295,1.805-0.455,2.646c-2.969,3.328-4.853,7.25-5.91,11.547
				c-1.556,6.33-3.117,12.663-4.47,19.038c-1.224,5.771-2.844,11.335-6.136,16.326c-1.764,2.674-3.805,5.023-6.784,6.289
				c-1.973,0.837-3.299,2.817-5.601,3.04c-0.202,0.021-0.362,0.481-0.714,0.986c2.648-0.361,4.964-0.784,7.298-0.97
				c3.314-0.266,5.341-2.195,7.002-4.832c2.02-3.207,3.188-6.658,3.969-10.377c1.859-8.857,4.004-17.657,6.066-26.472
				c1.249-5.339,3.199-10.362,6.772-14.362c1.355,2.404,2.76,4.897,4.155,7.371c-0.706-0.522-1.504-1.113-2.302-1.705
				c-0.083,0.108-0.166,0.218-0.249,0.324c1.026,0.844,2.052,1.686,3.23,2.653c-0.648,1.14-1.297,2.282-1.851,3.257
				c0.624,0.169,1.192,0.322,1.956,0.529c-0.795,0.233-1.45,0.224-1.67,0.526c-1.071,1.478-0.727,2.759,0.717,3.863
				c-0.252-0.155-0.503-0.313-0.854-0.53c-0.078,0.379-0.141,0.686-0.202,0.982c-0.419-0.109-0.77-0.2-1.021-0.266
				c0.129,0.606,0.243,1.133,0.39,1.825c-0.641-0.133-1.012-0.212-1.493-0.313c0.274,0.396,0.477,0.689,0.715,1.034
				c-0.385,0.024-0.617,0.04-0.908,0.059c0.39,0.499,0.687,0.879,0.96,1.228c-0.485,0.302-0.887,0.551-1.294,0.806
				c0.496,0.32,0.892,0.577,1.488,0.962c-0.73,0-1.16,0-1.59,0c0.083,0.461,0.166,0.923,0.252,1.398
				c-0.203,0.051-0.467,0.117-0.948,0.238c0.528,0.3,0.861,0.489,1.24,0.704c-0.42,0.141-0.764,0.256-1.193,0.4
				c1.443,0.843,0.555,1.292-0.273,1.79c0.476,0.25,0.848,0.445,1.36,0.714c-0.521,0.188-0.857,0.311-1.342,0.485
				c0.405,0.247,0.632,0.386,0.958,0.586c-0.411,0.119-0.689,0.2-0.967,0.282c0.034,0.143,0.068,0.285,0.102,0.428
				c0.579-0.133,1.157-0.265,1.695-0.389c0.459,1.739-1.572,0.377-1.822,1.248c0.707,0.241,1.352,0.461,1.996,0.68
				c-0.738,0.242-1.306,0.147-1.808,0.286c-0.216,0.061-0.298,0.603-0.442,0.927c0.098,0.037,0.196,0.074,0.293,0.112
				c0.226-0.212,0.451-0.422,0.677-0.634c0.101,0.134,0.201,0.267,0.302,0.399c-0.542,0.384-1.083,0.767-1.641,1.16
				c0.985,0.551,0.798,0.924,0.15,1.259c-0.186,0.592-0.374,1.182-0.597,1.888c0.165,0.087,0.611,0.324,1.059,0.561
				c-0.017,0.066-0.036,0.132-0.053,0.197c-0.549-0.061-1.099-0.12-1.648-0.18c-0.034,0.106-0.068,0.213-0.103,0.319
				c0.582,0.24,1.163,0.479,1.768,0.729c-0.264,0.46-0.488,0.85-0.675,1.178c-0.521-0.073-0.945-0.132-1.371-0.19
				c-0.03,0.122-0.061,0.246-0.092,0.369c0.282,0.153,0.566,0.307,1.021,0.553c-0.397,0.637-0.788,1.264-1.231,1.975
				c0.027,0.022,0.31,0.247,0.831,0.66c-0.69,0-1.062,0-1.608,0c0.431,0.475,0.723,0.797,0.797,0.88
				c-0.512,1.686-0.953,3.138-1.445,4.76c0.089-0.011-0.208,0.024-0.829,0.097c0.684,0.446,1.083,0.705,1.667,1.085
				c-0.768-0.154-1.269-0.257-1.77-0.356c-0.035,0.094-0.071,0.189-0.107,0.283c0.195,0.173,0.39,0.345,0.32,0.283
				c-0.413,0.96-0.775,1.804-1.136,2.641c0.22,0.199,0.444,0.4,0.667,0.6c-0.042,0.061-0.083,0.121-0.125,0.181
				c-0.316-0.107-0.631-0.214-0.884-0.301c-0.725,1.266-1.441,2.519-2.25,3.934c0.176,0.03-0.094-0.017-0.517-0.09
				c0.198,0.273,0.303,0.419,0.234,0.323c-2.837,2.902-6.017,5.271-10.111,6.172c3.405,0.469,6.579-0.883,10.17-0.893
				c-0.643,0.499-1.15,0.894-1.924,1.494c2.599,0.292,4.536-0.498,6.366-1.793c4.069-2.876,5.901-7.148,7.134-11.698
				c2.53-9.332,2.885-18.996,4.107-28.527c0.049-0.379,0.102-0.757,0.156-1.153c0.892,0.215,1.011,0.419,0.674,1.255
				c-0.314,0.781,0.069,1.819,0.016,2.737c-0.025,0.442-0.495,0.865-0.5,1.299c-0.007,0.714,0.202,1.431,0.319,2.145
				c0.398-0.211,0.798-0.422,1.16-0.613c-0.387,0.595-0.81,1.245-1.289,1.982c0.018,0.008-0.264-0.104-0.545-0.213
				c-0.063,0.101-0.124,0.199-0.186,0.299c0.463,0.365,0.928,0.729,1.466,1.149c-0.429,0.082-0.718,0.137-0.609,0.116
				c-0.24,1.634-0.453,3.074-0.708,4.803c0.012,0.18,0.052,0.637,0.063,1.096c0.014,0.55,0.003,1.1,0.003,1.649
				c-0.097-0.03-0.193-0.061-0.29-0.091c-0.109,0.509-0.218,1.017-0.353,1.644c0.14-0.021-0.112,0.019-0.528,0.08
				c0.41,0.373,0.662,0.603,0.984,0.896c-0.421,0.029-0.668,0.048-1.208,0.087c0.572,0.387,0.882,0.597,1.364,0.923
				c-0.543,0-0.876,0-1.246,0c0.794,1.235-1.215,2.692,0.131,3.589c-0.276,0.396-0.649,0.728-0.765,1.131
				c-0.59,2.084-1.139,4.181-1.644,6.288c-0.121,0.51-0.017,1.073-0.017,1.612c-0.201-0.075-0.451-0.171-0.928-0.352
				c0.253,0.517,0.398,0.813,0.435,0.889c-1.588,2.262-3.006,4.517-4.662,6.579c-1.86,2.319-4.74,2.882-7.46,3.666
				c3.603-0.257,7.143-0.596,10.65-1.148c1.001-0.157,2.205-0.701,2.793-1.468c1.38-1.8,2.834-3.706,3.563-5.811
				c2.396-6.921,2.634-14.234,3.368-21.447c0.57-5.602,0.997-11.219,1.661-16.809c0.235-1.984,0.986-3.907,1.502-5.858
				c0.25,0.99,0.155,1.901,0.023,2.807c-0.433,2.945-1.009,5.877-1.295,8.837c-0.809,8.353-1.384,16.73-2.284,25.072
				c-0.545,5.06-1.686,10.008-5.534,14.223c1.427-0.213,2.552-0.379,3.677-0.546c-0.017-0.1-0.033-0.198-0.049-0.298
				c-0.466,0-0.932,0-1.398,0c-0.023-0.168-0.045-0.336-0.068-0.504c2.657-1.178,5.763,0.207,8.705-1.089c-2.709,0-5.119,0-7.528,0
				c-0.007-0.153-0.013-0.306-0.021-0.46C416.087,639.52,419.47,639.428,422.853,639.336z M380.403,640.003
				c0.009,0.196,0.017,0.392,0.026,0.588c0.494,0,0.993,0.045,1.481-0.008c1.531-0.165,3.074-0.281,4.58-0.579
				c1.11-0.221,2.306-0.486,3.229-1.09c4.844-3.172,7.467-7.947,8.938-13.352c2.582-9.485,4.541-19.095,4.98-28.957
				c0.027-0.59,0.115-1.177,0.174-1.767c-0.131-0.016-0.262-0.032-0.394-0.05c-0.291,1.352-0.582,2.703-0.886,4.122
				c-0.377-0.299-0.617-0.487-0.856-0.677c-0.14,0.07-0.28,0.141-0.418,0.211c0.275,0.913,0.55,1.826,0.833,2.764
				c-0.458-0.138-1.418-0.818-1.129,0.46c-0.554-0.331-1.147-0.689-1.739-1.045c-0.018,0.06-0.035,0.118-0.052,0.177
				c0.886,1.019,1.772,2.033,2.844,3.262c-0.593-0.031-0.877-0.045-1.234-0.063c0.187,0.381,0.311,0.638,0.436,0.895
				c-0.158,0.04-0.315,0.08-0.472,0.119c-0.102-0.73-0.205-1.46-0.307-2.193c-0.066,0.006-0.132,0.012-0.199,0.017
				c-0.027,0.304-0.054,0.608-0.092,1.063c-0.422-0.336-0.734-0.585-1.251-0.997c0.061,0.868,0.103,1.459,0.147,2.096
				c-0.397-0.104-0.978-0.257-1.847-0.484c0.377,0.496,0.645,0.847,0.995,1.309c-0.516,0.061-0.942,0.109-1.371,0.16
				c-0.007,0.096-0.015,0.192-0.023,0.289c0.681,0.105,1.361,0.209,2.041,0.313c0.01,0.093,0.02,0.188,0.03,0.279
				c-0.696,0.134-1.393,0.269-2.099,0.403c0.13,0.583,0.245,1.096,0.355,1.594c-0.369,0.022-0.625,0.037-0.592,0.035
				c-0.044,0.597-0.074,1.005-0.107,1.448c0.404,0.369,0.907,0.827,1.41,1.284c-0.044,0.024-0.088,0.047-0.133,0.069
				c-0.683-0.362-1.364-0.726-2.379-1.265c0.907,1.016,1.527,1.708,2.147,2.4c-0.114,0.094-0.229,0.188-0.343,0.282
				c-0.338-0.443-0.676-0.885-0.899-1.178c-0.362,0.646-0.71,1.262-1.088,1.935c0.222,0.129,0.775,0.454,1.33,0.779
				c-0.036,0.079-0.072,0.157-0.107,0.236c-0.455-0.086-0.911-0.173-1.507-0.288c0.694,0.768,1.246,1.379,1.915,2.12
				c-0.616-0.094-1.034-0.157-1.313-0.199c-0.752,1.621-1.439,3.1-2.18,4.696c0.804,0.875-0.442,1.499-1.129,2.575
				c0.689,0.039,1.22,0.068,1.74,0.098c0,0.176,0,0.506,0,0.838c-0.092-0.13-0.185-0.258-0.277-0.387
				c-0.613,0.301-1.228,0.602-1.927,0.943c0.513,0.569,0.818,0.907,1.123,1.246c-0.075,0.08-0.149,0.159-0.224,0.24
				c-0.308-0.229-0.614-0.458-0.941-0.701c-0.764,1.51-1.474,2.915-2.243,4.436c0.166,0.197,0.539,0.637,1.171,1.383
				c-0.98-0.438-1.588-0.71-2.407-1.075c0.307,0.645,0.477,1.003,0.626,1.316c-0.521,0-1.252-0.062-1.265,0.011
				c-0.122,0.655-0.12,1.334-0.159,2.104c-0.472,0.072-1.075,0.168-1.676,0.262c0.08,0.209,0.16,0.419,0.291,0.76
				c-0.488-0.19-0.815-0.319-1.144-0.447c-0.048,0.094-0.099,0.187-0.148,0.278c0.563,0.471,1.127,0.938,1.69,1.407
				c-0.823,0.039-1.473-0.392-2.107-0.371c-1.347,0.047-2.681,0.361-4.027,0.503c-1.126,0.12-2.262,0.151-3.393,0.222
				c0.002,0.105,0.004,0.212,0.007,0.317c2.776,0,5.551,0,8.326,0c0.006,0.169,0.012,0.339,0.018,0.51
				c-2.211,0.271-4.423,0.543-6.635,0.813c-0.001,0.125-0.002,0.248-0.003,0.372c2.758,0,5.517,0,8.275,0
				c-0.001,0.151-0.001,0.3-0.002,0.45C384.691,639.547,382.547,639.774,380.403,640.003z M410.078,643.61
				c-0.06-0.242-0.121-0.483-0.183-0.726c-1.212,0.311-2.425,0.62-3.637,0.933c0.047,0.188,0.095,0.377,0.143,0.565
				C407.626,644.125,408.852,643.868,410.078,643.61z M420.861,641.512c-0.027,0.105-0.055,0.21-0.082,0.316
				c1.813-0.334,3.626-0.668,5.44-1.002c-0.028-0.154-0.058-0.309-0.086-0.465C424.375,640.746,422.617,641.129,420.861,641.512z"/>
			<path fill-rule="evenodd" clip-rule="evenodd" d="M422.853,639.336c-3.383,0.092-6.766,0.184-10.149,0.275
				c0.007,0.154,0.014,0.307,0.021,0.46c2.41,0,4.819,0,7.528,0c-2.942,1.296-6.048-0.089-8.705,1.089
				c0.023,0.168,0.045,0.336,0.068,0.504c0.466,0,0.932,0,1.398,0c0.017,0.1,0.033,0.198,0.049,0.298
				c-1.125,0.167-2.25,0.333-3.677,0.546c3.849-4.215,4.989-9.163,5.534-14.223c0.9-8.342,1.476-16.72,2.284-25.072
				c0.287-2.96,0.862-5.892,1.295-8.837c0.132-0.905,0.227-1.816-0.023-2.807c-0.516,1.951-1.267,3.874-1.502,5.858
				c-0.665,5.59-1.091,11.207-1.661,16.809c-0.734,7.213-0.972,14.526-3.368,21.447c-0.729,2.104-2.183,4.011-3.563,5.811
				c-0.588,0.767-1.792,1.311-2.793,1.468c-3.507,0.553-7.047,0.892-10.65,1.148c2.72-0.784,5.601-1.347,7.46-3.666
				c1.655-2.063,3.073-4.317,4.662-6.579c-0.037-0.075-0.182-0.372-0.435-0.889c0.478,0.181,0.727,0.276,0.928,0.352
				c0-0.539-0.104-1.103,0.017-1.612c0.505-2.107,1.053-4.204,1.644-6.288c0.116-0.403,0.489-0.735,0.765-1.131
				c-1.346-0.896,0.663-2.354-0.131-3.589c0.37,0,0.703,0,1.246,0c-0.482-0.326-0.792-0.536-1.364-0.923
				c0.54-0.039,0.788-0.058,1.208-0.087c-0.323-0.294-0.575-0.523-0.984-0.896c0.416-0.062,0.667-0.102,0.528-0.08
				c0.134-0.627,0.244-1.135,0.353-1.644c0.097,0.03,0.193,0.061,0.29,0.091c0-0.55,0.011-1.1-0.003-1.649
				c-0.012-0.459-0.052-0.916-0.063-1.096c0.255-1.729,0.468-3.169,0.708-4.803c-0.109,0.021,0.18-0.034,0.609-0.116
				c-0.538-0.421-1.003-0.784-1.466-1.149c0.062-0.1,0.123-0.198,0.186-0.299c0.281,0.109,0.563,0.221,0.545,0.213
				c0.479-0.737,0.902-1.388,1.289-1.982c-0.362,0.191-0.762,0.402-1.16,0.613c-0.118-0.714-0.326-1.431-0.319-2.145
				c0.005-0.434,0.475-0.856,0.5-1.299c0.053-0.918-0.331-1.956-0.016-2.737c0.337-0.836,0.218-1.04-0.674-1.255
				c-0.054,0.396-0.107,0.774-0.156,1.153c-1.222,9.531-1.577,19.195-4.107,28.527c-1.233,4.55-3.065,8.822-7.134,11.698
				c-1.831,1.295-3.767,2.085-6.366,1.793c0.774-0.601,1.281-0.995,1.924-1.494c-3.591,0.01-6.765,1.361-10.17,0.893
				c4.094-0.901,7.274-3.27,10.111-6.172c0.069,0.096-0.036-0.05-0.234-0.323c0.423,0.073,0.693,0.12,0.517,0.09
				c0.81-1.415,1.526-2.668,2.25-3.934c0.252,0.087,0.568,0.193,0.884,0.301c0.042-0.06,0.083-0.12,0.125-0.181
				c-0.223-0.199-0.447-0.4-0.667-0.6c0.361-0.837,0.723-1.681,1.136-2.641c0.069,0.062-0.125-0.11-0.32-0.283
				c0.036-0.094,0.072-0.189,0.107-0.283c0.501,0.1,1.002,0.202,1.77,0.356c-0.583-0.38-0.982-0.639-1.667-1.085
				c0.622-0.072,0.918-0.107,0.829-0.097c0.492-1.622,0.934-3.074,1.445-4.76c-0.074-0.083-0.366-0.405-0.797-0.88
				c0.547,0,0.918,0,1.608,0c-0.521-0.413-0.804-0.638-0.831-0.66c0.443-0.711,0.834-1.338,1.231-1.975
				c-0.455-0.246-0.739-0.399-1.021-0.553c0.031-0.123,0.062-0.247,0.092-0.369c0.425,0.059,0.85,0.117,1.371,0.19
				c0.188-0.328,0.412-0.718,0.675-1.178c-0.605-0.25-1.187-0.489-1.768-0.729c0.035-0.106,0.069-0.213,0.103-0.319
				c0.549,0.06,1.1,0.119,1.648,0.18c0.018-0.065,0.036-0.131,0.053-0.197c-0.447-0.236-0.894-0.474-1.059-0.561
				c0.224-0.706,0.411-1.296,0.597-1.888c0.648-0.335,0.835-0.708-0.15-1.259c0.557-0.394,1.098-0.776,1.641-1.16
				c-0.101-0.133-0.201-0.266-0.302-0.399c-0.226,0.212-0.451,0.422-0.677,0.634c-0.098-0.038-0.196-0.075-0.293-0.112
				c0.144-0.324,0.226-0.866,0.442-0.927c0.502-0.139,1.07-0.044,1.808-0.286c-0.644-0.219-1.289-0.438-1.996-0.68
				c0.25-0.871,2.281,0.491,1.822-1.248c-0.538,0.124-1.116,0.256-1.695,0.389c-0.033-0.143-0.067-0.285-0.102-0.428
				c0.278-0.082,0.557-0.163,0.967-0.282c-0.326-0.2-0.553-0.339-0.958-0.586c0.485-0.175,0.821-0.297,1.342-0.485
				c-0.513-0.269-0.885-0.464-1.36-0.714c0.828-0.498,1.716-0.947,0.273-1.79c0.429-0.145,0.773-0.26,1.193-0.4
				c-0.379-0.215-0.712-0.404-1.24-0.704c0.481-0.121,0.746-0.188,0.948-0.238c-0.086-0.476-0.169-0.938-0.252-1.398
				c0.43,0,0.859,0,1.59,0c-0.596-0.385-0.992-0.642-1.488-0.962c0.407-0.255,0.809-0.504,1.294-0.806
				c-0.274-0.349-0.571-0.729-0.96-1.228c0.292-0.019,0.523-0.034,0.908-0.059c-0.238-0.345-0.441-0.639-0.715-1.034
				c0.481,0.101,0.853,0.18,1.493,0.313c-0.147-0.692-0.26-1.219-0.39-1.825c0.251,0.065,0.602,0.156,1.021,0.266
				c0.061-0.297,0.124-0.604,0.202-0.982c0.351,0.218,0.602,0.375,0.854,0.53c-1.444-1.104-1.789-2.386-0.717-3.863
				c0.221-0.303,0.875-0.293,1.67-0.526c-0.763-0.207-1.332-0.36-1.956-0.529c0.554-0.975,1.203-2.117,1.851-3.257
				c-1.178-0.968-2.205-1.81-3.23-2.653c0.083-0.106,0.166-0.216,0.249-0.324c0.798,0.592,1.596,1.183,2.302,1.705
				c-1.395-2.474-2.8-4.967-4.155-7.371c-3.573,4-5.523,9.023-6.772,14.362c-2.063,8.814-4.208,17.614-6.066,26.472
				c-0.781,3.719-1.949,7.17-3.969,10.377c-1.661,2.637-3.688,4.566-7.002,4.832c-2.334,0.186-4.65,0.608-7.298,0.97
				c0.353-0.505,0.512-0.966,0.714-0.986c2.301-0.223,3.627-2.203,5.601-3.04c2.979-1.266,5.021-3.615,6.784-6.289
				c3.292-4.991,4.912-10.555,6.136-16.326c1.353-6.375,2.914-12.708,4.47-19.038c1.058-4.297,2.941-8.219,5.91-11.547
				c0.75-0.841,0.882-1.615,0.455-2.646c-1.14-2.747-0.805-5.351,0.648-7.962c1.168-2.097,2.13-4.324,3.006-6.563
				c2.109-5.386,5.346-10.052,9.074-14.394c1.452-1.69,2.887-1.669,4.534-0.188c0.647,0.582,1.222,1.249,1.793,1.908
				c3.813,4.398,6.549,9.422,8.691,14.809c0.795,2,1.706,3.967,2.726,5.862c1.257,2.334,1.248,4.684,0.592,7.152
				c-0.124,0.466-0.113,1.24,0.173,1.503c6.317,5.795,7.647,13.67,9.236,21.509c1.455,7.178,2.457,14.482,5.116,21.37
				c1.902,4.928,4.006,9.743,9.009,12.438c1.157,0.625,2.32,1.236,3.481,1.855c-0.028,0.156-0.057,0.314-0.085,0.471
				c-3.661-0.479-7.322-0.957-10.984-1.437c-0.028,0.154-0.057,0.312-0.086,0.467c4,0.942,7.999,1.885,11.998,2.825
				c-0.035,0.149-0.071,0.298-0.106,0.448c-5.062-0.674-10.124-1.348-15.162-2.019c1.52,1.337,3.525,1.554,5.498,1.815
				c1.929,0.256,3.868,0.438,5.751,0.94c-4.458-0.507-9.206,0.138-13.215-3.44c1.194,2.62,3.369,4.026,6.841,4.884
				c-4.395,0.818-8.606,0.546-12.376-2.348c-0.076,0.159-0.151,0.318-0.226,0.479c1.105,0.597,2.212,1.194,3.317,1.792
				c-0.004,0.075-0.009,0.147-0.015,0.222c-1.146-0.218-2.293-0.437-3.432-0.653c-0.23,2.054-0.23,2.054,3.493,2.96
				c-0.498,0.303-0.807,0.658-1.088,0.637c-2.279-0.179-4.607-0.206-6.808-0.738c-1.292-0.313-2.611-1.258-3.517-2.276
				c-2.48-2.791-4.126-6.077-4.744-9.798c-0.659-3.973-1.35-7.941-1.839-11.935c-0.555-4.528-0.75-9.105-1.377-13.621
				c-0.738-5.301-1.771-10.562-2.686-15.838c-0.029-0.169-0.156-0.32-0.583-0.389c0.407,2.283,0.907,4.555,1.201,6.853
				c0.586,4.581,1.044,9.179,1.58,13.768c0.952,8.14,1.049,16.397,3.324,24.36c0.942,3.302,2.679,6.105,5.249,8.352
				c0.663,0.581,1.563,0.979,2.421,1.225c1.215,0.346,2.495,0.474,3.994,0.738c-2.531,0-4.787,0-7.2,0
				c0.111-0.611,0.171-0.935,0.288-1.576c-1.269,0.161-2.446,0.31-3.624,0.459c-0.025-0.146-0.05-0.292-0.076-0.438
				c0.662-0.147,1.323-0.294,1.984-0.439c-0.51-1.117-0.51-1.117-2.899-0.868c0.407-0.552,0.661-0.896,1.019-1.383
				c-2.139-1.091-4.264,0.6-6.475,0.456c0.639-0.329,1.186-0.611,1.732-0.892c1.419-0.165,2.842-0.327,4.264-0.489
				c-0.004-0.166-0.009-0.331-0.014-0.495c-4.423-0.327-8.847-0.354-13.284,0.342c0.359,0.198,0.729,0.304,1.101,0.302
				c2.138-0.007,4.277-0.066,6.415-0.043C421.81,638.932,422.332,639.191,422.853,639.336z M409.611,569.408l-0.028-0.033
				c-0.36,1.605-1.245,3.318-0.945,4.791c0.372,1.822,1.037,3.746,2.505,5.245c2.84,2.9,5.539,5.941,8.446,9.088
				c-0.418-0.955-0.621-1.981-1.214-2.671c-1.803-2.101-3.805-4.034-5.64-6.11c-2.113-2.392-3.642-5.099-2.597-8.399
				c1.479-4.669,4.166-8.668,7.436-12.277c0.771-0.852,1.739-0.877,2.652-0.276c0.633,0.417,1.301,0.903,1.711,1.52
				c1.956,2.938,3.966,5.854,5.69,8.929c1.661,2.963,1.571,5.969-0.695,8.742c-1.85,2.265-3.687,4.547-5.415,6.906
				c-0.579,0.791-0.801,1.846-1.187,2.779c2.828-3.174,5.471-6.328,8.089-9.504c0.457-0.555,1.174-1.219,1.141-1.796
				c-0.121-2.076,0.717-4.242-0.532-6.233c-2.335-3.718-4.579-7.493-6.98-11.169c-0.805-1.231-2.114-2.124-3.688-1.707
				c-0.958,0.254-1.785,0.995-2.641,1.5c-0.288-0.459-0.644-1.025-0.998-1.591c0.063-0.05,0.127-0.101,0.191-0.149
				c0.396,0.361,0.792,0.724,1.188,1.084c0.064-0.048,0.128-0.097,0.191-0.146c-0.226-0.503-0.452-1.008-0.678-1.512
				c0.107-0.054,0.213-0.108,0.32-0.163c0.261,0.35,0.521,0.697,0.624,0.835c1.167-0.349,2.222-0.665,3.437-1.028
				c-0.198-1.591-2.18-0.853-3.21-2.006c0.954,0.116,1.665,0.203,2.127,0.26c0-2.233,0-4.578,0-7.429
				c-1.092,0.918-1.932,1.472-2.583,2.196c-5.421,6.026-8.34,13.441-11.35,20.785c-0.445,1.084-0.856,2.436,0.234,3.547
				c1.104,4.651,4.861,10.283,7.598,11.59c-1.073-1.287-2.353-2.642-3.416-4.15c-0.909-1.289-1.604-2.736-2.297-4.16
				c-0.1-0.205,0.355-0.674,0.543-1.026c0.032-0.06,0.016-0.146,0.031-0.334c-0.407,0.144-0.754,0.265-1.202,0.423
				c-0.242-0.777-0.461-1.48-0.681-2.184c0.198-0.563,0.396-1.124,0.588-1.669c0.339,0.23,0.817,0.554,1.327,0.9
				c-0.395-0.83-0.775-1.632-1.151-2.424c0.789-0.215,1.306-0.356,1.788-0.488c-0.028-0.481-0.059-1.006-0.1-1.696
				C408.815,568.702,409.212,569.056,409.611,569.408z M414.532,637.297c3.86,0,7.721,0,11.581,0c0-0.134,0-0.267-0.001-0.399
				C422.254,635.999,418.4,637.131,414.532,637.297z M442.458,626.803c0.594,3.034,1.82,5.214,3.073,5.95
				C444.568,630.89,443.513,628.846,442.458,626.803z M403.834,640.568c-0.073-0.029-0.145-0.059-0.216-0.089
				c-0.82,0.701-1.64,1.399-2.739,2.337c1.917-0.021,3.24-0.303,4.162-2.006c-0.973,0.657-1.721,1.162-2.469,1.668
				c-0.06-0.088-0.12-0.176-0.181-0.263C402.873,641.667,403.354,641.117,403.834,640.568z M411.787,595.838
				c-0.453,3.053-0.453,3.053,0.294,3.237c0-0.693,0-1.396,0-2.136c0.417,0.134,0.679,0.219,1.389,0.447
				C412.74,596.715,412.34,596.347,411.787,595.838z"/>
			<path fill-rule="evenodd" clip-rule="evenodd" d="M380.403,640.003c2.144-0.229,4.288-0.456,6.432-0.683
				c0.001-0.15,0.001-0.299,0.002-0.45c-2.758,0-5.517,0-8.275,0c0.001-0.124,0.002-0.247,0.003-0.372
				c2.211-0.271,4.423-0.542,6.635-0.813c-0.005-0.171-0.012-0.341-0.018-0.51c-2.775,0-5.55,0-8.326,0
				c-0.002-0.105-0.004-0.212-0.007-0.317c1.131-0.07,2.267-0.102,3.393-0.222c1.346-0.142,2.68-0.456,4.027-0.503
				c0.634-0.021,1.285,0.41,2.107,0.371c-0.563-0.469-1.126-0.937-1.69-1.407c0.049-0.092,0.1-0.185,0.148-0.278
				c0.329,0.128,0.656,0.257,1.144,0.447c-0.131-0.341-0.211-0.551-0.292-0.76c0.602-0.094,1.206-0.189,1.677-0.262
				c0.039-0.77,0.037-1.448,0.159-2.104c0.013-0.072,0.744-0.011,1.265-0.011c-0.149-0.313-0.32-0.672-0.626-1.316
				c0.818,0.365,1.426,0.638,2.407,1.075c-0.632-0.746-1.005-1.186-1.171-1.383c0.769-1.521,1.479-2.926,2.243-4.436
				c0.327,0.243,0.633,0.472,0.941,0.701c0.075-0.081,0.149-0.16,0.224-0.24c-0.305-0.339-0.61-0.677-1.123-1.246
				c0.699-0.342,1.314-0.643,1.927-0.943c0.092,0.129,0.186,0.257,0.277,0.387c0-0.332,0-0.662,0-0.838
				c-0.52-0.029-1.051-0.059-1.74-0.098c0.687-1.076,1.934-1.7,1.129-2.575c0.741-1.597,1.428-3.075,2.18-4.696
				c0.279,0.042,0.697,0.105,1.313,0.199c-0.668-0.741-1.221-1.353-1.915-2.12c0.596,0.115,1.052,0.202,1.507,0.288
				c0.036-0.079,0.071-0.157,0.107-0.236c-0.555-0.325-1.108-0.65-1.33-0.779c0.378-0.673,0.726-1.289,1.088-1.935
				c0.224,0.293,0.561,0.734,0.899,1.178c0.114-0.095,0.229-0.188,0.343-0.282c-0.62-0.692-1.24-1.385-2.147-2.4
				c1.015,0.539,1.696,0.902,2.379,1.265c0.044-0.022,0.089-0.045,0.133-0.069c-0.503-0.457-1.006-0.915-1.41-1.284
				c0.033-0.443,0.063-0.852,0.107-1.448c-0.033,0.002,0.223-0.013,0.592-0.035c-0.111-0.498-0.225-1.011-0.355-1.594
				c0.706-0.135,1.402-0.27,2.099-0.403c-0.01-0.092-0.02-0.187-0.03-0.279c-0.68-0.104-1.36-0.208-2.041-0.313
				c0.008-0.097,0.016-0.193,0.023-0.289c0.428-0.051,0.855-0.1,1.371-0.16c-0.351-0.462-0.618-0.813-0.995-1.309
				c0.869,0.228,1.45,0.38,1.847,0.484c-0.044-0.637-0.086-1.228-0.147-2.096c0.517,0.412,0.829,0.661,1.251,0.997
				c0.039-0.455,0.065-0.76,0.092-1.063c0.066-0.005,0.132-0.011,0.199-0.017c0.103,0.733,0.205,1.463,0.307,2.193
				c0.157-0.039,0.314-0.079,0.472-0.119c-0.125-0.257-0.25-0.514-0.436-0.895c0.357,0.019,0.641,0.032,1.234,0.063
				c-1.072-1.229-1.958-2.243-2.844-3.262c0.017-0.059,0.034-0.117,0.052-0.177c0.592,0.355,1.185,0.714,1.739,1.045
				c-0.29-1.278,0.67-0.598,1.129-0.46c-0.282-0.938-0.558-1.851-0.833-2.764c0.139-0.07,0.279-0.141,0.418-0.211
				c0.239,0.189,0.479,0.378,0.856,0.677c0.304-1.419,0.595-2.771,0.886-4.122c0.131,0.018,0.263,0.034,0.394,0.05
				c-0.06,0.59-0.147,1.177-0.174,1.767c-0.439,9.862-2.398,19.472-4.98,28.957c-1.471,5.404-4.094,10.18-8.938,13.352
				c-0.922,0.604-2.119,0.869-3.229,1.09c-1.506,0.298-3.049,0.414-4.58,0.579c-0.488,0.053-0.987,0.008-1.481,0.008
				C380.42,640.395,380.412,640.199,380.403,640.003z"/>
			<path fill-rule="evenodd" clip-rule="evenodd" d="M410.078,643.61c-1.226,0.258-2.451,0.515-3.677,0.772
				c-0.048-0.188-0.095-0.377-0.143-0.565c1.212-0.313,2.425-0.622,3.637-0.933C409.957,643.127,410.018,643.368,410.078,643.61z"/>
			<path fill-rule="evenodd" clip-rule="evenodd" d="M420.861,641.512c1.756-0.383,3.514-0.766,5.271-1.15
				c0.029,0.156,0.058,0.311,0.086,0.465c-1.813,0.334-3.627,0.668-5.44,1.002C420.806,641.722,420.833,641.617,420.861,641.512z"/>
			<path fill-rule="evenodd" clip-rule="evenodd" fill="none" d="M405.214,573.414c-1.091-1.111-0.679-2.463-0.234-3.547
				c3.01-7.344,5.929-14.759,11.35-20.785c0.651-0.725,1.491-1.278,2.583-2.196c0,2.851,0,5.195,0,7.429
				c-0.462-0.057-1.173-0.144-2.127-0.26c1.03,1.153,3.012,0.415,3.21,2.006c-1.215,0.363-2.271,0.68-3.437,1.028
				c-0.103-0.138-0.363-0.485-0.624-0.835c-0.107,0.055-0.213,0.109-0.32,0.163c0.226,0.504,0.452,1.009,0.678,1.512
				c-0.063,0.05-0.127,0.099-0.191,0.146c-0.396-0.36-0.791-0.723-1.188-1.084c-0.063,0.049-0.127,0.1-0.191,0.149
				c0.354,0.565,0.71,1.132,0.998,1.591c0.855-0.505,1.683-1.246,2.641-1.5c1.574-0.417,2.884,0.476,3.688,1.707
				c2.401,3.676,4.645,7.451,6.98,11.169c1.25,1.991,0.411,4.157,0.532,6.233c0.033,0.577-0.684,1.241-1.141,1.796
				c-2.618,3.176-5.262,6.33-8.089,9.504c0.386-0.934,0.607-1.988,1.187-2.779c1.728-2.359,3.564-4.642,5.415-6.906
				c2.266-2.773,2.356-5.779,0.695-8.742c-1.724-3.074-3.734-5.99-5.69-8.929c-0.41-0.616-1.078-1.103-1.711-1.52
				c-0.914-0.601-1.881-0.575-2.652,0.276c-3.271,3.609-5.957,7.608-7.436,12.277c-1.045,3.301,0.483,6.008,2.597,8.399
				c1.835,2.076,3.836,4.01,5.64,6.11c0.593,0.689,0.796,1.716,1.214,2.671c-2.907-3.146-5.606-6.188-8.446-9.088
				c-1.468-1.499-2.133-3.423-2.505-5.245c-0.3-1.473,0.585-3.186,0.939-4.798c0.443-1.267-0.34-2.9-1.977-3.955
				c0.237,0.461,0.426,0.826,0.677,1.315c-0.486-0.073-0.811-0.123-0.717-0.108c0.602,0.816,1.325,1.803,2.051,2.788
				c-0.398-0.353-0.796-0.706-1.368-1.213c0.041,0.69,0.072,1.215,0.1,1.696c-0.482,0.132-1,0.273-1.788,0.488
				c0.376,0.792,0.757,1.594,1.151,2.424c-0.51-0.347-0.988-0.67-1.327-0.9c-0.192,0.545-0.39,1.106-0.588,1.669
				C405.599,573.52,405.407,573.466,405.214,573.414z M411.799,563.877c-0.053,0.076-0.105,0.151-0.158,0.225
				c-0.262-0.205-0.524-0.411-1.004-0.788c0.107,0.837,0.178,1.39,0.249,1.941c-0.069,0.022-0.136,0.046-0.205,0.068
				c-0.398-0.66-0.798-1.319-1.195-1.978c-0.182,0.098-0.364,0.196-0.546,0.294c0.265,1.074,1.348,1.731,1.879,2.796
				c0.63-1.139,1.195-2.16,1.761-3.182c-0.438-0.399-0.808-0.737-1.179-1.074c-0.083,0.058-0.166,0.114-0.248,0.171
				C411.368,562.859,411.584,563.369,411.799,563.877z M415.376,559.346c-0.465-0.551-0.946-1.121-1.427-1.69
				c-0.077,0.062-0.153,0.121-0.23,0.182c0.325,0.56,0.649,1.121,0.973,1.681c-0.125,0.1-0.252,0.199-0.379,0.299
				c-0.264-0.496-0.529-0.991-0.794-1.486c-0.149,0.122-0.298,0.245-0.447,0.369c0.318,0.516,0.635,1.031,0.999,1.621
				c-0.464,0.438-0.941,0.887-1.415,1.332C413.424,562.212,413.424,562.212,415.376,559.346z"/>
			<path fill-rule="evenodd" clip-rule="evenodd" fill="none" d="M422.853,639.336c-0.521-0.145-1.043-0.404-1.566-0.412
				c-2.138-0.023-4.277,0.036-6.415,0.043c-0.371,0.002-0.742-0.104-1.101-0.302c4.437-0.696,8.861-0.669,13.284-0.342
				c0.004,0.164,0.009,0.329,0.014,0.495c-1.422,0.162-2.845,0.324-4.264,0.489C422.808,639.309,422.853,639.336,422.853,639.336z"
				/>
			<path fill-rule="evenodd" clip-rule="evenodd" fill="none" d="M405.214,573.414c0.192,0.052,0.385,0.105,0.577,0.158
				c0.219,0.703,0.438,1.406,0.681,2.184c0.448-0.158,0.795-0.279,1.202-0.423c-0.015,0.188,0.001,0.274-0.031,0.334
				c-0.188,0.353-0.643,0.821-0.543,1.026c0.693,1.424,1.388,2.871,2.297,4.16c1.063,1.509,2.343,2.863,3.416,4.15
				C410.076,583.697,406.318,578.065,405.214,573.414z"/>
			<path fill-rule="evenodd" clip-rule="evenodd" fill="none" d="M414.532,637.297c3.868-0.166,7.722-1.298,11.58-0.399
				c0,0.133,0,0.266,0.001,0.399C422.253,637.297,418.393,637.297,414.532,637.297z"/>
			<path fill-rule="evenodd" clip-rule="evenodd" fill="none" d="M442.458,626.803c1.056,2.043,2.111,4.087,3.073,5.95
				C444.277,632.017,443.052,629.837,442.458,626.803z"/>
			<path fill-rule="evenodd" clip-rule="evenodd" fill="none" d="M403.834,640.568c-0.481,0.549-0.961,1.099-1.443,1.647
				c0.061,0.087,0.121,0.175,0.181,0.263c0.748-0.506,1.496-1.011,2.469-1.668c-0.921,1.703-2.245,1.985-4.162,2.006
				c1.099-0.938,1.918-1.636,2.739-2.337C403.69,640.51,403.762,640.539,403.834,640.568z"/>
			<path fill-rule="evenodd" clip-rule="evenodd" fill="none" d="M411.787,595.838c0.554,0.509,0.954,0.877,1.683,1.549
				c-0.71-0.229-0.973-0.313-1.389-0.447c0,0.74,0,1.442,0,2.136C411.334,598.891,411.334,598.891,411.787,595.838z"/>
			<path fill-rule="evenodd" clip-rule="evenodd" d="M411.799,563.877c-0.215-0.508-0.431-1.018-0.646-1.526
				c0.082-0.057,0.165-0.113,0.248-0.171c0.371,0.337,0.741,0.675,1.179,1.074c-0.566,1.021-1.131,2.043-1.761,3.182
				c-0.532-1.064-1.614-1.722-1.879-2.796c0.182-0.098,0.364-0.196,0.546-0.294c0.397,0.658,0.797,1.317,1.195,1.978
				c0.069-0.022,0.136-0.046,0.205-0.068c-0.07-0.552-0.141-1.104-0.249-1.941c0.48,0.377,0.742,0.583,1.004,0.788
				C411.694,564.028,411.746,563.953,411.799,563.877z"/>
			<path fill-rule="evenodd" clip-rule="evenodd" d="M415.376,559.346c-1.952,2.866-1.952,2.866-2.719,2.307
				c0.474-0.445,0.951-0.895,1.415-1.332c-0.364-0.59-0.681-1.105-0.999-1.621c0.149-0.124,0.298-0.247,0.447-0.369
				c0.265,0.495,0.53,0.99,0.794,1.486c0.127-0.1,0.254-0.199,0.379-0.299c-0.324-0.56-0.648-1.121-0.973-1.681
				c0.077-0.061,0.153-0.12,0.23-0.182C414.43,558.225,414.911,558.795,415.376,559.346z"/>
			<path fill-rule="evenodd" clip-rule="evenodd" d="M409.611,569.408c-0.726-0.985-1.449-1.972-2.051-2.788
				c-0.094-0.015,0.231,0.035,0.717,0.108c-0.251-0.489-0.44-0.854-0.677-1.315c1.637,1.055,2.419,2.688,1.977,3.955
				C409.583,569.375,409.611,569.408,409.611,569.408z"/>
		</g>
	</g>
</g>
</svg>
