<?xml version="1.0" encoding="utf-8"?>
<!-- Generator: Adobe Illustrator 16.0.0, SVG Export Plug-In . SVG Version: 6.00 Build 0)  -->
<!DOCTYPE svg PUBLIC "-//W3C//DTD SVG 1.1//EN" "http://www.w3.org/Graphics/SVG/1.1/DTD/svg11.dtd">
<svg version="1.1" id="Layer_1" xmlns="http://www.w3.org/2000/svg" xmlns:xlink="http://www.w3.org/1999/xlink" x="0px" y="0px"
	 width="551.462px" height="710.73px" viewBox="0 0 551.462 710.73" enable-background="new 0 0 551.462 710.73"
	 xml:space="preserve">
<g>
	<g>
		<g>
			<path fill-rule="evenodd" clip-rule="evenodd" fill="#D7D1B8" d="M298.588,698.242c-89.08,0-178.16,0-267.24,0
				c-11.555-6.265-15.111-16.221-14.92-28.947c0.458-30.604,0.357-61.221,0.033-91.828c-0.11-10.412,2.523-18.72,10.325-26.25
				c5.107-4.93,12.104-9.613,13.529-16.992c2.69-13.918,3.936-28.11,5.967-42.162c0.366-2.533-0.071-4.145-2.166-5.688
				c-5.898-4.353-11.48-9.151-17.505-13.313c-7.641-5.275-14.133-11.295-16.749-20.573c0-52.821,0-105.642,0-158.463
				c1.299-3.016,2.173-6.315,3.969-8.998c8.399-12.544,16.652-25.235,26.455-36.737c9.613-11.28,9.672-10.8-3.047-18.629
				c-10.784-6.639-23.27-11.729-27.377-25.611c0-58.193,0-116.386,0-174.579c2.462-8.201,6.963-14.801,14.772-18.801
				c168.312,0,336.624,0,504.935,0c7.811,4,12.311,10.6,14.773,18.801c0,16.115,0,32.23,0,48.345
				c-1.696,3.808-3.094,7.784-5.143,11.39c-6.031,10.612-11.977,21.304-18.662,31.499c-3.211,4.896-2.64,7.542,1.08,11.95
				c8.268,9.803,19.895,17.311,22.725,31.107c0,51.926,0,103.853,0,155.778c-2.242,12.171-4.318,24.374-6.773,36.501
				c-2.2,10.869-2.131,22.26-6.477,32.61c-4.146,9.871-8.764,19.579-13.806,29.021c-2.77,5.186-3.425,8.716,1.554,13.173
				c3.201,2.868,5.84,6.684,9.005,9.819c5.651,5.601,8.546,12.063,8.528,20.276c-0.154,70.72-0.278,141.439,0.093,212.157
				c0.063,12.073-4.81,19.831-14.954,25.144c-51.479,0-102.957,0-154.436,0c-15.451-5.5-30.931-10.926-46.332-16.565
				c-2.854-1.045-4.126,0.601-5.69,2.128C309.821,688.908,305.047,694.536,298.588,698.242z"/>
			<path fill-rule="evenodd" clip-rule="evenodd" fill="none" d="M521.512,698.242c10.145-5.313,15.018-13.07,14.954-25.144
				c-0.371-70.718-0.247-141.438-0.093-212.157c0.018-8.214-2.877-14.676-8.528-20.276c-3.165-3.136-5.804-6.951-9.005-9.819
				c-4.979-4.457-4.323-7.987-1.554-13.173c5.042-9.442,9.66-19.15,13.806-29.021c4.346-10.351,4.276-21.741,6.477-32.61
				c2.455-12.127,4.531-24.33,6.773-36.501c0,124.443-0.033,248.887,0.128,373.33c0.007,4.598-0.86,5.905-5.511,5.494
				C533.185,697.854,527.331,698.242,521.512,698.242z"/>
			<path fill-rule="evenodd" clip-rule="evenodd" fill="none" d="M9.862,452.488c2.616,9.278,9.107,15.298,16.749,20.573
				c6.025,4.161,11.607,8.96,17.505,13.313c2.095,1.544,2.532,3.155,2.166,5.688c-2.031,14.052-3.276,28.244-5.967,42.162
				c-1.426,7.379-8.422,12.063-13.529,16.992c-7.802,7.53-10.435,15.838-10.325,26.25c0.324,30.607,0.426,61.224-0.033,91.828
				c-0.191,12.727,3.365,22.683,14.92,28.947c-6.042,0-12.096-0.201-18.125,0.086c-2.905,0.14-3.515-0.551-3.45-3.446
				c0.229-10.066,0.088-20.141,0.088-30.213C9.862,593.941,9.862,523.215,9.862,452.488z"/>
			<path fill-rule="evenodd" clip-rule="evenodd" fill="none" d="M9.862,204.05c4.107,13.883,16.593,18.973,27.377,25.611
				c12.719,7.829,12.66,7.349,3.047,18.629c-9.803,11.502-18.056,24.193-26.455,36.737c-1.796,2.683-2.67,5.982-3.969,8.998
				C9.862,264.033,9.862,234.042,9.862,204.05z"/>
			<path fill-rule="evenodd" clip-rule="evenodd" fill="none" d="M544.342,163.762c-2.83-13.797-14.457-21.305-22.725-31.107
				c-3.72-4.408-4.291-7.055-1.08-11.95c6.686-10.195,12.631-20.887,18.662-31.499c2.049-3.605,3.446-7.582,5.143-11.39
				C544.342,106.465,544.342,135.113,544.342,163.762z"/>
			<path fill-rule="evenodd" clip-rule="evenodd" fill="none" d="M298.588,698.242c6.459-3.706,11.232-9.334,16.466-14.438
				c1.564-1.527,2.837-3.173,5.69-2.128c15.401,5.64,30.881,11.065,46.332,16.565C344.248,698.242,321.418,698.242,298.588,698.242z
				"/>
			<path fill-rule="evenodd" clip-rule="evenodd" fill="none" d="M24.634,10.67c-7.809,4-12.31,10.6-14.772,18.801
				c0-6.267,0-12.534,0-18.801C14.786,10.67,19.71,10.67,24.634,10.67z"/>
			<path fill-rule="evenodd" clip-rule="evenodd" fill="none" d="M544.342,29.471c-2.463-8.201-6.963-14.801-14.773-18.801
				c4.926,0,11.771-1.921,14.232,0.54c2.461,2.463,0.541,9.309,0.541,14.232C544.342,26.785,544.342,28.128,544.342,29.471z"/>
		</g>
	</g>
	<path fill-rule="evenodd" clip-rule="evenodd" d="M119.38,0c4.348,3.806,7.88,8.275,5.45,14.277
		c-2.555,6.313-8.365,6.963-14.503,6.936c-28.899-0.129-57.8-0.057-87.518-0.057c-0.152,2.734-0.405,5.169-0.406,7.604
		c-0.022,53.899,0.035,107.797-0.108,161.693c-0.013,4.693,1.287,7.57,5.506,9.967c8.216,4.668,16.156,9.846,24.023,15.092
		c12.137,8.088,14.08,22.805,5.072,34.277c-10.54,13.424-20.951,26.959-31.051,40.715c-2.005,2.732-3.3,6.682-3.315,10.074
		c-0.208,49.271-0.092,98.545-0.235,147.814c-0.012,4.123,1.166,6.77,4.507,9.215c7.819,5.73,15.337,11.873,22.969,17.861
		c8.396,6.586,11.472,14.891,9.534,25.602c-2.498,13.795-4.434,27.709-6.104,41.633c-0.918,7.637-2.896,14.625-9.033,19.477
		c-12.447,9.836-16.336,22.129-15.537,38.043c1.342,26.764,0.355,53.646,0.387,80.479c0.002,2.709,0.264,5.416,0.443,8.873
		c3.26,0,5.965,0,8.672,0c79.575,0,159.15-0.152,238.723,0.205c9.639,0.043,17.076-1.729,23.586-9.328
		c8.031-9.379,18.41-11.395,30.07-6.533c4.859,2.029,10.051,3.238,15.055,4.932c7.184,2.43,14.219,5.377,21.527,7.326
		c6.355,1.695,12.996,3.225,19.52,3.25c42.555,0.178,85.117-0.195,127.674-0.063c6.627,0.02,8.742-1.891,8.645-8.67
		c-0.379-25.902-0.158-51.813-0.15-77.723c0.004-8.023,3.936-13.262,9.926-13.299c6.279-0.037,11.217,5.586,11.242,13.346
		c0.084,27.758,0.035,55.518,0.029,83.277c0,12.494-6.877,19.975-17.869,24.436c-51.363,0-102.725,0-154.086,0
		c-16.844-5.951-33.637-12.053-50.602-17.631c-1.846-0.607-4.996,1.402-7.018,2.902c-6.377,4.729-12.504,9.795-18.729,14.729
		c-90.23,0-180.459,0-270.69,0c-13.282-5.588-17.472-15.74-17.102-29.797c0.727-27.5,0.122-55.033,0.238-82.553
		c0.138-32.676-2.826-24.941,19.571-49.238c2.164-2.35,3.899-5.697,4.449-8.824c2.438-13.857,4.604-27.771,6.276-41.736
		c0.301-2.506-1.484-6.146-3.497-7.887c-7.507-6.492-15.394-12.566-23.362-18.498c-7.044-5.244-10.321-11.938-10.301-20.744
		c0.113-51.107-0.125-102.217,0.301-153.322c0.049-5.799,2.298-12.396,5.601-17.2c9.671-14.055,20.393-27.39,30.698-41.01
		c1.34-1.773,2.654-3.566,4.323-5.81c-8.976-5.643-17.179-11.221-25.778-16.104C5.7,211.93,1.022,203.479,1.125,190.869
		c0.437-53.648,0.53-107.307-0.048-160.952C0.925,15.857,4.861,5.717,18.045,0C51.825,0,85.604,0,119.38,0z"/>
	<path fill-rule="evenodd" clip-rule="evenodd" d="M534.438,0c13.195,5.721,17.885,15.879,16.898,29.949
		c-0.797,11.281,0.275,22.684-0.359,33.985c-0.297,5.315-1.76,10.993-4.258,15.673c-6.625,12.416-13.969,24.455-21.316,36.465
		c-2.051,3.352-2.012,5.481,0.809,8.338c6.014,6.084,11.602,12.582,17.428,18.851c5.096,5.488,7.633,11.735,7.609,19.407
		c-0.15,50.664,0.539,101.338-0.426,151.982c-0.318,16.678-5.496,33.207-7.068,49.936c-2.014,21.387-12.279,39.428-21.332,58.02
		c-2.133,4.379-1.9,7.139,1.498,10.912c21.426,23.809,20.166,16.158,20.072,52.033c-0.055,20.588-0.006,41.176-0.018,61.768
		c0,2.078,0.131,4.199-0.217,6.23c-1.084,6.277-6.162,10.031-12.555,9.178c-6.129-0.816-8.434-4.889-8.43-10.691
		c0.008-27.297,0.189-54.598-0.205-81.891c-0.055-3.859-2.254-8.191-4.662-11.402c-4.277-5.705-9.74-10.506-14.229-16.07
		c-5.711-7.076-6.115-15.328-2.967-23.486c2.734-7.084,5.801-14.16,9.717-20.637c8.842-14.619,10.32-31.127,13.879-47.258
		c8.115-36.8,4.623-74.006,5.246-111.064c0.408-24.514-0.061-49.043,0.184-73.563c0.053-5.312-1.564-9.117-5.34-12.785
		c-5.791-5.629-11.16-11.712-16.447-17.829c-7.336-8.487-8.168-17.822-2.328-28.21c6.898-12.264,14.199-24.303,21.205-36.508
		c1.229-2.139,2.604-4.603,2.65-6.941c0.264-12.718,0.318-25.449-0.094-38.161c-0.053-1.627-3.104-4.31-4.982-4.516
		c-6.18-0.68-12.463-0.542-18.703-0.542c-111.045-0.021-222.086-0.016-333.129-0.016c-1.852,0-3.702-0.024-5.553,0.004
		c-5.865,0.091-11.07-0.885-13.432-7.334c-2.422-6.619,1.659-10.26,6.053-13.826C284.571,0,409.504,0,534.438,0z"/>
	<path fill-rule="evenodd" clip-rule="evenodd" fill="none" d="M18.045,0C4.861,5.717,0.925,15.857,1.077,29.917
		c0.578,53.646,0.484,107.304,0.048,160.952c-0.102,12.61,4.575,21.061,15.279,27.139c8.599,4.883,16.802,10.461,25.778,16.104
		c-1.669,2.243-2.983,4.036-4.323,5.81c-10.305,13.62-21.026,26.955-30.698,41.01c-3.303,4.804-5.552,11.401-5.601,17.2
		c-0.426,51.105-0.188,102.215-0.301,153.322c-0.02,8.807,3.257,15.5,10.301,20.744c7.968,5.932,15.854,12.006,23.362,18.498
		c2.013,1.74,3.798,5.381,3.497,7.887c-1.673,13.965-3.838,27.879-6.276,41.736c-0.55,3.127-2.285,6.475-4.449,8.824
		C5.296,573.439,8.26,565.705,8.122,598.381c-0.116,27.52,0.489,55.053-0.238,82.553c-0.37,14.057,3.82,24.209,17.102,29.797
		c-8.328,0-16.657,0-24.986,0C0,473.82,0,236.911,0,0C6.015,0,12.03,0,18.045,0z"/>
	<path fill-rule="evenodd" clip-rule="evenodd" fill="none" d="M295.676,710.73c6.225-4.934,12.352-10,18.729-14.729
		c2.021-1.5,5.172-3.51,7.018-2.902c16.965,5.578,33.758,11.68,50.602,17.631C346.577,710.73,321.127,710.73,295.676,710.73z"/>
	<path fill-rule="evenodd" clip-rule="evenodd" fill="#00AEEF" d="M300.815,424.082c-14.785,0.042-25.021-3.477-34.938-8.145
		c-4.893-2.304-11.269-3.72-17.314-4.57c-6.515-0.918-10.436-2.923-10.02-6.861c0.387-3.691,5.184-5.896,11.867-5.624
		c10.893,0.446,20.143,3.197,28.586,7.476c14.467,7.327,23.709,7.299,38.631,0.22c22.33-10.59,41.053-10.501,63.104,0.301
		c13.313,6.521,23.338,6.678,36.625,0.21c8.631-4.201,17.572-7.622,28.838-8.12c7.34-0.322,12.734,1.639,13.557,5.499
		c0.787,3.702-4.08,5.87-11.504,6.937c-6.217,0.894-12.57,2.723-17.684,5.134c-21.033,9.919-40.363,10.214-61.107,0.381
		c-16.596-7.864-24.836-7.878-41.232,0.28C319.483,421.548,309.737,423.912,300.815,424.082z"/>
	<path fill-rule="evenodd" clip-rule="evenodd" d="M398.036,149.325c4.52,0.929,9.076,1.702,13.547,2.829
		c6.211,1.568,9.52,6.486,8.502,12.183c-1.043,5.83-5.762,9.729-12.023,8.723c-9.555-1.538-19.082-3.471-28.439-5.938
		c-6.563-1.73-9.316-7.398-7.609-13.369c1.535-5.363,6.734-8.217,13.141-7.059C389.465,147.473,393.741,148.443,398.036,149.325z"/>
	<path fill-rule="evenodd" clip-rule="evenodd" d="M84.75,478.56c-3.623-2.852-7.24-5.71-10.866-8.557
		c-4.879-3.83-6.082-8.63-2.923-13.932c3.202-5.372,8.51-7.197,13.584-3.679c8.847,6.135,17.352,12.871,25.367,20.059
		c4.649,4.172,3.867,9.774-0.535,14.063c-4.159,4.051-9.056,4.081-13.744,0.583C91.939,484.343,88.375,481.412,84.75,478.56z"/>
	<path fill-rule="evenodd" clip-rule="evenodd" d="M468.079,207.865c0.293,8.261-3.371,12.314-8.277,12.404
		c-3.766,0.072-8.814-2.756-11.158-5.892c-5.297-7.085-9.234-15.179-13.803-22.819c-2.889-4.83-2.402-9.355,1.49-13.199
		c3.703-3.658,8.705-4.447,12.629-1.332C459.612,185.479,465.461,197.021,468.079,207.865z"/>
	<path fill-rule="evenodd" clip-rule="evenodd" d="M273.309,170.693c-2.949,0.395-5.921,1.23-8.848,1.094
		c-6.109-0.289-9.791-3.654-10.262-9.915c-0.427-5.663,2.634-9.125,7.773-10.682c4.178-1.266,8.479-2.181,12.775-3.01
		c5.875-1.134,10.52,0.589,12.648,6.589c2.057,5.793-0.258,10.984-6.141,13.488c-2.5,1.063-5.344,1.326-8.033,1.954
		C273.253,170.371,273.282,170.532,273.309,170.693z"/>
	<circle fill-rule="evenodd" clip-rule="evenodd" fill="#BE1E2D" cx="88.804" cy="348.494" r="24.216"/>
	<g>
		<path fill-rule="evenodd" clip-rule="evenodd" fill="none" d="M130.934,32.775c32.51,0,65.018,0.008,97.527-0.035
			c1.24-0.002,1.484,0.244,1.484,1.484c-0.041,48.099-0.035,96.197-0.035,144.295c-0.098-0.051-0.27-0.087-0.285-0.156
			c-1.242-6.002-2.465-12.008-3.709-18.01c-3.646-17.597-7.293-35.193-10.961-52.785c-0.662-3.176-2.402-5.576-5.299-7.149
			c-2.43-1.319-4.695-2.981-7.211-4.091c-4.961-2.187-8.576-5.541-10.512-10.656c-0.699-1.846-2.066-2.589-4.029-2.084
			c-1.252-1.371-2.189-2.914-2.588-4.751c1.48-1.188,1.521-2.61,0.674-4.173c-2.291-4.217-4.611-8.418-6.863-12.656
			c-1.592-2.997-3.992-4.826-7.277-5.693c-5.676-1.498-11.313-3.138-16.973-4.693c-0.834-0.229-1.523-0.608-2.152-1.213
			c-3.83-3.671-7.705-7.295-11.529-10.97C138.198,36.557,135.422,33.353,130.934,32.775z"/>
		<path fill-rule="evenodd" clip-rule="evenodd" fill="none" d="M44.286,177.795c0-47.797,0.007-95.592-0.034-143.389
			c-0.001-1.359,0.306-1.668,1.665-1.666c27.856,0.047,55.713,0.035,83.568,0.035c-4.836,1.68-9.662,3.395-14.518,5.019
			c-1.281,0.429-2.172,1.143-2.863,2.288c-2.424,4.018-4.846,8.037-7.377,11.986c-5.092,7.945-10.523,15.568-19.764,19.273
			c-0.221,0.088-0.41,0.254-0.629,0.35c-1.5,0.647-2.246,1.824-2.713,3.369c-2.963,9.821-6.002,19.619-8.969,29.438
			c-0.262,0.864-0.675,1.462-1.373,2.013c-4.64,3.66-9.234,7.377-13.873,11.039c-2.023,1.599-3.361,3.584-3.805,6.135
			c-0.373,2.134-0.715,4.271-1.069,6.408c-2.274,13.711-4.516,27.428-6.858,41.127C45.298,173.42,45.353,175.734,44.286,177.795z"/>
		<path fill-rule="evenodd" clip-rule="evenodd" fill="#060708" d="M187.905,83.588c1.963-0.505,3.33,0.238,4.029,2.084
			c1.936,5.115,5.551,8.47,10.512,10.656c2.516,1.109,4.781,2.771,7.211,4.091c2.896,1.573,4.637,3.974,5.299,7.149
			c3.668,17.592,7.314,35.188,10.961,52.785c1.244,6.002,2.467,12.008,3.709,18.01c0.016,0.069,0.188,0.105,0.285,0.156
			c0,0.725,0,1.45,0,2.176c-0.621,0.912-1.223,1.85-2.504,1.886c-0.482-0.024-0.963-0.068-1.443-0.068
			c-47.463-0.003-94.926-0.003-142.389,0c-0.422,0-0.842,0.044-1.262,0.067c-1.486-0.242-2.221-1.203-2.489-2.608
			c0.688-2.317,1.401-2.856,3.876-2.858c8.961-0.007,17.926-0.003,26.889-0.003c4.002,0,4.002,0,4.152-3.976
			c0.064-0.293,0.17-0.58,0.189-0.875c0.643-9.697,1.262-19.396,1.924-29.094c0.148-2.197,0.174-4.37,1.908-6.209
			c4.383-4.651,7.711-9.974,9.621-16.135c0.516-1.662,1.301-3.238,1.889-4.88c0.512-1.425,1.443-2.229,2.9-2.687
			c7.973-2.508,15.92-5.088,23.879-7.639c2.875-0.92,3.328-0.741,5.115,1.743c6.023,8.37,11.502,17.149,18.541,24.759
			c0.453,0.491,0.824,1.063,0.939,1.73c0.873,5.045,1.713,10.094,2.594,15.137c0.336,1.907-0.371,3.16-2.17,3.824
			c-1.834-0.025-2.939-0.919-3.25-2.743c-0.502-2.967-1.041-5.929-1.484-8.904c-0.496-3.357-1.107-6.549-3.811-9.071
			c-2.645-2.471-4.635-5.547-6.703-8.521c-2.654-3.814-5.34-7.604-8.039-11.385c-0.309-0.433-0.432-1.234-1.299-0.949
			c-2.529,0.829-5.061,1.656-7.682,2.516c4.273,6.348,8.541,12.41,13.57,17.891c0.811,0.883,1.318,1.857,1.516,3.013
			c1.25,7.298,2.48,14.597,3.746,21.892c0.957,5.514,1.953,11.021,2.932,16.53c0.105,0.771,0.301,1.542,0.301,2.312
			c0,1.46,0.73,1.808,2.063,1.737c1.863-0.099,3.738-0.024,5.607-0.024c4.063,0,4.063,0,3.195-4.027
			c-0.605-3.713-1.215-7.426-1.818-11.139c-0.369-2.28,0.098-3.086,2.277-3.945c2.336,0.449,2.799,1.005,3.213,3.43
			c0.666,3.903,1.402,7.796,2.107,11.692c0.027,0.421,0.027,0.845,0.082,1.261c0.373,2.738,0.375,2.738,3.109,2.738
			c9.215,0,18.43,0.012,27.645-0.014c1.432-0.004,3.449,0.638,4.127-0.285c0.58-0.789-0.348-2.684-0.613-4.089
			c-0.012-0.053-0.072-0.095-0.109-0.144c-0.055-0.479-0.074-0.966-0.172-1.436c-4.318-20.719-8.648-41.434-12.949-62.156
			c-0.355-1.714-1.178-2.963-2.715-3.814c-2.527-1.398-4.906-3.121-7.543-4.254c-5.969-2.568-10.051-6.797-12.326-12.836
			c-0.021-0.055-0.074-0.096-0.102-0.148C185.94,85.987,186.155,85.014,187.905,83.588z M120.454,173.074
			c-0.033,0.602-0.041,1.206-0.104,1.805c-0.232,2.207-0.238,2.207,1.949,2.207c13.514,0.001,27.027,0.001,40.541,0.001
			c4.023,0,4.023,0,2.898-4.005c0-0.242,0.031-0.488-0.008-0.723c-1.873-10.836-3.73-21.675-5.654-32.5
			c-0.309-1.738-0.049-3.667-1.352-5.142c-3.395-3.845-6.641-7.802-9.5-12.069c-1.34-2.004-2.785-3.938-4.139-5.933
			c-0.6-0.883-1.264-1.138-2.295-0.742c-1.459,0.559-2.938,1.187-4.463,1.431c-2.479,0.396-3.555,1.865-4.35,4.107
			c-2.09,5.896-4.17,11.869-8.863,16.342c-2.459,2.344-2.785,5.24-2.924,8.367c-0.205,4.629-0.664,9.246-0.971,13.872
			C120.934,164.418,120.708,168.746,120.454,173.074z"/>
		<path fill-rule="evenodd" clip-rule="evenodd" fill="#080908" d="M44.286,177.795c1.067-2.061,1.013-4.375,1.389-6.574
			c2.343-13.699,4.584-27.416,6.858-41.127c0.354-2.137,0.696-4.274,1.069-6.408c0.443-2.551,1.781-4.536,3.805-6.135
			c4.639-3.662,9.233-7.379,13.873-11.039c0.698-0.551,1.111-1.148,1.373-2.013c2.967-9.819,6.006-19.617,8.969-29.438
			c0.467-1.545,1.213-2.722,2.713-3.369c0.219-0.096,0.408-0.262,0.629-0.35c9.24-3.705,14.672-11.328,19.764-19.273
			c2.531-3.949,4.953-7.969,7.377-11.986c0.691-1.146,1.582-1.859,2.863-2.288c4.855-1.624,9.682-3.339,14.518-5.019
			c0.484,0,0.967,0,1.449,0c4.488,0.577,7.264,3.781,10.262,6.663c3.824,3.675,7.699,7.299,11.529,10.97
			c0.629,0.604,1.318,0.983,2.152,1.213c5.66,1.556,11.297,3.195,16.973,4.693c3.285,0.867,5.686,2.696,7.277,5.693
			c2.252,4.238,4.572,8.439,6.863,12.656c0.848,1.563,0.807,2.984-0.674,4.173c-2.133,0.728-3.084,0.397-4.156-1.552
			c-1.801-3.271-3.539-6.579-5.361-9.838c-0.695-1.24-1.205-2.607-2.197-3.715c-1.197,2.703-2.309,5.354-3.537,7.947
			c-1.162,2.455-2.494,4.828-4.316,6.872c-3.143,3.523-7.494,3.589-10.756,0.167c-1.256-1.316-2.197-2.867-3.111-4.434
			c-0.852-1.455-1.771-2.871-2.652-4.309c-0.635-1.037-1.564-1.38-2.754-1.371c-4.135,0.033-8.156,3.482-9.023,7.761
			c-0.756,3.718-1.506,7.445-3.461,10.774c-2.291,3.896-5.658,5.816-10.227,5.463c-4.078-0.316-6.307-2.908-7.789-6.385
			c-0.613-1.438-1.135-2.914-1.754-4.35c-0.223-0.515-0.314-1.286-1.102-1.254c-0.73,0.029-0.902,0.73-1.127,1.27
			c-0.369,0.885-0.734,1.781-0.988,2.704c-1.27,4.59-1.873,9.321-2.922,13.959c-0.957,4.229-1.863,8.483-4.592,12.042
			c-3.105,4.053-8.414,4.346-11.949,0.641c-1.479-1.548-2.504-3.391-3.355-5.334c-1.549-3.537-2.582-7.248-3.668-10.941
			c-0.473-1.602-0.986-3.192-1.613-5.207c-1.862,6.112-3.592,11.746-5.287,17.388c-0.361,1.198-0.969,2.138-1.972,2.925
			c-4.89,3.844-9.726,7.754-14.608,11.605c-1.202,0.947-1.967,2.104-2.213,3.601c-2.617,15.931-5.23,31.862-7.844,47.794
			c-0.117,0.647-0.168,1.316-0.363,1.939c-0.494,1.575-0.179,2.19,1.682,2.154c6.21-0.117,12.425-0.053,18.638-0.039
			c2.358,0.004,3.204,0.723,3.55,2.91c-0.168,1.363-0.83,2.289-2.253,2.541c-8.481,0.005-16.962,0.012-25.444,0.018
			c-1.277-0.041-1.883-0.977-2.504-1.889C44.286,179.729,44.286,178.762,44.286,177.795z M130.856,38.486
			c-1.049,0.01-1.805,0.154-2.557,0.421c-3.063,1.085-6.102,2.255-9.219,3.152c-1.785,0.514-2.824,1.556-3.762,3.062
			c-3.535,5.676-6.74,11.563-10.926,16.824c-3.549,4.46-6.584,9.418-12.297,11.582c-0.836,0.316-1.541,0.973-2.371,1.305
			c-2.203,0.882-3.373,2.435-3.801,4.783c-0.186,1.014-0.184,1.854,0.201,2.766c1.121,2.66,1.92,5.429,2.781,8.18
			c1.486,4.748,2.543,9.65,4.783,14.135c0.779,1.561,1.479,3.641,3.689,3.471c2.207-0.17,2.83-2.241,3.428-3.984
			c1.807-5.282,2.689-10.783,3.713-16.254c0.584-3.113,1.336-6.205,2.828-9.057c1.365-2.609,3.393-3.892,6.43-3.715
			c2.684,0.154,4.135,1.713,5.143,3.909c0.953,2.072,1.793,4.196,2.736,6.272c0.58,1.275,1.621,1.781,3.043,1.854
			c2.277,0.115,3.59-1.143,4.594-2.908c1.568-2.762,2.051-5.877,2.723-8.91c1.201-5.428,4.383-9.123,9.467-11.214
			c4.465-1.835,9.357-1.29,11.859,2.147c0.813,1.117,1.516,2.315,2.252,3.486c0.93,1.479,1.791,3.002,2.779,4.439
			c1.236,1.799,2.223,1.802,3.691,0.147c0.807-0.909,1.404-1.952,1.977-3.015c1.518-2.813,2.77-5.745,4.008-8.689
			c0.529-1.258,0.332-1.723-0.98-2.072c-4.703-1.252-9.377-2.623-14.076-3.898c-1.434-0.39-2.617-1.052-3.701-2.102
			c-5.074-4.912-10.215-9.754-15.33-14.623C133.016,39.078,131.981,38.392,130.856,38.486z"/>
		<path fill-rule="evenodd" clip-rule="evenodd" fill="none" d="M82.313,182.58c-0.012,0.1,0.001,0.197,0.04,0.291
			c-3.384,0-6.767,0-10.151,0c0.004-0.104,0.014-0.205,0.032-0.305c1.423-0.252,2.085-1.178,2.253-2.541
			c1.777-0.209,3.557-0.14,5.337-0.054C80.092,181.377,80.827,182.338,82.313,182.58z"/>
		<path fill-rule="evenodd" clip-rule="evenodd" fill="#9FACBA" d="M50.981,173.061c2.613-15.932,5.227-31.863,7.844-47.794
			c0.246-1.497,1.011-2.653,2.213-3.601c4.883-3.852,9.719-7.762,14.608-11.605c1.003-0.787,1.61-1.727,1.972-2.925
			c1.695-5.642,3.425-11.275,5.287-17.388c0.627,2.015,1.141,3.605,1.613,5.207c1.086,3.693,2.119,7.404,3.668,10.941
			c0.852,1.943,1.877,3.786,3.355,5.334c3.535,3.705,8.844,3.412,11.949-0.641c2.729-3.559,3.635-7.813,4.592-12.042
			c1.049-4.638,1.652-9.369,2.922-13.959c0.254-0.923,0.619-1.819,0.988-2.704c0.225-0.539,0.396-1.24,1.127-1.27
			c0.787-0.032,0.879,0.739,1.102,1.254c0.619,1.436,1.141,2.912,1.754,4.35c1.482,3.477,3.711,6.068,7.789,6.385
			c4.568,0.354,7.936-1.567,10.227-5.463c1.955-3.329,2.705-7.057,3.461-10.774c0.867-4.278,4.889-7.728,9.023-7.761
			c1.189-0.009,2.119,0.334,2.754,1.371c0.881,1.438,1.801,2.854,2.652,4.309c0.914,1.566,1.855,3.117,3.111,4.434
			c3.262,3.422,7.613,3.356,10.756-0.167c1.822-2.044,3.154-4.417,4.316-6.872c1.229-2.594,2.34-5.244,3.537-7.947
			c0.992,1.107,1.502,2.475,2.197,3.715c1.822,3.259,3.561,6.566,5.361,9.838c1.072,1.949,2.023,2.279,4.156,1.552
			c0.398,1.837,1.336,3.38,2.588,4.751c-1.75,1.426-1.965,2.399-0.959,4.348c0.027,0.053,0.08,0.094,0.102,0.148
			c2.275,6.039,6.357,10.268,12.326,12.836c2.637,1.133,5.016,2.855,7.543,4.254c1.537,0.852,2.359,2.101,2.715,3.814
			c4.301,20.723,8.631,41.438,12.949,62.156c0.098,0.47,0.117,0.957,0.172,1.436c-0.576,0.805-1.434,0.49-2.176,0.492
			c-10.688,0.029-21.377,0.031-32.064,0.04c-0.705-3.896-1.441-7.789-2.107-11.692c-0.414-2.425-0.877-2.98-3.213-3.43
			c-0.727-1.65-0.459-3.516-1.121-5.18c1.799-0.664,2.506-1.917,2.17-3.824c-0.881-5.043-1.721-10.092-2.594-15.137
			c-0.115-0.667-0.486-1.239-0.939-1.73c-7.039-7.609-12.518-16.389-18.541-24.759c-1.787-2.484-2.24-2.663-5.115-1.743
			c-7.959,2.551-15.906,5.131-23.879,7.639c-1.457,0.457-2.389,1.262-2.9,2.687c-0.588,1.642-1.373,3.218-1.889,4.88
			c-1.91,6.161-5.238,11.483-9.621,16.135c-1.734,1.839-1.76,4.012-1.908,6.209c-0.662,9.697-1.281,19.396-1.924,29.094
			c-0.02,0.295-0.125,0.582-0.189,0.875c-0.906-0.017-1.811-0.047-2.715-0.047C91.676,173.076,71.329,173.068,50.981,173.061z"/>
		<path fill-rule="evenodd" clip-rule="evenodd" fill="#5A6C76" d="M120.454,173.074c0.254-4.328,0.48-8.656,0.768-12.981
			c0.307-4.626,0.766-9.243,0.971-13.872c0.139-3.127,0.465-6.023,2.924-8.367c4.693-4.473,6.773-10.445,8.863-16.342
			c0.795-2.242,1.871-3.711,4.35-4.107c1.525-0.244,3.004-0.872,4.463-1.431c1.031-0.396,1.695-0.141,2.295,0.742
			c1.354,1.995,2.799,3.929,4.139,5.933c2.859,4.268,6.105,8.225,9.5,12.069c1.303,1.475,1.043,3.403,1.352,5.142
			c1.924,10.825,3.781,21.664,5.654,32.5c0.039,0.234,0.008,0.48,0.008,0.723C150.643,173.079,135.547,173.076,120.454,173.074z"/>
		<path fill-rule="evenodd" clip-rule="evenodd" fill="#798B97" d="M182.071,152.811c0.662,1.664,0.395,3.529,1.121,5.18
			c-2.18,0.859-2.646,1.665-2.277,3.945c0.604,3.713,1.213,7.426,1.818,11.139c-3.723,0-7.443,0.002-11.166,0.003
			c-0.979-5.51-1.975-11.017-2.932-16.53c-1.266-7.295-2.496-14.594-3.746-21.892c-0.197-1.155-0.705-2.13-1.516-3.013
			c-5.029-5.48-9.297-11.543-13.57-17.891c2.621-0.859,5.152-1.687,7.682-2.516c0.867-0.285,0.99,0.517,1.299,0.949
			c2.699,3.781,5.385,7.57,8.039,11.385c2.068,2.975,4.059,6.051,6.703,8.521c2.703,2.522,3.314,5.714,3.811,9.071
			c0.443,2.976,0.982,5.938,1.484,8.904C179.131,151.892,180.237,152.785,182.071,152.811z"/>
		<path fill-rule="evenodd" clip-rule="evenodd" fill="#929DA8" d="M50.981,173.061c20.348,0.008,40.695,0.016,61.045,0.027
			c0.904,0,1.809,0.03,2.715,0.047c-0.15,3.976-0.15,3.976-4.152,3.976c-8.963,0-17.928-0.004-26.889,0.003
			c-2.475,0.002-3.188,0.541-3.876,2.858c-1.78-0.086-3.56-0.155-5.337,0.054c-0.346-2.188-1.191-2.906-3.55-2.91
			c-6.213-0.014-12.428-0.078-18.638,0.039c-1.86,0.036-2.176-0.579-1.682-2.154C50.813,174.377,50.864,173.708,50.981,173.061z"/>
		<path fill-rule="evenodd" clip-rule="evenodd" fill="#4F5F67" d="M120.454,173.074c15.094,0.002,30.189,0.005,45.285,0.008
			c1.125,4.005,1.125,4.005-2.898,4.005c-13.514,0-27.027,0-40.541-0.001c-2.188,0-2.182,0-1.949-2.207
			C120.413,174.28,120.42,173.676,120.454,173.074z"/>
		<path fill-rule="evenodd" clip-rule="evenodd" fill="#929DA8" d="M188.512,173.112c10.688-0.009,21.377-0.011,32.064-0.04
			c0.742-0.002,1.6,0.313,2.176-0.492c0.037,0.049,0.098,0.091,0.109,0.144c0.266,1.405,1.193,3.3,0.613,4.089
			c-0.678,0.923-2.695,0.281-4.127,0.285c-9.215,0.025-18.43,0.014-27.645,0.014c-2.734,0-2.736,0-3.109-2.738
			C188.54,173.957,188.54,173.533,188.512,173.112z"/>
		<path fill-rule="evenodd" clip-rule="evenodd" fill="#6F7F88" d="M171.567,173.077c3.723-0.001,7.443-0.003,11.166-0.003
			c0.867,4.027,0.867,4.027-3.195,4.027c-1.869,0-3.744-0.074-5.607,0.024c-1.332,0.07-2.063-0.277-2.063-1.737
			C171.868,174.619,171.672,173.848,171.567,173.077z"/>
		<path fill-rule="evenodd" clip-rule="evenodd" fill="#5A6D76" d="M130.856,38.486c1.125-0.095,2.16,0.592,3.105,1.494
			c5.115,4.869,10.256,9.711,15.33,14.623c1.084,1.05,2.268,1.712,3.701,2.102c4.699,1.275,9.373,2.646,14.076,3.898
			c1.313,0.35,1.51,0.814,0.98,2.072c-1.238,2.944-2.49,5.876-4.008,8.689c-0.572,1.063-1.17,2.105-1.977,3.015
			c-1.469,1.654-2.455,1.651-3.691-0.147c-0.988-1.438-1.85-2.961-2.779-4.439c-0.736-1.171-1.439-2.369-2.252-3.486
			c-2.502-3.438-7.395-3.982-11.859-2.147c-5.084,2.091-8.266,5.786-9.467,11.214c-0.672,3.033-1.154,6.148-2.723,8.91
			c-1.004,1.766-2.316,3.023-4.594,2.908c-1.422-0.072-2.463-0.578-3.043-1.854c-0.943-2.076-1.783-4.2-2.736-6.272
			c-1.008-2.196-2.459-3.755-5.143-3.909c-3.037-0.177-5.064,1.105-6.43,3.715c-1.492,2.852-2.244,5.943-2.828,9.057
			c-1.023,5.471-1.906,10.972-3.713,16.254c-0.598,1.743-1.221,3.814-3.428,3.984c-2.211,0.17-2.91-1.91-3.689-3.471
			c-2.24-4.484-3.297-9.387-4.783-14.135c-0.861-2.751-1.66-5.52-2.781-8.18c-0.385-0.912-0.387-1.752-0.201-2.766
			c0.428-2.349,1.598-3.901,3.801-4.783c0.83-0.332,1.535-0.988,2.371-1.305c5.713-2.164,8.748-7.122,12.297-11.582
			c4.186-5.262,7.391-11.148,10.926-16.824c0.938-1.506,1.977-2.548,3.762-3.062c3.117-0.897,6.156-2.067,9.219-3.152
			C129.051,38.641,129.807,38.496,130.856,38.486z"/>
	</g>
	<g>
		<path fill-rule="evenodd" clip-rule="evenodd" fill="#D3C1A3" stroke="#000000" stroke-width="3" stroke-miterlimit="10" d="
			M307.971,297.084c-3.129,0.502-6.314,0.244-9.475,0.468c-10.359,0.733-20.398,2.478-30.164,5.36
			c-12.266,3.621-23.346,8.91-33.516,15.488c-2.693,1.743-5.037,3.861-8.084,5.227c-9.578,4.297-21.348,0.377-24.584-8.119
			c-0.173-0.453,0.006-1.047-0.639-1.363c0-1.572,0-3.146,0-4.717c0.656-1.335,1.022-2.744,1.811-4.053
			c2.023-3.361,5.799-5.344,9.031-7.758c4.166-2.584,8.332-5.168,12.498-7.752c0.83-0.022,1.352-0.538,1.973-0.863
			c4.064-2.121,8.188-4.156,12.541-5.875c4.076-1.713,8.234-3.279,12.471-4.712c4.908-1.622,9.912-3.028,15.01-4.182
			c4.617-1.046,9.24-2.11,14.029-2.56c0.596-0.107,1.188-0.242,1.789-0.32c3.555-0.458,7.113-0.902,10.668-1.352
			c4.891,0.014,9.76-0.625,14.66-0.298C307.985,278.831,307.977,287.957,307.971,297.084z"/>
		<path fill-rule="evenodd" clip-rule="evenodd" fill="#A3967E" stroke="#000000" stroke-width="3" stroke-miterlimit="10" d="
			M307.971,297.084c0.006-9.127,0.014-18.253,0.02-27.38c1.854,0.001,3.709-0.019,5.563,0.006c2.941,0.038,5.863,0.577,8.818,0.222
			c4.037,0.827,8.178,1.082,12.291,1.482c0.922,0.205,1.832,0.454,2.764,0.609c8.986,1.496,17.762,3.557,26.254,6.386
			c4.156,1.467,8.313,2.934,12.471,4.401c4.75,2.416,9.785,4.449,14.42,7.023c0.18,0.099,0.523,0.001,0.791-0.004
			c0.219,0.275,0.363,0.633,0.668,0.818c3.875,2.344,7.773,4.662,11.666,6.987c1.566,1.155,3.111,2.331,4.705,3.464
			c3.264,2.318,4.961,5.342,6.01,8.664c0,1.461,0,2.921,0,4.381c-1.275,2.014-1.988,4.217-3.791,6.065
			c-5.344,5.478-15.846,6.815-22.758,2.637c-4.988-3.018-9.545-6.476-14.715-9.329c-13.576-7.494-28.389-12.473-44.541-14.88
			C321.78,297.621,314.883,297.313,307.971,297.084z"/>
		<path fill-rule="evenodd" clip-rule="evenodd" fill="#C23735" stroke="#000000" stroke-width="3" stroke-miterlimit="10" d="
			M212.223,271.373c-0.033-2.033,1.379-3.395,3.148-4.652c7.318-5.207,15.275-9.646,23.961-13.221
			c0.002,3.922,0.002,7.844,0.002,11.768c-5.15,2.098-9.557,5.055-14.023,7.945c-0.518,0.336-0.523,0.742-0.521,1.192
			c0.021,5.153,0.041,10.307,0.061,15.46c-4.166,2.584-8.332,5.168-12.498,7.752c-0.039-0.678-0.078-1.355-0.117-2.032
			C212.415,287.515,212.403,279.443,212.223,271.373z"/>
		<path fill-rule="evenodd" clip-rule="evenodd" fill="none" stroke="#000000" stroke-width="3" stroke-miterlimit="10" d="
			M280.874,271.674c-4.789,0.449-9.412,1.514-14.029,2.56c-5.098,1.153-10.102,2.56-15.01,4.182
			c0.004-6.171,0.008-12.341,0.012-18.511c0.258-0.065,0.525-0.113,0.775-0.196c9.119-3.013,18.502-5.255,28.279-6.339
			C280.891,259.471,280.881,265.572,280.874,271.674z"/>
		<path fill-rule="evenodd" clip-rule="evenodd" fill="none" stroke="#000000" stroke-width="3" stroke-miterlimit="10" d="
			M322.372,269.932c-2.955,0.355-5.877-0.184-8.818-0.222c-1.854-0.024-3.709-0.005-5.563-0.006c-4.9-0.327-9.77,0.312-14.66,0.298
			c0.021-5.97,0.041-11.939,0.061-17.908c4.838-0.525,9.729-0.277,14.576-0.666c4.57,0.149,9.139,0.299,13.707,0.447
			c0.154,0.06,0.307,0.119,0.461,0.178c0.057,0.439,0.162,0.878,0.166,1.316C322.333,258.891,322.35,264.41,322.372,269.932z"/>
		<path fill-rule="evenodd" clip-rule="evenodd" fill="#E09A5D" stroke="#000000" stroke-width="3" stroke-miterlimit="10" d="
			M251.846,259.904c-0.004,6.17-0.008,12.34-0.012,18.511c-4.236,1.433-8.395,2.999-12.471,4.713
			c-0.01-5.954-0.02-11.907-0.029-17.86c0-3.924,0-7.846-0.002-11.768c0.004-2.021-0.021-4.041,0.02-6.061
			c0.059-2.921,2.449-5.014,5.803-5.133c3.646-0.131,6.279,1.793,6.639,4.824c0.07,0.596-0.234,1.246,0.352,1.775
			c-0.359,0.445-0.342,0.947-0.338,1.451C251.825,253.54,251.834,256.722,251.846,259.904z"/>
		<path fill-rule="evenodd" clip-rule="evenodd" fill="#DF9A5D" stroke="#000000" stroke-width="3" stroke-miterlimit="10" d="
			M293.391,252.094c-0.02,5.969-0.039,11.938-0.061,17.908c-3.555,0.449-7.113,0.894-10.668,1.352
			c-0.602,0.078-1.193,0.213-1.789,0.32c0.008-6.102,0.018-12.203,0.027-18.305c-0.004-3.455-0.006-6.911-0.01-10.367
			c-0.002-1.74-0.055-3.481,0.008-5.221c0.092-2.625,2.43-4.669,5.471-4.867c3.43-0.223,6.064,1.429,6.732,4.131
			c0.385,1.563,0.049,3.141,0.291,4.699C293.391,245.194,293.391,248.644,293.391,252.094z"/>
		<path fill-rule="evenodd" clip-rule="evenodd" fill="none" stroke="#000000" stroke-width="3" stroke-miterlimit="10" d="
			M239.334,265.268c0.01,5.953,0.02,11.906,0.029,17.86c-4.354,1.718-8.477,3.753-12.541,5.874
			c-0.621,0.325-1.143,0.841-1.973,0.863c-0.02-5.153-0.039-10.307-0.061-15.46c-0.002-0.45,0.004-0.856,0.521-1.192
			C229.778,270.322,234.184,267.365,239.334,265.268z"/>
		<path fill-rule="evenodd" clip-rule="evenodd" fill="none" stroke="#000000" stroke-width="3" stroke-miterlimit="10" d="
			M363.68,278.408c-8.492-2.828-17.268-4.889-26.254-6.385c-0.932-0.155-1.842-0.404-2.764-0.609
			c-0.014-6.055-0.027-12.107-0.041-18.161c1.293,0.146,2.596,0.251,3.877,0.442c8.639,1.293,17.006,3.345,25.156,5.984
			C363.663,265.922,363.67,272.166,363.68,278.408z"/>
		<path fill-rule="evenodd" clip-rule="evenodd" fill="#7F3129" stroke="#000000" stroke-width="3" stroke-miterlimit="10" d="
			M376.196,253.387c9.219,3.719,17.604,8.424,25.254,14c1.535,1.119,2.293,2.482,2.289,4.15c-0.02,8.7-0.031,17.399-0.043,26.099
			c-3.893-2.325-7.791-4.644-11.666-6.987c-0.305-0.186-0.449-0.543-0.668-0.82c-0.004-4.986-0.006-9.973-0.016-14.959
			c0-0.604,0.105-1.212-0.609-1.686c-4.586-3.049-9.209-6.051-14.559-8.207C376.184,261.113,376.19,257.25,376.196,253.387z"/>
		<path fill-rule="evenodd" clip-rule="evenodd" fill="#A66D46" stroke="#000000" stroke-width="3" stroke-miterlimit="10" d="
			M376.196,253.387c-0.006,3.863-0.012,7.727-0.018,11.59c-0.01,5.945-0.018,11.889-0.027,17.834
			c-4.158-1.468-8.314-2.935-12.471-4.401c-0.01-6.243-0.018-12.487-0.025-18.729c0.016-2.52,0.074-5.039,0.027-7.557
			c-0.02-1.1,0.363-2.245-0.387-3.293c0.797-0.373,0.406-1,0.465-1.514c0.363-3.193,2.898-5.139,6.588-5.02
			c3.496,0.112,5.811,2.233,5.848,5.391C376.219,249.587,376.198,251.486,376.196,253.387z"/>
		<path fill-rule="evenodd" clip-rule="evenodd" fill="#A66D46" stroke="#000000" stroke-width="3" stroke-miterlimit="10" d="
			M334.622,253.253c0.014,6.054,0.027,12.106,0.041,18.161c-4.113-0.4-8.254-0.655-12.291-1.482
			c-0.021-5.521-0.039-11.041-0.07-16.563c-0.004-0.438-0.109-0.877-0.166-1.316c0.02-0.088,0.023-0.178,0.008-0.268
			c0.73-3.104,0.219-6.234,0.252-9.354c0.002-0.2-0.428-0.404-0.656-0.605c0.549-0.171,0.635-0.527,0.621-0.951
			c-0.02-0.672-0.008-1.346-0.002-2.02c0.031-4.676,3.34-6.756,8.889-5.591c2.574,1.302,3.645,3.172,3.488,5.628
			c-0.088,1.373-0.256,2.779,0.25,4.141c-0.539,0.396-0.377,0.922-0.379,1.406C334.602,247.377,334.614,250.315,334.622,253.253z"/>
		<path fill-rule="evenodd" clip-rule="evenodd" fill="none" stroke="#000000" stroke-width="3" stroke-miterlimit="10" d="
			M376.151,282.811c0.01-5.945,0.018-11.889,0.027-17.834c5.35,2.156,9.973,5.158,14.559,8.207c0.715,0.474,0.609,1.081,0.609,1.686
			c0.01,4.986,0.012,9.973,0.016,14.959c-0.268,0.007-0.611,0.104-0.791,0.006C385.936,287.26,380.901,285.227,376.151,282.811z"/>
		<path fill-rule="evenodd" clip-rule="evenodd" fill="#C23735" stroke="#000000" stroke-width="3" stroke-miterlimit="10" d="
			M280.891,243.002c0.004,3.456,0.006,6.912,0.01,10.367c-9.777,1.084-19.16,3.326-28.279,6.339
			c-0.25,0.083-0.518,0.131-0.775,0.196c-0.012-3.183-0.021-6.364-0.039-9.547c-0.004-0.504-0.021-1.006,0.338-1.451
			c8.854-2.688,17.996-4.494,27.301-5.797C279.92,243.043,280.409,243.037,280.891,243.002z"/>
		<path fill-rule="evenodd" clip-rule="evenodd" fill="#C23735" stroke="#000000" stroke-width="3" stroke-miterlimit="10" d="
			M293.391,252.094c0-3.45,0-6.899,0.002-10.35c4.861-0.033,9.703-0.631,14.576-0.317c0,3.334,0,6.667-0.002,10.001
			C303.12,251.816,298.229,251.568,293.391,252.094z"/>
		<path fill-rule="evenodd" clip-rule="evenodd" fill="#80332A" stroke="#000000" stroke-width="3" stroke-miterlimit="10" d="
			M307.967,251.428c0.002-3.334,0.002-6.667,0.002-10.001c4.6-0.105,9.182,0.192,13.77,0.399c0.229,0.201,0.658,0.405,0.656,0.605
			c-0.033,3.119,0.479,6.25-0.252,9.354c-0.156,0.031-0.313,0.061-0.469,0.09C317.106,251.727,312.538,251.577,307.967,251.428z"/>
		<path fill-rule="evenodd" clip-rule="evenodd" fill="#7F322A" stroke="#000000" stroke-width="3" stroke-miterlimit="10" d="
			M334.622,253.253c-0.008-2.938-0.02-5.876-0.016-8.813c0.002-0.484-0.16-1.011,0.379-1.406c9.684,1.141,19.137,3.019,28.311,5.797
			c0.75,1.048,0.367,2.193,0.387,3.293c0.047,2.518-0.012,5.037-0.027,7.557c-8.15-2.64-16.518-4.691-25.156-5.984
			C337.217,253.504,335.915,253.398,334.622,253.253z"/>
		<path fill-rule="evenodd" clip-rule="evenodd" fill="#A3967E" stroke="#000000" stroke-width="3" stroke-miterlimit="10" d="
			M321.674,251.875c0.156-0.029,0.313-0.059,0.469-0.09c0.016,0.09,0.012,0.18-0.008,0.268
			C321.981,251.994,321.829,251.935,321.674,251.875z"/>
	</g>
	<g>
		<g>
			<path fill-rule="evenodd" clip-rule="evenodd" fill="#070A08" d="M244.907,587.212c-43.404,0-86.811,0-130.215,0
				c-1.182-1.01-1.976-2.152-1.298-3.798c0.754-1.832,1.449-3.69,2.271-5.49c1.389-3.046,3.807-4.954,7.035-5.654
				c1.478-0.321,3.061-0.175,4.596-0.211c3.389-0.079,5.107-1.791,5.201-5.176c0.182-6.663,0.354-13.326,0.586-19.987
				c0.035-1.008-0.208-1.405-1.262-1.507c-2.271-0.218-2.817-0.825-3.112-3.056c1.055-2.104,1.726-2.365,4.465-1.988
				c11.567,1.59,22.847,0.356,33.849-3.514c0.344-0.12,0.781-0.148,0.867-0.805c-0.897-0.137-1.777-0.289-2.662-0.404
				c-4.299-0.556-8.476-1.694-12.698-2.614c-2.452-0.844-4.917-1.656-7.354-2.538c-3.969-1.436-4.989-2.841-5.175-6.977
				c0.419-0.994,0.785-2.014,1.264-2.978c2.757-5.551,5.531-11.093,8.322-16.627c0.375-0.743,0.577-1.206-0.457-1.65
				c-4.005-1.722-5.052-4.653-3.128-8.525c2.276-4.579,4.559-9.156,6.878-13.715c0.416-0.817,0.526-1.466,0.073-2.355
				c-3.201-6.278-6.328-12.594-9.493-18.891c-0.188-0.373-0.227-0.906-0.896-1.022c-1.155,2.378-2.318,4.771-3.481,7.163
				c-4.422,8.789-8.846,17.578-13.268,26.367c-1.023,2.034-1.02,2.036,1.125,2.758c2.758,0.928,3.313,2.2,2.035,4.767
				c-2.41,4.84-4.793,9.695-7.29,14.49c-0.7,1.346-0.722,1.914,0.924,2.398c2.948,0.867,3.402,2.219,2.022,5.006
				c-2.496,5.043-4.988,10.088-7.482,15.132c0.418,1.162,1.596,1.038,2.455,1.344c1.664,0.593,2.59,1.574,2.454,3.397
				c-0.671,1.477-1.774,2.235-3.395,1.765c-2.856-0.828-5.775-1.619-7.054-4.792c0-0.913,0-1.827,0-2.741
				c2.742-4.615,4.85-9.556,7.342-14.299c0.3-0.572-0.084-0.609-0.445-0.827c-3.094-1.864-3.721-4.064-2.097-7.321
				c2.13-4.271,4.29-8.526,6.397-12.808c0.23-0.468,0.982-0.994-0.225-1.548c-3.311-1.521-4.012-3.812-2.372-7.089
				c6.493-12.982,13.004-25.957,19.477-38.95c0.683-1.369,1.497-2.472,3.147-2.445c1.565,0.024,2.376,1.089,3.017,2.397
				c1.948,3.977,3.947,7.929,6.01,12.056c3.079-6.143,6.073-12.121,9.071-18.099c1.142-2.273,1.465-2.441,4.012-2.145
				c1.486,1.197,1.573,2.592,0.738,4.239c-2.877,5.684-5.707,11.391-8.555,17.089c-1.852,3.708-1.85,3.709,2.11,5.02
				c2.748,0.91,3.307,2.19,2.024,4.76c-3.148,6.312-6.313,12.615-9.473,18.921c-1.717,3.426-1.719,3.425,1.976,4.698
				c2.759,0.951,3.265,2.162,1.956,4.784c-3.275,6.568-6.566,13.13-9.848,19.696c-1.013,2.025-0.995,2.056,1.307,2.637
				c0.404,0.196,0.792,0.436,1.213,0.581c12.939,4.479,26.222,6.173,39.878,4.971c8.5-0.748,16.721-2.65,24.746-5.523
				c1.606-0.574,1.786-1.307,0.974-2.606c-0.18-0.289-0.318-0.604-0.471-0.909c-3.207-6.411-6.426-12.816-9.613-19.236
				c-1.031-2.075-0.426-3.495,1.741-4.286c1.015-0.37,2.021-0.774,3.058-1.065c0.868-0.242,0.902-0.637,0.522-1.349
				c-0.749-1.406-1.437-2.845-2.151-4.271c-2.879-5.752-5.77-11.499-8.635-17.259c-1.113-2.239-0.48-3.687,1.895-4.474
				c0.863-0.285,1.719-0.624,2.604-0.813c1.501-0.32,1.467-0.968,0.841-2.211c-7.17-14.226-14.282-28.481-21.41-42.729
				c-0.777-1.553-1.564-3.101-2.478-4.911c-1.34,2.729-2.563,5.22-3.786,7.71c-1.46,2.877-2.907,5.759-4.386,8.626
				c-0.967,1.874-1.865,2.25-3.844,1.694c-1.525-1.19-1.537-2.579-0.705-4.216c3.154-6.209,6.275-12.435,9.355-18.68
				c0.559-1.13,1.25-2.083,2.245-2.831c0.686,0,1.371,0,2.056,0c1.164,0.598,1.842,1.585,2.416,2.737
				c5.914,11.886,11.859,23.757,17.799,35.631c1.264,2.526,2.535,5.05,3.892,7.751c3.374-6.768,6.642-13.312,9.899-19.86
				c0.601-1.207,1.449-2.021,2.887-2.032c1.423-0.011,2.314,0.71,2.932,1.947c7.414,14.858,14.859,29.701,22.254,44.569
				c1.406,2.83,0.346,5.575-2.6,6.637c-1.327,0.479-1.285,0.927-0.729,2.011c2.563,5.003,5.073,10.034,7.546,15.083
				c1.395,2.847,0.439,5.742-2.43,6.973c-1.268,0.543-0.906,1.027-0.497,1.848c2.653,5.311,5.276,10.636,7.908,15.956
				c0,0.686,0,1.371,0,2.057c-0.899,2.566-2.829,3.863-5.334,4.701c-5.659,1.895-11.392,3.443-17.317,4.185
				c-0.975,0.122-1.225,0.442-1.168,1.386c0.124,2.046,0.073,4.102,0.191,6.146c0.105,1.832-0.667,2.915-2.443,3.305
				c-2.117-0.471-2.66-1.136-2.717-3.236c-0.051-1.881-0.194-3.761-0.182-5.641c0.008-1.096-0.432-1.289-1.428-1.259
				c-2.563,0.078-5.133,0.112-7.691-0.003c-1.275-0.058-1.648,0.265-1.665,1.564c-0.08,6.214-0.206,12.429-0.448,18.639
				c-0.107,2.765,0.174,5.613-1.073,8.236c-0.329,0.692-0.112,0.929,0.599,0.929c4.277-0.007,8.555-0.005,12.83-0.002
				c0.611,0.001,0.828-0.162,0.525-0.811c-1.249-2.677-1.037-5.557-1.118-8.397c-0.05-1.754,0.724-2.807,2.463-3.125
				c2.081,0.416,2.644,1.09,2.696,3.219c0.024,0.967,0.039,1.935,0.083,2.9c0.196,4.368,1.947,6.074,6.331,6.263
				c4.262,0.183,7.277,2.263,9.036,6.132c0.701,1.543,1.312,3.127,1.938,4.702C247.066,585.048,246.819,585.83,244.907,587.212z
				 M214.286,450.919c-1.801,3.549-3.502,7.152-5.447,10.619c-0.861,1.534-0.819,2.69-0.012,4.207
				c1.994,3.744,0.813,6.619-3.211,8.045c-1.189,0.422-1.427,0.797-0.813,1.993c3.123,6.076,6.166,12.193,9.196,18.316
				c1.714,3.465,0.523,6.705-3.075,8.05c-1.296,0.484-1.119,0.933-0.636,1.884c2.884,5.682,5.729,11.382,8.564,17.088
				c2.032,4.09,0.667,7.6-3.618,9.149c-3.037,1.099-6.127,2.058-9.192,3.079c-2.435,0.538-4.869,1.077-7.643,1.69
				c0.526,0.26,0.662,0.362,0.814,0.397c15.736,3.64,31.195,2.666,46.398-2.755c1.093-0.39,1.231-0.821,0.71-1.844
				c-2.586-5.071-4.98-10.243-7.68-15.252c-2.252-4.182-1.412-5.475,2.576-6.515c1.029-0.268,1.262-0.643,0.723-1.698
				c-2.979-5.832-5.887-11.699-8.785-17.571c-1.028-2.083-0.418-3.484,1.758-4.253c0.535-0.188,1.078-0.372,1.633-0.487
				c1.289-0.271,1.561-0.741,0.898-2.052c-6.34-12.544-12.603-25.128-18.896-37.696c-0.22-0.44-0.306-0.992-0.948-1.28
				C216.495,446.333,215.389,448.626,214.286,450.919z M119.713,582.07c0.584,0,1.139,0,1.691,0c38.938,0,77.873,0,116.81,0
				c0.343,0,0.687-0.021,1.027,0.003c0.797,0.054,0.956-0.168,0.675-0.98c-0.922-2.661-2.609-3.859-5.729-3.86
				c-36.196-0.003-72.392-0.003-108.588,0.001C122.162,577.234,120.579,578.522,119.713,582.07z M191.862,552.333
				c0.681,4.157,0.569,8.327,0.701,12.491c0.076,2.393,0.734,4.542,2.822,5.914c2.619,1.722,5.488,1.809,8.317,0.658
				c1.679-0.682,2.737-2.147,2.804-3.983c0.293-8.099,0.486-16.2,0.741-24.299c0.025-0.802-0.245-1.054-1.044-1.151
				c-4.35-0.527-8.627-1.451-12.807-2.759c-1.264-0.396-1.618-0.32-1.574,1.15C191.939,544.344,191.862,548.34,191.862,552.333z
				 M167.891,542.057c-4.941,1.539-9.697,2.828-14.617,3.381c-0.936,0.104-0.833,0.736-0.813,1.376
				c0.208,6.892,0.403,13.784,0.624,20.676c0.059,1.853,0.836,3.449,2.617,4.033c2.945,0.967,5.958,0.998,8.69-0.745
				c1.606-1.024,2.628-2.612,2.703-4.525C167.411,558.283,167.628,550.311,167.891,542.057z M189.448,572.022
				c-1.953-3.055-2.042-6.174-2.112-9.329c-0.186-8.333-0.465-16.664-0.654-24.997c-0.022-0.992-0.31-1.344-1.274-1.188
				c-0.448,0.072-0.916,0.099-1.367,0.062c-1.158-0.093-1.582,0.339-1.543,1.559c0.09,2.795,0.05,5.596,0.02,8.394
				c-0.02,1.84-1.037,2.974-2.586,2.987c-1.545,0.013-2.551-1.114-2.567-2.962c-0.024-2.627-0.112-5.259,0.03-7.878
				c0.09-1.648-0.44-2.322-2.068-2.134c-0.224,0.026-0.461,0.016-0.683-0.024c-1.112-0.204-1.462,0.237-1.468,1.365
				c-0.012,2.91-0.012,5.833-0.271,8.729c-0.758,8.441,0.82,17.081-2.111,25.418c1.568,0,3.169-0.085,4.756,0.025
				c1.383,0.096,1.88-0.292,1.844-1.771c-0.103-4.166-0.039-8.336-0.032-12.505c0.001-0.68-0.04-1.364,0.401-1.972
				c0.723-0.992,1.695-1.391,2.844-1.059c1.305,0.377,1.915,1.369,1.918,2.715c0.006,4.397,0.029,8.795-0.016,13.191
				c-0.011,0.994,0.186,1.454,1.305,1.397C185.571,571.957,187.337,572.022,189.448,572.022z M148.944,572.021
				c-0.752-1.863-0.998-3.519-1.037-5.251c-0.15-6.449-0.431-12.896-0.573-19.347c-0.026-1.211-0.479-1.367-1.515-1.327
				c-2.052,0.08-4.113,0.108-6.162-0.007c-1.164-0.066-1.429,0.326-1.441,1.408c-0.045,3.653-0.02,7.319-0.331,10.954
				c-0.368,4.301,0.421,8.698-1.04,12.905c-0.301,0.868,0.369,0.652,0.744,0.654C141.295,572.028,145.003,572.021,148.944,572.021z"
				/>
			<path fill-rule="evenodd" clip-rule="evenodd" fill="none" d="M164.942,443.706c-2.547-0.297-2.87-0.129-4.012,2.145
				c-2.998,5.978-5.992,11.956-9.071,18.099c-2.063-4.127-4.062-8.079-6.01-12.056c-0.641-1.309-1.451-2.373-3.017-2.397
				c-1.65-0.026-2.465,1.076-3.147,2.445c-6.473,12.993-12.983,25.968-19.477,38.95c-1.64,3.277-0.938,5.567,2.372,7.089
				c1.207,0.554,0.455,1.08,0.225,1.548c-2.107,4.281-4.268,8.536-6.397,12.808c-1.624,3.257-0.997,5.457,2.097,7.321
				c0.361,0.218,0.745,0.255,0.445,0.827c-2.492,4.743-4.6,9.684-7.342,14.299c0-40.55,0.006-81.1-0.033-121.648
				c-0.001-1.174,0.229-1.407,1.403-1.404c21.931,0.045,43.862,0.033,65.793,0.033c-0.995,0.748-1.687,1.701-2.245,2.831
				c-3.08,6.245-6.201,12.471-9.355,18.68c-0.832,1.637-0.82,3.025,0.705,4.215C166.897,439.562,165.918,441.634,164.942,443.706z"
				/>
			<path fill-rule="evenodd" clip-rule="evenodd" fill="none" d="M252.103,531.014c-2.632-5.32-5.255-10.646-7.908-15.956
				c-0.409-0.82-0.771-1.305,0.497-1.848c2.869-1.23,3.824-4.126,2.43-6.973c-2.473-5.049-4.982-10.08-7.546-15.083
				c-0.556-1.084-0.598-1.532,0.729-2.011c2.945-1.062,4.006-3.807,2.6-6.637c-7.395-14.868-14.84-29.711-22.254-44.569
				c-0.617-1.237-1.509-1.958-2.932-1.947c-1.438,0.012-2.286,0.825-2.887,2.032c-3.258,6.549-6.525,13.093-9.899,19.86
				c-1.356-2.701-2.628-5.225-3.892-7.751c-5.939-11.874-11.885-23.745-17.799-35.631c-0.574-1.152-1.252-2.14-2.416-2.737
				c23.281,0,46.563,0.015,69.843-0.038c1.294-0.003,1.464,0.339,1.462,1.515C252.097,452.498,252.103,491.756,252.103,531.014z"/>
			<path fill-rule="evenodd" clip-rule="evenodd" fill="none" d="M244.907,587.212c1.912-1.382,2.159-2.164,1.305-4.309
				c-0.627-1.575-1.237-3.159-1.938-4.702c-1.759-3.869-4.774-5.949-9.036-6.132c-4.384-0.188-6.135-1.895-6.331-6.263
				c-0.044-0.966-0.059-1.934-0.083-2.9c-0.053-2.129-0.615-2.803-2.696-3.219c-0.032-2.299-0.063-4.597-0.095-6.895
				c1.776-0.39,2.549-1.473,2.443-3.305c-0.118-2.045-0.067-4.101-0.191-6.146c-0.057-0.943,0.193-1.264,1.168-1.386
				c5.926-0.741,11.658-2.29,17.317-4.185c2.505-0.838,4.435-2.135,5.334-4.701c0,17.59-0.015,35.181,0.034,52.771
				c0.002,1.173-0.223,1.48-1.407,1.404C248.797,587.121,246.849,587.212,244.907,587.212z"/>
			<path fill-rule="evenodd" clip-rule="evenodd" fill="none" d="M128.708,542.333c0.295,2.23,0.841,2.838,3.112,3.056
				c1.054,0.102,1.297,0.499,1.262,1.507c-0.231,6.661-0.404,13.324-0.586,19.987c-0.094,3.385-1.813,5.097-5.201,5.176
				c-1.535,0.036-3.118-0.11-4.596,0.211c-3.229,0.7-5.646,2.608-7.035,5.654c-0.821,1.8-1.517,3.658-2.271,5.49
				c-0.678,1.646,0.116,2.788,1.298,3.798c-1.028,0-2.458,0.401-2.972-0.112c-0.515-0.515-0.112-1.943-0.112-2.972
				c0-15.534,0-31.069,0-46.604c1.278,3.173,4.197,3.964,7.054,4.792c1.62,0.471,2.724-0.288,3.396-1.765
				C124.153,541.599,126.479,541.789,128.708,542.333z"/>
			<path fill-rule="evenodd" clip-rule="evenodd" fill="#82C88E" d="M164.942,443.706c0.977-2.072,1.955-4.145,2.934-6.217
				c1.979,0.557,2.877,0.181,3.844-1.693c1.479-2.867,2.926-5.749,4.386-8.625c0.427,0.24,0.603,0.669,0.807,1.077
				c5.384,10.765,10.772,21.527,16.144,32.3c0.908,1.82,0.475,3.051-1.477,3.743c-2.438,0.865-3.975,3.612-2.409,6.48
				c3.169,5.805,5.987,11.801,8.937,17.726c1.148,2.308,0.76,3.367-1.523,4.33c-2.07,0.872-3.129,3.274-2.32,5.351
				c0.393,1.005,0.867,1.977,1.305,2.964c-0.668,0.136-1.335,0.287-2.007,0.405c-4.333,0.756-8.698,1.082-13.096,1.13
				c-2.185,0.024-3.282,1.174-3.077,2.978c0.177,1.549,1.317,2.295,3.439,2.262c5.879-0.093,11.688-0.827,17.463-1.888
				c1.541,3.178,3.082,6.354,4.622,9.533c1.118,2.31,0.438,4.456-1.923,5.323c-4.322,1.589-8.705,3.015-13.223,3.965
				c-5,1.053-10.031,1.807-15.145,2.163c-5.527,0.385-11.021,0.317-16.513-0.307c-2.981-0.339-5.954-0.768-8.931-1.156
				c-2.302-0.581-2.319-0.611-1.307-2.637c3.281-6.566,6.572-13.128,9.848-19.696c1.309-2.622,0.803-3.833-1.956-4.784
				c-3.694-1.273-3.692-1.272-1.976-4.698c3.16-6.306,6.324-12.609,9.473-18.921c1.282-2.569,0.724-3.85-2.024-4.76
				c-3.96-1.311-3.962-1.312-2.11-5.02c2.848-5.698,5.678-11.405,8.555-17.089C166.515,446.298,166.428,444.903,164.942,443.706z
				 M176.622,478.338c0.854,0.043,1.706,0.111,2.561,0.123c2.021,0.028,3.332-1.011,3.334-2.612c0.002-1.52-1.203-2.619-3.161-2.635
				c-3.536-0.027-7.039-0.38-10.541-0.819c-2.077-0.261-3.241,0.501-3.418,2.105c-0.188,1.705,0.831,2.771,2.909,3.039
				C171.069,477.896,173.825,478.332,176.622,478.338z"/>
			<path fill-rule="evenodd" clip-rule="evenodd" fill="#66B39C" d="M147.178,525.55c2.977,0.389,5.949,0.817,8.931,1.156
				c5.492,0.624,10.985,0.691,16.513,0.307c5.113-0.356,10.145-1.11,15.145-2.163c4.518-0.95,8.9-2.376,13.223-3.965
				c2.361-0.867,3.041-3.014,1.923-5.323c-1.54-3.179-3.081-6.355-4.622-9.533c1.658-1.133,2.197-2.357,1.61-3.665
				c-0.574-1.28-1.833-1.69-3.825-1.255c-0.164,0.036-0.338,0.023-0.508,0.033c-0.438-0.987-0.912-1.959-1.305-2.964
				c-0.809-2.076,0.25-4.479,2.32-5.351c2.283-0.963,2.672-2.022,1.523-4.33c-2.949-5.925-5.768-11.921-8.937-17.726
				c-1.565-2.868-0.028-5.615,2.409-6.48c1.951-0.692,2.385-1.923,1.477-3.743c-5.371-10.772-10.76-21.535-16.144-32.3
				c-0.204-0.408-0.38-0.837-0.807-1.077c1.224-2.491,2.446-4.981,3.786-7.711c0.913,1.811,1.7,3.358,2.478,4.911
				c7.128,14.247,14.24,28.503,21.41,42.729c0.626,1.243,0.66,1.891-0.841,2.211c-0.885,0.188-1.74,0.527-2.604,0.813
				c-2.375,0.787-3.008,2.234-1.895,4.474c2.865,5.76,5.756,11.507,8.635,17.259c0.715,1.426,1.402,2.864,2.151,4.271
				c0.38,0.712,0.346,1.106-0.522,1.349c-1.037,0.291-2.043,0.695-3.058,1.065c-2.167,0.791-2.772,2.211-1.741,4.286
				c3.188,6.42,6.406,12.825,9.613,19.236c0.152,0.305,0.291,0.62,0.471,0.909c0.813,1.3,0.633,2.032-0.974,2.606
				c-8.025,2.873-16.246,4.775-24.746,5.523c-13.656,1.202-26.938-0.492-39.878-4.971
				C147.97,525.985,147.583,525.746,147.178,525.55z"/>
			<path fill-rule="evenodd" clip-rule="evenodd" fill="#81C78D" d="M206.042,533.35c3.066-1.021,6.156-1.98,9.193-3.079
				c4.285-1.55,5.65-5.06,3.618-9.149c-2.835-5.706-5.681-11.406-8.564-17.088c-0.483-0.951-0.66-1.399,0.636-1.884
				c3.599-1.345,4.789-4.585,3.075-8.05c-3.03-6.123-6.073-12.24-9.196-18.316c-0.614-1.196-0.377-1.571,0.813-1.993
				c4.023-1.426,5.205-4.301,3.211-8.045c-0.808-1.517-0.85-2.673,0.012-4.207c1.945-3.467,3.646-7.07,5.447-10.619
				c0.307,0.735,0.57,1.491,0.926,2.202c3.488,7,6.996,13.989,10.482,20.99c0.379,0.763,0.811,1.551,0.949,2.372
				c0.238,1.412,0.346,2.826-1.314,3.683c-2.5,1.29-2.92,2.771-1.656,5.306c2.521,5.058,5.054,10.11,7.576,15.168
				c0.941,1.887,0.69,2.563-1.241,3.413c-2.087,0.919-2.839,2.83-1.927,4.949c0.449,1.044,0.936,2.072,1.406,3.107
				c-2.123,0.438-4.27,0.651-6.428,0.825c-1.986,0.159-2.975,1.263-2.828,2.917c0.141,1.612,1.379,2.379,3.357,2.259
				c2.901-0.177,5.75-0.716,8.621-1.103c0.929,1.949,1.843,3.906,2.79,5.846c1.319,2.701,0.733,4.375-2.03,5.343
				c-2.411,0.844-4.85,1.624-7.31,2.312C219.247,532.301,212.689,533.146,206.042,533.35z"/>
			<path fill-rule="evenodd" clip-rule="evenodd" fill="#65B39C" d="M229.487,512.109c-0.471-1.035-0.957-2.063-1.406-3.107
				c-0.912-2.119-0.16-4.03,1.927-4.949c1.932-0.851,2.183-1.526,1.241-3.413c-2.522-5.058-5.055-10.11-7.576-15.168
				c-1.264-2.535-0.844-4.016,1.656-5.306c1.66-0.856,1.553-2.271,1.314-3.683c-0.139-0.821-0.57-1.609-0.949-2.372
				c-3.486-7.001-6.994-13.99-10.482-20.99c-0.355-0.711-0.619-1.467-0.926-2.202c1.104-2.293,2.209-4.586,3.316-6.885
				c0.643,0.288,0.729,0.84,0.948,1.28c6.293,12.568,12.556,25.152,18.896,37.696c0.662,1.311,0.391,1.781-0.898,2.052
				c-0.555,0.115-1.098,0.299-1.633,0.487c-2.176,0.769-2.786,2.17-1.758,4.253c2.898,5.872,5.807,11.739,8.785,17.571
				c0.539,1.056,0.307,1.431-0.723,1.698c-3.988,1.04-4.828,2.333-2.576,6.515c2.699,5.009,5.094,10.181,7.68,15.252
				c0.521,1.022,0.383,1.454-0.71,1.844c-15.203,5.421-30.662,6.395-46.398,2.755c-0.152-0.035-0.288-0.138-0.814-0.397
				c2.773-0.613,5.208-1.152,7.643-1.69c6.646-0.203,13.204-1.049,19.617-2.842c2.46-0.688,4.898-1.468,7.31-2.312
				c2.764-0.968,3.35-2.642,2.03-5.343c-0.947-1.939-1.861-3.896-2.79-5.846c1.673-1.13,2.244-2.343,1.568-3.634
				c-0.779-1.487-2.07-1.81-3.622-1.325C229.947,512.114,229.709,512.092,229.487,512.109z"/>
			<path fill-rule="evenodd" clip-rule="evenodd" fill="#81C78D" d="M140,523.493c0.186,4.136,1.206,5.541,5.175,6.977
				c2.438,0.882,4.902,1.694,7.354,2.538c-6.419,2.201-13.063,3.32-19.798,3.771c-5.212,0.35-10.426-0.057-15.584-0.969
				c2.494-5.044,4.986-10.089,7.482-15.132c1.38-2.787,0.926-4.139-2.022-5.006c-1.646-0.484-1.624-1.053-0.924-2.398
				c2.497-4.795,4.88-9.65,7.29-14.49c1.278-2.566,0.723-3.839-2.035-4.767c-2.145-0.722-2.148-0.724-1.125-2.758
				c4.422-8.789,8.846-17.578,13.268-26.367c2.672,4.165,3.104,8.408,0.702,12.894c-1.965,3.671-3.745,7.44-5.601,11.171
				c-1.112,2.238-0.719,3.096,1.719,3.845c0.488,0.149,0.967,0.338,1.44,0.534c2.335,0.971,2.571,1.59,1.435,3.874
				c-2.901,5.824-5.779,11.66-8.745,17.45c-0.732,1.431-1.142,2.837-0.899,4.422c-0.576,1.311-0.587,2.534,0.608,3.527
				c1.353,1.123,5.351,1.199,6.856,0.152C137.73,523.006,138.865,523.249,140,523.493z"/>
			<path fill-rule="evenodd" clip-rule="evenodd" fill="#66B39C" d="M129.131,519.082c-0.242-1.585,0.167-2.991,0.899-4.422
				c2.966-5.79,5.844-11.626,8.745-17.45c1.137-2.284,0.9-2.903-1.435-3.874c-0.474-0.196-0.952-0.385-1.44-0.534
				c-2.438-0.749-2.831-1.606-1.719-3.845c1.855-3.73,3.636-7.5,5.601-11.171c2.401-4.485,1.97-8.729-0.702-12.894
				c1.163-2.393,2.326-4.785,3.481-7.163c0.67,0.116,0.709,0.649,0.896,1.022c3.165,6.297,6.292,12.612,9.493,18.891
				c0.453,0.89,0.343,1.538-0.073,2.355c-2.319,4.559-4.602,9.136-6.878,13.715c-1.924,3.872-0.877,6.804,3.128,8.525
				c1.034,0.444,0.832,0.907,0.457,1.65c-2.791,5.534-5.565,11.076-8.322,16.627c-0.479,0.964-0.845,1.983-1.264,2.978
				c-1.135-0.244-2.27-0.487-3.404-0.731c0.638-1.337,0.786-2.639-0.491-3.688C134.624,517.856,130.621,517.895,129.131,519.082z"/>
			<path fill-rule="evenodd" clip-rule="evenodd" fill="#82C88E" d="M119.713,582.07c0.865-3.548,2.448-4.836,5.886-4.837
				c36.196-0.004,72.392-0.004,108.588-0.001c3.12,0.001,4.808,1.199,5.729,3.86c0.281,0.813,0.122,1.034-0.675,0.98
				c-0.341-0.023-0.685-0.003-1.027-0.003c-38.937,0-77.872,0-116.81,0C120.852,582.07,120.297,582.07,119.713,582.07z"/>
			<path fill-rule="evenodd" clip-rule="evenodd" fill="none" d="M191.862,552.333c0-3.993,0.077-7.989-0.039-11.979
				c-0.044-1.471,0.311-1.546,1.574-1.15c4.18,1.308,8.457,2.231,12.807,2.759c0.799,0.098,1.069,0.35,1.044,1.151
				c-0.255,8.099-0.448,16.2-0.741,24.299c-0.066,1.836-1.125,3.302-2.804,3.983c-2.829,1.15-5.698,1.063-8.317-0.658
				c-2.088-1.372-2.746-3.521-2.822-5.914C192.431,560.66,192.542,556.49,191.862,552.333z"/>
			<path fill-rule="evenodd" clip-rule="evenodd" fill="none" d="M167.891,542.057c-0.263,8.254-0.48,16.227-0.796,24.195
				c-0.075,1.913-1.097,3.501-2.703,4.525c-2.732,1.743-5.745,1.712-8.69,0.745c-1.781-0.584-2.559-2.181-2.617-4.033
				c-0.221-6.892-0.416-13.784-0.624-20.676c-0.02-0.64-0.122-1.271,0.813-1.376C158.194,544.885,162.95,543.596,167.891,542.057z"
				/>
			<path fill-rule="evenodd" clip-rule="evenodd" fill="#E09169" d="M189.448,572.022c-2.11,0-3.877-0.065-5.637,0.023
				c-1.119,0.057-1.315-0.403-1.305-1.397c0.045-4.396,0.021-8.794,0.016-13.191c-0.003-1.346-0.613-2.338-1.918-2.715
				c-1.148-0.332-2.121,0.066-2.844,1.059c-0.441,0.607-0.4,1.292-0.401,1.972c-0.007,4.169-0.07,8.339,0.032,12.505
				c0.036,1.479-0.461,1.867-1.844,1.771c-1.587-0.11-3.188-0.025-4.756-0.025c2.932-8.337,1.354-16.977,2.111-25.418
				c0.26-2.896,0.26-5.818,0.271-8.729c0.006-1.128,0.355-1.569,1.468-1.365c0.222,0.04,0.459,0.051,0.683,0.024
				c1.628-0.188,2.158,0.485,2.068,2.134c-0.143,2.619-0.055,5.251-0.03,7.878c0.017,1.848,1.022,2.975,2.567,2.962
				c1.549-0.014,2.566-1.147,2.586-2.987c0.03-2.798,0.07-5.599-0.02-8.394c-0.039-1.22,0.385-1.651,1.543-1.559
				c0.451,0.037,0.919,0.011,1.367-0.062c0.965-0.156,1.252,0.195,1.274,1.188c0.189,8.333,0.469,16.664,0.654,24.997
				C187.406,565.849,187.495,568.968,189.448,572.022z"/>
			<path fill-rule="evenodd" clip-rule="evenodd" fill="#E1916A" d="M226.032,552.793c0.031,2.298,0.063,4.596,0.095,6.895
				c-1.739,0.318-2.513,1.371-2.463,3.125c0.081,2.841-0.131,5.721,1.118,8.397c0.303,0.648,0.086,0.812-0.525,0.811
				c-4.275-0.003-8.553-0.005-12.83,0.002c-0.711,0-0.928-0.236-0.599-0.929c1.247-2.623,0.966-5.472,1.073-8.236
				c0.242-6.21,0.368-12.425,0.448-18.639c0.017-1.3,0.39-1.622,1.665-1.564c2.559,0.115,5.129,0.081,7.691,0.003
				c0.996-0.03,1.436,0.163,1.428,1.259c-0.013,1.88,0.131,3.76,0.182,5.641C223.372,551.657,223.915,552.322,226.032,552.793z"/>
			<path fill-rule="evenodd" clip-rule="evenodd" fill="#E0916A" d="M148.944,572.021c-3.94,0-7.648,0.007-11.355-0.01
				c-0.375-0.002-1.045,0.214-0.744-0.654c1.461-4.207,0.672-8.604,1.04-12.905c0.312-3.635,0.286-7.301,0.331-10.954
				c0.013-1.082,0.277-1.475,1.441-1.408c2.049,0.115,4.11,0.087,6.162,0.007c1.035-0.04,1.488,0.116,1.515,1.327
				c0.143,6.45,0.423,12.897,0.573,19.347C147.946,568.503,148.192,570.158,148.944,572.021z"/>
			<path fill-rule="evenodd" clip-rule="evenodd" fill="#65B39C" d="M117.147,535.811c5.158,0.912,10.372,1.318,15.584,0.969
				c6.734-0.451,13.379-1.57,19.798-3.771c4.223,0.92,8.399,2.059,12.698,2.614c0.885,0.115,1.765,0.268,2.662,0.404
				c-0.086,0.656-0.523,0.685-0.867,0.805c-11.002,3.87-22.281,5.104-33.849,3.514c-2.739-0.377-3.41-0.116-4.465,1.988
				c-2.229-0.544-4.556-0.734-6.651-1.781c0.135-1.823-0.791-2.805-2.455-3.397C118.743,536.849,117.565,536.973,117.147,535.811z"
				/>
			<path fill-rule="evenodd" clip-rule="evenodd" fill="#050E08" d="M195.567,501.142c0.17-0.01,0.344,0.003,0.508-0.033
				c1.992-0.436,3.251-0.025,3.825,1.255c0.587,1.308,0.048,2.532-1.61,3.665c-5.774,1.061-11.584,1.795-17.463,1.888
				c-2.122,0.033-3.263-0.713-3.439-2.262c-0.205-1.804,0.893-2.953,3.077-2.978c4.397-0.048,8.763-0.374,13.096-1.13
				C194.232,501.429,194.899,501.277,195.567,501.142z"/>
			<path fill-rule="evenodd" clip-rule="evenodd" fill="#050E08" d="M176.622,478.338c-2.797-0.006-5.553-0.442-8.316-0.799
				c-2.078-0.268-3.098-1.334-2.909-3.039c0.177-1.604,1.341-2.366,3.418-2.105c3.502,0.439,7.005,0.792,10.541,0.819
				c1.958,0.016,3.163,1.115,3.161,2.635c-0.002,1.602-1.313,2.641-3.334,2.612C178.328,478.449,177.475,478.381,176.622,478.338z"
				/>
			<path fill-rule="evenodd" clip-rule="evenodd" fill="#050E08" d="M229.487,512.109c0.223-0.018,0.46,0.005,0.669-0.061
				c1.552-0.484,2.843-0.162,3.622,1.325c0.676,1.291,0.104,2.504-1.568,3.634c-2.871,0.387-5.72,0.926-8.621,1.103
				c-1.979,0.12-3.217-0.646-3.357-2.259c-0.146-1.654,0.842-2.758,2.828-2.917C225.217,512.761,227.364,512.547,229.487,512.109z"
				/>
			<path fill-rule="evenodd" clip-rule="evenodd" fill="#050E08" d="M129.131,519.082c1.489-1.188,5.492-1.226,6.973-0.009
				c1.277,1.05,1.129,2.352,0.491,3.688c-1.505,1.047-5.503,0.971-6.855-0.152C128.544,521.616,128.555,520.393,129.131,519.082z"/>
		</g>
	</g>
	<path fill-rule="evenodd" clip-rule="evenodd" d="M56.088,411.659c-0.002-4.611,0.006-9.221-0.002-13.832
		c-0.011-6.202,3.016-10.118,9.137-10.917c6.2-0.809,10.918,2.23,11.295,8.395c0.654,10.747,0.625,21.597-0.063,32.341
		c-0.4,6.234-5.285,9.086-11.377,8.281c-5.756-0.762-8.81-4.59-8.963-10.436C55.993,420.884,56.09,416.271,56.088,411.659z"/>
	<path fill-rule="evenodd" clip-rule="evenodd" d="M434.579,253.314c3.135-3.383,6.275-6.757,9.406-10.143
		c4.209-4.555,9.092-5.367,14.121-1.79c5.096,3.624,6.488,9.06,2.572,13.835c-6.828,8.324-14.227,16.259-22.037,23.668
		c-4.535,4.299-10.055,3.068-13.975-1.665c-3.701-4.474-3.336-9.356,0.525-13.746C428.237,260.012,431.446,256.695,434.579,253.314z
		"/>
	<path fill-rule="evenodd" clip-rule="evenodd" d="M294.405,577.654c-4.568-0.633-9.133-1.274-13.701-1.9
		c-6.143-0.842-9.605-4.378-9.557-10.551c0.051-6.253,3.711-10.508,9.867-10.034c10.734,0.83,21.477,2.352,32.025,4.509
		c6.119,1.255,8.273,6.484,6.639,12.407c-1.547,5.598-5.758,8.096-11.568,7.443C303.528,579.017,298.973,578.286,294.405,577.654z"
		/>
	<path fill-rule="evenodd" clip-rule="evenodd" d="M358.75,594.692c-4.326-1.599-8.646-3.205-12.975-4.798
		c-5.818-2.142-8.441-6.339-7.066-12.356c1.393-6.096,5.881-9.466,11.793-7.681c10.305,3.115,20.471,6.907,30.309,11.28
		c5.707,2.539,6.688,8.11,3.818,13.544c-2.711,5.134-7.361,6.67-12.896,4.785C367.368,597.983,363.075,596.291,358.75,594.692z"/>
	<path fill-rule="evenodd" clip-rule="evenodd" d="M417.241,623.66c-4.066-2.176-8.125-4.359-12.195-6.53
		c-5.471-2.919-7.494-7.437-5.307-13.209c2.215-5.847,7.121-8.57,12.732-5.991c9.781,4.497,19.332,9.647,28.479,15.327
		c5.305,3.296,5.512,8.949,1.926,13.938c-3.389,4.714-8.205,5.598-13.43,2.972C425.327,628.101,421.305,625.836,417.241,623.66z"/>
	<path fill-rule="evenodd" clip-rule="evenodd" fill="#00AEEF" d="M412.098,457.879c-10.408,0.504-19.084-1.955-26.463-6.132
		c-11.135-6.303-24.777-6.202-35.043-0.184c-15.217,8.921-39.703,8.502-54.139,0c-4.729-2.787-10.27-4.56-17.244-4.626
		c-5.631-0.054-8.598-2.668-8.24-5.952c0.322-2.954,3.908-4.954,9.318-4.92c9.602,0.062,17.977,2.276,25.246,6.186
		c6.881,3.701,14.387,6.366,23.689,4.466c3.826-0.781,7.678-2.096,10.699-3.762c16.85-9.289,39.018-8.869,55.137-0.375
		c12.768,6.73,21.113,6.437,34.293-0.035c7.629-3.746,15.85-6.396,25.693-6.484c5.914-0.052,9.967,2.156,10.119,5.31
		c0.139,2.837-3.768,5.593-9.184,5.623c-6.547,0.04-11.484,1.88-16.232,4.348C431.676,455.536,422.844,458.51,412.098,457.879z"/>
	<path fill-rule="evenodd" clip-rule="evenodd" d="M328.053,140.525c4.613-0.002,9.234-0.164,13.84,0.039
		c6.398,0.283,10.631,4.432,10.785,10.217c0.154,5.92-3.682,10.69-10.018,10.969c-9.668,0.422-19.391,0.45-29.051-0.08
		c-6.779-0.369-10.619-5.366-10.15-11.559c0.422-5.563,4.938-9.406,11.445-9.564C319.286,140.441,323.67,140.527,328.053,140.525z"
		/>
	<g>
		<g>
			<path fill-rule="evenodd" clip-rule="evenodd" fill="none" d="M109.458,239.804c33.325,0,66.651,0,99.977,0
				c0,35.589,0,71.177,0,106.766c-33.325,0-66.651,0-99.977,0C109.458,310.98,109.458,275.393,109.458,239.804z M164.81,337.671
				l-0.045-0.028c-0.549,0.281-1.097,0.563-1.735,0.891c2.211,0.144,4.337-1.546,6.476-0.455c-0.358,0.486-0.612,0.831-1.019,1.383
				c2.389-0.248,2.389-0.248,2.898,0.866c-0.661,0.147-1.322,0.294-1.983,0.441c0.025,0.146,0.05,0.292,0.075,0.438
				c1.178-0.149,2.355-0.298,3.624-0.459c-0.117,0.642-0.176,0.965-0.288,1.576c2.413,0,4.669,0,7.201,0
				c-1.501-0.265-2.779-0.392-3.995-0.738c-0.858-0.245-1.758-0.644-2.421-1.224c-2.57-2.248-4.307-5.051-5.25-8.353
				c-2.274-7.964-2.371-16.221-3.323-24.361c-0.536-4.588-0.994-9.186-1.58-13.768c-0.294-2.297-0.794-4.568-1.201-6.852
				c0.427,0.068,0.554,0.22,0.583,0.389c0.914,5.276,1.948,10.536,2.686,15.838c0.628,4.517,0.822,9.092,1.377,13.62
				c0.489,3.994,1.182,7.964,1.84,11.936c0.617,3.721,2.264,7.008,4.744,9.797c0.905,1.019,2.226,1.964,3.517,2.276
				c2.202,0.532,4.529,0.56,6.809,0.738c0.28,0.021,0.59-0.333,1.087-0.636c-3.723-0.906-3.723-0.906-3.492-2.959
				c1.139,0.216,2.285,0.434,3.432,0.652c0.005-0.074,0.01-0.147,0.015-0.221c-1.105-0.598-2.212-1.196-3.317-1.794
				c0.075-0.159,0.15-0.318,0.226-0.478c3.771,2.893,7.981,3.166,12.377,2.348c-3.474-0.857-5.647-2.264-6.842-4.884
				c4.01,3.579,8.758,2.934,13.215,3.439c-1.883-0.501-3.822-0.684-5.751-0.939c-1.973-0.262-3.979-0.478-5.497-1.815
				c5.038,0.671,10.1,1.345,15.161,2.019c0.035-0.149,0.071-0.299,0.106-0.448c-3.999-0.941-7.999-1.883-11.998-2.824
				c0.028-0.156,0.058-0.313,0.086-0.468c3.662,0.479,7.323,0.958,10.984,1.438c0.028-0.158,0.057-0.315,0.085-0.473
				c-1.16-0.618-2.324-1.229-3.481-1.854c-5.003-2.696-7.107-7.512-9.009-12.438c-2.659-6.89-3.661-14.193-5.116-21.371
				c-1.589-7.839-2.919-15.714-9.235-21.508c-0.287-0.264-0.298-1.038-0.174-1.504c0.656-2.468,0.666-4.818-0.592-7.153
				c-1.021-1.894-1.93-3.861-2.726-5.86c-2.143-5.387-4.879-10.411-8.69-14.81c-0.571-0.659-1.146-1.326-1.793-1.907
				c-1.648-1.482-3.083-1.504-4.535,0.188c-3.729,4.343-6.965,9.008-9.073,14.394c-0.877,2.239-1.839,4.467-3.007,6.563
				c-1.453,2.61-1.787,5.215-0.647,7.963c0.427,1.029,0.295,1.804-0.455,2.645c-2.97,3.327-4.854,7.25-5.91,11.548
				c-1.557,6.329-3.117,12.662-4.47,19.037c-1.225,5.771-2.845,11.336-6.137,16.325c-1.764,2.674-3.805,5.024-6.783,6.289
				c-1.974,0.838-3.3,2.818-5.601,3.042c-0.202,0.02-0.361,0.48-0.715,0.984c2.648-0.36,4.964-0.783,7.299-0.97
				c3.313-0.265,5.341-2.195,7.002-4.831c2.02-3.207,3.188-6.659,3.969-10.377c1.858-8.858,4.003-17.656,6.066-26.472
				c1.249-5.34,3.198-10.362,6.772-14.362c1.354,2.404,2.76,4.897,4.154,7.372c-0.705-0.522-1.503-1.114-2.302-1.705
				c-0.083,0.108-0.166,0.216-0.248,0.324c1.025,0.843,2.052,1.686,3.23,2.652c-0.647,1.14-1.297,2.282-1.851,3.257
				c0.623,0.168,1.192,0.322,1.956,0.528c-0.796,0.235-1.45,0.224-1.67,0.527c-1.072,1.479-0.728,2.76,0.716,3.864
				c-0.251-0.157-0.503-0.313-0.854-0.531c-0.078,0.38-0.141,0.686-0.202,0.983c-0.419-0.109-0.77-0.201-1.021-0.267
				c0.129,0.605,0.242,1.134,0.39,1.825c-0.641-0.134-1.012-0.212-1.493-0.313c0.274,0.396,0.478,0.69,0.715,1.033
				c-0.385,0.025-0.617,0.041-0.908,0.06c0.39,0.498,0.687,0.878,0.96,1.229c-0.484,0.301-0.887,0.551-1.294,0.804
				c0.496,0.321,0.893,0.578,1.488,0.963c-0.73,0-1.16,0-1.59,0c0.083,0.462,0.166,0.923,0.252,1.397
				c-0.202,0.051-0.467,0.118-0.948,0.239c0.527,0.3,0.861,0.489,1.24,0.705c-0.42,0.141-0.765,0.256-1.193,0.399
				c1.443,0.842,0.555,1.292-0.273,1.789c0.476,0.251,0.848,0.446,1.36,0.716c-0.521,0.188-0.857,0.31-1.342,0.484
				c0.404,0.247,0.632,0.387,0.957,0.585c-0.41,0.12-0.688,0.202-0.967,0.283c0.034,0.143,0.068,0.285,0.102,0.428
				c0.579-0.133,1.157-0.265,1.694-0.389c0.46,1.739-1.571,0.378-1.821,1.249c0.707,0.24,1.352,0.459,1.996,0.679
				c-0.738,0.242-1.306,0.147-1.809,0.286c-0.216,0.06-0.299,0.604-0.442,0.927c0.099,0.037,0.196,0.074,0.294,0.112
				c0.226-0.212,0.451-0.423,0.677-0.634c0.101,0.133,0.201,0.267,0.302,0.399c-0.542,0.383-1.084,0.767-1.641,1.16
				c0.985,0.551,0.798,0.924,0.149,1.26c-0.187,0.59-0.373,1.181-0.597,1.887c0.164,0.087,0.611,0.324,1.06,0.561
				c-0.019,0.066-0.036,0.132-0.054,0.197c-0.55-0.06-1.1-0.12-1.649-0.18c-0.034,0.106-0.068,0.213-0.103,0.319
				c0.581,0.239,1.163,0.479,1.769,0.729c-0.265,0.461-0.488,0.851-0.676,1.179c-0.521-0.072-0.945-0.132-1.37-0.191
				c-0.031,0.124-0.062,0.247-0.093,0.371c0.283,0.152,0.566,0.305,1.021,0.551c-0.397,0.638-0.788,1.265-1.231,1.976
				c0.027,0.022,0.31,0.247,0.831,0.661c-0.691,0-1.062,0-1.609,0c0.432,0.475,0.723,0.795,0.798,0.878
				c-0.513,1.687-0.953,3.139-1.446,4.761c0.09-0.011-0.207,0.024-0.829,0.098c0.685,0.445,1.084,0.704,1.668,1.084
				c-0.769-0.155-1.27-0.256-1.771-0.357c-0.035,0.095-0.071,0.19-0.107,0.285c0.195,0.172,0.39,0.344,0.32,0.283
				c-0.413,0.959-0.775,1.803-1.137,2.641c0.222,0.198,0.444,0.398,0.668,0.599c-0.042,0.061-0.083,0.12-0.125,0.181
				c-0.315-0.107-0.631-0.215-0.883-0.302c-0.726,1.268-1.441,2.519-2.251,3.935c0.177,0.03-0.094-0.017-0.517-0.089
				c0.197,0.273,0.303,0.419,0.233,0.323c-2.837,2.902-6.017,5.27-10.11,6.172c3.405,0.468,6.58-0.884,10.17-0.894
				c-0.643,0.499-1.15,0.894-1.924,1.495c2.599,0.292,4.535-0.5,6.365-1.794c4.068-2.876,5.901-7.147,7.135-11.698
				c2.529-9.333,2.885-18.996,4.106-28.527c0.049-0.379,0.103-0.758,0.156-1.154c0.893,0.217,1.012,0.42,0.675,1.256
				c-0.315,0.78,0.068,1.82,0.016,2.738c-0.025,0.441-0.495,0.865-0.5,1.299c-0.007,0.714,0.201,1.429,0.318,2.144
				c0.399-0.211,0.799-0.422,1.161-0.613c-0.388,0.595-0.811,1.245-1.29,1.982c0.019,0.007-0.263-0.103-0.544-0.213
				c-0.063,0.1-0.124,0.2-0.186,0.3c0.464,0.363,0.928,0.728,1.466,1.149c-0.429,0.081-0.718,0.136-0.607,0.115
				c-0.241,1.633-0.454,3.074-0.709,4.802c0.011,0.18,0.052,0.638,0.063,1.098c0.014,0.549,0.003,1.099,0.003,1.648
				c-0.096-0.03-0.193-0.061-0.29-0.091c-0.108,0.509-0.218,1.018-0.352,1.644c0.139-0.021-0.113,0.018-0.528,0.08
				c0.409,0.373,0.662,0.603,0.984,0.896c-0.421,0.03-0.668,0.048-1.209,0.087c0.572,0.387,0.883,0.597,1.364,0.923
				c-0.543,0-0.876,0-1.246,0c0.794,1.235-1.215,2.693,0.131,3.589c-0.275,0.396-0.649,0.728-0.765,1.131
				c-0.59,2.085-1.139,4.182-1.643,6.288c-0.122,0.51-0.019,1.072-0.019,1.612c-0.2-0.075-0.45-0.171-0.928-0.352
				c0.253,0.517,0.398,0.813,0.435,0.888c-1.588,2.264-3.006,4.518-4.661,6.58c-1.859,2.319-4.74,2.883-7.46,3.667
				c3.604-0.257,7.143-0.597,10.649-1.149c1.001-0.157,2.205-0.7,2.793-1.468c1.38-1.8,2.834-3.706,3.563-5.811
				c2.396-6.921,2.634-14.234,3.368-21.446c0.57-5.602,0.996-11.22,1.661-16.81c0.235-1.984,0.986-3.908,1.502-5.859
				c0.25,0.991,0.155,1.902,0.022,2.808c-0.433,2.945-1.009,5.877-1.295,8.837c-0.81,8.353-1.384,16.729-2.284,25.072
				c-0.546,5.059-1.686,10.009-5.534,14.222c1.428-0.211,2.553-0.379,3.678-0.545c-0.017-0.1-0.033-0.198-0.05-0.298
				c-0.467,0-0.933,0-1.398,0c-0.023-0.168-0.046-0.336-0.068-0.504c2.657-1.178,5.764,0.208,8.705-1.089c-2.709,0-5.119,0-7.528,0
				c-0.007-0.153-0.014-0.307-0.021-0.461C158.044,337.854,161.427,337.763,164.81,337.671z M122.361,338.337
				c0.008,0.196,0.017,0.393,0.025,0.589c0.494,0,0.992,0.044,1.48-0.008c1.531-0.164,3.074-0.281,4.58-0.579
				c1.109-0.22,2.306-0.485,3.229-1.09c4.844-3.173,7.468-7.946,8.938-13.352c2.582-9.485,4.54-19.095,4.98-28.956
				c0.026-0.591,0.114-1.178,0.174-1.767c-0.131-0.017-0.263-0.033-0.394-0.05c-0.291,1.352-0.581,2.702-0.886,4.12
				c-0.377-0.297-0.616-0.486-0.856-0.676c-0.14,0.07-0.278,0.141-0.418,0.211c0.274,0.913,0.55,1.827,0.832,2.764
				c-0.458-0.138-1.418-0.818-1.129,0.461c-0.554-0.333-1.146-0.689-1.739-1.046c-0.017,0.059-0.034,0.118-0.051,0.178
				c0.886,1.016,1.771,2.033,2.843,3.262c-0.593-0.031-0.876-0.046-1.233-0.064c0.186,0.382,0.311,0.639,0.435,0.895
				c-0.156,0.04-0.314,0.08-0.472,0.119c-0.102-0.73-0.204-1.461-0.307-2.192c-0.066,0.005-0.133,0.01-0.199,0.015
				c-0.026,0.305-0.053,0.609-0.092,1.065c-0.423-0.337-0.734-0.585-1.251-0.997c0.061,0.867,0.102,1.457,0.146,2.095
				c-0.396-0.104-0.978-0.256-1.848-0.484c0.378,0.496,0.646,0.847,0.996,1.309c-0.516,0.06-0.942,0.11-1.37,0.16
				c-0.008,0.097-0.016,0.192-0.023,0.289c0.681,0.104,1.36,0.209,2.041,0.313c0.01,0.094,0.02,0.188,0.029,0.281
				c-0.696,0.133-1.392,0.266-2.098,0.4c0.13,0.584,0.244,1.097,0.355,1.595c-0.369,0.022-0.625,0.038-0.592,0.036
				c-0.045,0.596-0.075,1.005-0.108,1.448c0.405,0.368,0.908,0.826,1.411,1.283c-0.044,0.023-0.089,0.047-0.133,0.069
				c-0.682-0.362-1.364-0.725-2.379-1.265c0.907,1.015,1.527,1.708,2.146,2.4c-0.114,0.094-0.228,0.188-0.342,0.282
				c-0.338-0.442-0.676-0.885-0.899-1.178c-0.363,0.645-0.71,1.262-1.089,1.934c0.222,0.13,0.776,0.455,1.33,0.779
				c-0.035,0.08-0.071,0.159-0.106,0.238c-0.456-0.087-0.911-0.174-1.507-0.288c0.693,0.768,1.245,1.378,1.914,2.118
				c-0.616-0.093-1.034-0.156-1.313-0.198c-0.752,1.62-1.438,3.101-2.18,4.696c0.805,0.876-0.442,1.498-1.128,2.575
				c0.688,0.038,1.22,0.067,1.739,0.097c0,0.177,0,0.507,0,0.837c-0.092-0.128-0.185-0.256-0.277-0.384
				c-0.614,0.3-1.229,0.601-1.927,0.942c0.513,0.569,0.817,0.908,1.122,1.246c-0.075,0.08-0.149,0.159-0.225,0.239
				c-0.307-0.229-0.614-0.457-0.94-0.7c-0.763,1.509-1.475,2.915-2.243,4.437c0.166,0.196,0.539,0.636,1.171,1.382
				c-0.98-0.438-1.589-0.71-2.407-1.075c0.307,0.645,0.478,1.003,0.627,1.317c-0.521,0-1.252-0.063-1.265,0.01
				c-0.122,0.655-0.12,1.334-0.159,2.104c-0.472,0.073-1.075,0.168-1.676,0.261c0.08,0.209,0.16,0.419,0.291,0.761
				c-0.488-0.19-0.816-0.319-1.144-0.447c-0.05,0.094-0.099,0.187-0.148,0.28c0.563,0.469,1.127,0.938,1.69,1.406
				c-0.823,0.037-1.474-0.393-2.108-0.371c-1.346,0.046-2.681,0.36-4.026,0.503c-1.126,0.119-2.262,0.15-3.394,0.221
				c0.003,0.105,0.005,0.211,0.008,0.316c2.775,0,5.551,0,8.326,0c0.006,0.171,0.012,0.341,0.018,0.511
				c-2.212,0.271-4.424,0.543-6.636,0.814c-0.001,0.124-0.002,0.248-0.003,0.372c2.758,0,5.517,0,8.275,0
				c-0.001,0.149-0.002,0.3-0.004,0.449C126.648,337.883,124.504,338.109,122.361,338.337z M152.035,341.945
				c-0.061-0.242-0.121-0.484-0.182-0.727c-1.213,0.312-2.426,0.622-3.639,0.933c0.048,0.188,0.096,0.378,0.143,0.566
				C149.583,342.46,150.809,342.203,152.035,341.945z M162.818,339.847c-0.027,0.105-0.055,0.211-0.082,0.316
				c1.813-0.334,3.626-0.668,5.439-1.001c-0.028-0.155-0.057-0.311-0.086-0.466C166.333,339.08,164.575,339.463,162.818,339.847z"/>
			<path fill-rule="evenodd" clip-rule="evenodd" d="M164.81,337.671c-3.383,0.092-6.766,0.184-10.149,0.274
				c0.007,0.154,0.014,0.308,0.021,0.461c2.409,0,4.819,0,7.528,0c-2.941,1.297-6.048-0.089-8.705,1.089
				c0.022,0.168,0.045,0.336,0.068,0.504c0.466,0,0.932,0,1.398,0c0.017,0.1,0.033,0.198,0.05,0.298
				c-1.125,0.166-2.25,0.334-3.678,0.545c3.849-4.213,4.988-9.163,5.534-14.222c0.9-8.343,1.475-16.72,2.284-25.072
				c0.286-2.96,0.862-5.892,1.295-8.837c0.133-0.905,0.228-1.816-0.022-2.808c-0.516,1.951-1.267,3.875-1.502,5.859
				c-0.665,5.59-1.091,11.208-1.661,16.81c-0.734,7.212-0.973,14.525-3.368,21.446c-0.729,2.104-2.183,4.011-3.563,5.811
				c-0.588,0.768-1.792,1.311-2.793,1.468c-3.507,0.553-7.046,0.893-10.649,1.149c2.72-0.784,5.601-1.348,7.46-3.667
				c1.655-2.063,3.073-4.316,4.661-6.58c-0.036-0.074-0.182-0.371-0.435-0.888c0.478,0.181,0.728,0.276,0.928,0.352
				c0-0.54-0.104-1.103,0.019-1.612c0.504-2.106,1.053-4.203,1.643-6.288c0.115-0.403,0.489-0.734,0.765-1.131
				c-1.346-0.896,0.663-2.354-0.131-3.589c0.37,0,0.703,0,1.246,0c-0.481-0.326-0.792-0.536-1.364-0.923
				c0.541-0.039,0.788-0.057,1.209-0.087c-0.322-0.294-0.575-0.523-0.984-0.896c0.415-0.063,0.667-0.101,0.528-0.08
				c0.134-0.626,0.243-1.135,0.352-1.644c0.097,0.03,0.194,0.061,0.29,0.091c0-0.55,0.011-1.1-0.003-1.648
				c-0.012-0.46-0.053-0.918-0.063-1.098c0.255-1.728,0.468-3.169,0.709-4.802c-0.11,0.021,0.179-0.034,0.607-0.115
				c-0.538-0.422-1.002-0.786-1.466-1.149c0.062-0.1,0.123-0.2,0.186-0.3c0.281,0.11,0.563,0.22,0.544,0.213
				c0.479-0.737,0.902-1.388,1.29-1.982c-0.362,0.191-0.762,0.402-1.161,0.613c-0.117-0.715-0.325-1.43-0.318-2.144
				c0.005-0.434,0.475-0.857,0.5-1.299c0.053-0.918-0.331-1.958-0.016-2.738c0.337-0.836,0.218-1.039-0.675-1.256
				c-0.054,0.396-0.107,0.775-0.156,1.154c-1.222,9.531-1.577,19.194-4.106,28.527c-1.233,4.551-3.066,8.822-7.135,11.698
				c-1.83,1.294-3.767,2.086-6.365,1.794c0.773-0.602,1.281-0.996,1.924-1.495c-3.59,0.01-6.765,1.361-10.17,0.894
				c4.094-0.902,7.273-3.27,10.11-6.172c0.069,0.096-0.036-0.05-0.233-0.323c0.423,0.072,0.693,0.119,0.517,0.089
				c0.81-1.416,1.525-2.667,2.251-3.935c0.252,0.087,0.567,0.194,0.883,0.302c0.042-0.061,0.083-0.12,0.125-0.181
				c-0.224-0.2-0.446-0.4-0.668-0.599c0.361-0.838,0.724-1.682,1.137-2.641c0.069,0.061-0.125-0.111-0.32-0.283
				c0.036-0.095,0.072-0.19,0.107-0.285c0.501,0.102,1.002,0.202,1.771,0.357c-0.584-0.38-0.983-0.639-1.668-1.084
				c0.622-0.073,0.919-0.108,0.829-0.098c0.493-1.622,0.934-3.074,1.446-4.761c-0.075-0.083-0.366-0.403-0.798-0.878
				c0.548,0,0.918,0,1.609,0c-0.521-0.414-0.804-0.639-0.831-0.661c0.443-0.711,0.834-1.338,1.231-1.976
				c-0.455-0.246-0.738-0.398-1.021-0.551c0.031-0.124,0.062-0.247,0.093-0.371c0.425,0.06,0.849,0.119,1.37,0.191
				c0.188-0.328,0.411-0.718,0.676-1.179c-0.605-0.249-1.188-0.489-1.769-0.729c0.034-0.106,0.068-0.213,0.103-0.319
				c0.55,0.06,1.1,0.12,1.649,0.18c0.018-0.065,0.035-0.131,0.054-0.197c-0.448-0.236-0.896-0.474-1.06-0.561
				c0.224-0.706,0.41-1.297,0.597-1.887c0.648-0.336,0.836-0.709-0.149-1.26c0.557-0.394,1.099-0.777,1.641-1.16
				c-0.101-0.133-0.201-0.267-0.302-0.399c-0.226,0.211-0.451,0.422-0.677,0.634c-0.098-0.038-0.195-0.075-0.294-0.112
				c0.144-0.323,0.227-0.867,0.442-0.927c0.503-0.139,1.07-0.044,1.809-0.286c-0.645-0.22-1.289-0.438-1.996-0.679
				c0.25-0.871,2.281,0.49,1.821-1.249c-0.537,0.124-1.115,0.256-1.694,0.389c-0.033-0.143-0.067-0.285-0.102-0.428
				c0.278-0.081,0.557-0.163,0.967-0.283c-0.325-0.198-0.553-0.338-0.957-0.585c0.484-0.175,0.82-0.296,1.342-0.484
				c-0.513-0.27-0.885-0.465-1.36-0.716c0.828-0.497,1.717-0.947,0.273-1.789c0.429-0.144,0.773-0.259,1.193-0.399
				c-0.379-0.216-0.713-0.405-1.24-0.705c0.481-0.121,0.746-0.188,0.948-0.239c-0.086-0.475-0.169-0.936-0.252-1.397
				c0.43,0,0.859,0,1.59,0c-0.596-0.385-0.992-0.642-1.488-0.963c0.407-0.253,0.81-0.503,1.294-0.804
				c-0.273-0.351-0.57-0.73-0.96-1.229c0.291-0.019,0.523-0.034,0.908-0.06c-0.237-0.343-0.44-0.637-0.715-1.033
				c0.481,0.101,0.853,0.179,1.493,0.313c-0.147-0.691-0.261-1.22-0.39-1.825c0.251,0.065,0.602,0.157,1.021,0.267
				c0.062-0.298,0.124-0.604,0.202-0.983c0.351,0.218,0.603,0.374,0.854,0.531c-1.443-1.104-1.788-2.386-0.716-3.864
				c0.22-0.304,0.874-0.292,1.67-0.527c-0.764-0.206-1.333-0.36-1.956-0.528c0.554-0.975,1.203-2.117,1.851-3.257
				c-1.179-0.967-2.205-1.81-3.23-2.652c0.082-0.108,0.165-0.216,0.248-0.324c0.799,0.591,1.597,1.183,2.302,1.705
				c-1.395-2.475-2.8-4.968-4.154-7.372c-3.574,4-5.523,9.022-6.772,14.362c-2.063,8.815-4.208,17.613-6.066,26.472
				c-0.78,3.718-1.949,7.17-3.969,10.377c-1.661,2.636-3.688,4.566-7.002,4.831c-2.335,0.187-4.65,0.609-7.299,0.97
				c0.354-0.504,0.513-0.965,0.715-0.984c2.301-0.224,3.627-2.204,5.601-3.042c2.979-1.265,5.02-3.615,6.783-6.289
				c3.292-4.989,4.912-10.554,6.137-16.325c1.353-6.375,2.913-12.708,4.47-19.037c1.057-4.298,2.94-8.221,5.91-11.548
				c0.75-0.841,0.882-1.615,0.455-2.645c-1.14-2.748-0.806-5.353,0.647-7.963c1.168-2.097,2.13-4.324,3.007-6.563
				c2.108-5.386,5.345-10.051,9.073-14.394c1.452-1.691,2.887-1.67,4.535-0.188c0.646,0.581,1.222,1.248,1.793,1.907
				c3.812,4.398,6.548,9.423,8.69,14.81c0.796,1.999,1.705,3.967,2.726,5.86c1.258,2.335,1.248,4.686,0.592,7.153
				c-0.124,0.466-0.113,1.24,0.174,1.504c6.316,5.794,7.646,13.669,9.235,21.508c1.455,7.178,2.457,14.481,5.116,21.371
				c1.901,4.927,4.006,9.742,9.009,12.438c1.157,0.624,2.321,1.235,3.481,1.854c-0.028,0.157-0.057,0.314-0.085,0.473
				c-3.661-0.479-7.322-0.959-10.984-1.438c-0.028,0.155-0.058,0.312-0.086,0.468c3.999,0.941,7.999,1.883,11.998,2.824
				c-0.035,0.149-0.071,0.299-0.106,0.448c-5.062-0.674-10.123-1.348-15.161-2.019c1.519,1.338,3.524,1.554,5.497,1.815
				c1.929,0.256,3.868,0.438,5.751,0.939c-4.457-0.506-9.205,0.14-13.215-3.439c1.194,2.62,3.368,4.026,6.842,4.884
				c-4.396,0.818-8.606,0.545-12.377-2.348c-0.075,0.159-0.15,0.318-0.226,0.478c1.105,0.598,2.212,1.196,3.317,1.794
				c-0.005,0.073-0.01,0.146-0.015,0.221c-1.146-0.219-2.293-0.437-3.432-0.652c-0.23,2.053-0.23,2.053,3.492,2.959
				c-0.497,0.303-0.807,0.657-1.087,0.636c-2.279-0.179-4.606-0.206-6.809-0.738c-1.291-0.313-2.611-1.258-3.517-2.276
				c-2.48-2.789-4.127-6.076-4.744-9.797c-0.658-3.972-1.351-7.941-1.84-11.936c-0.555-4.528-0.749-9.104-1.377-13.62
				c-0.737-5.302-1.771-10.562-2.686-15.838c-0.029-0.169-0.156-0.32-0.583-0.389c0.407,2.283,0.907,4.555,1.201,6.852
				c0.586,4.582,1.044,9.18,1.58,13.768c0.952,8.141,1.049,16.397,3.323,24.361c0.943,3.302,2.68,6.104,5.25,8.353
				c0.663,0.58,1.563,0.979,2.421,1.224c1.216,0.347,2.494,0.474,3.995,0.738c-2.532,0-4.788,0-7.201,0
				c0.112-0.611,0.171-0.935,0.288-1.576c-1.269,0.161-2.446,0.31-3.624,0.459c-0.025-0.146-0.05-0.292-0.075-0.438
				c0.661-0.147,1.322-0.294,1.983-0.439c-0.51-1.116-0.51-1.116-2.898-0.868c0.406-0.552,0.66-0.896,1.019-1.383
				c-2.139-1.091-4.265,0.599-6.476,0.455c0.639-0.327,1.187-0.609,1.732-0.892c1.42-0.163,2.842-0.326,4.264-0.488
				c-0.004-0.165-0.009-0.331-0.013-0.496c-4.424-0.326-8.848-0.353-13.284,0.343c0.359,0.198,0.729,0.304,1.101,0.303
				c2.139-0.008,4.277-0.068,6.415-0.043C163.768,337.266,164.289,337.527,164.81,337.671z M151.568,267.743l-0.028-0.033
				c-0.359,1.605-1.245,3.318-0.945,4.79c0.372,1.823,1.037,3.746,2.505,5.245c2.84,2.901,5.538,5.942,8.447,9.089
				c-0.418-0.955-0.622-1.98-1.215-2.671c-1.804-2.103-3.805-4.033-5.64-6.109c-2.113-2.392-3.643-5.1-2.597-8.401
				c1.479-4.668,4.165-8.667,7.437-12.277c0.771-0.851,1.738-0.876,2.651-0.275c0.634,0.417,1.302,0.903,1.712,1.52
				c1.955,2.938,3.966,5.854,5.689,8.929c1.661,2.962,1.57,5.97-0.694,8.742c-1.852,2.265-3.688,4.547-5.415,6.906
				c-0.579,0.792-0.802,1.845-1.187,2.779c2.828-3.174,5.472-6.328,8.089-9.504c0.457-0.555,1.175-1.219,1.141-1.796
				c-0.121-2.076,0.718-4.242-0.532-6.233c-2.334-3.719-4.579-7.494-6.979-11.169c-0.805-1.231-2.114-2.124-3.688-1.707
				c-0.957,0.254-1.785,0.995-2.642,1.5c-0.287-0.459-0.642-1.025-0.997-1.592c0.064-0.05,0.128-0.099,0.191-0.148
				c0.396,0.361,0.792,0.723,1.188,1.084c0.063-0.049,0.128-0.098,0.191-0.146c-0.227-0.504-0.452-1.008-0.678-1.512
				c0.106-0.055,0.213-0.108,0.319-0.163c0.261,0.349,0.521,0.697,0.625,0.835c1.166-0.349,2.222-0.665,3.437-1.029
				c-0.197-1.59-2.18-0.853-3.21-2.005c0.954,0.116,1.665,0.203,2.128,0.259c0-2.231,0-4.576,0-7.428
				c-1.092,0.918-1.933,1.472-2.584,2.195c-5.422,6.027-8.34,13.442-11.35,20.787c-0.444,1.084-0.856,2.435,0.234,3.545
				c1.104,4.652,4.861,10.285,7.599,11.591c-1.073-1.286-2.354-2.642-3.416-4.15c-0.908-1.289-1.604-2.736-2.297-4.161
				c-0.1-0.204,0.354-0.674,0.543-1.025c0.032-0.061,0.016-0.146,0.031-0.333c-0.407,0.143-0.755,0.265-1.202,0.421
				c-0.242-0.775-0.462-1.479-0.681-2.182c0.198-0.563,0.396-1.126,0.588-1.671c0.339,0.23,0.817,0.556,1.327,0.901
				c-0.395-0.83-0.775-1.632-1.151-2.423c0.788-0.216,1.307-0.357,1.787-0.489c-0.028-0.482-0.059-1.005-0.1-1.695
				C150.772,267.037,151.169,267.391,151.568,267.743z M156.49,335.632c3.86,0,7.721,0,11.581,0
				c-0.001-0.133-0.001-0.267-0.001-0.399C164.211,334.334,160.358,335.466,156.49,335.632z M184.415,325.138
				c0.595,3.034,1.82,5.214,3.073,5.95C186.526,329.225,185.47,327.182,184.415,325.138z M145.792,338.903
				c-0.072-0.029-0.145-0.059-0.216-0.088c-0.82,0.7-1.64,1.399-2.738,2.337c1.916-0.021,3.24-0.303,4.161-2.008
				c-0.973,0.658-1.721,1.163-2.469,1.669c-0.061-0.088-0.121-0.176-0.181-0.264C144.83,340.001,145.31,339.452,145.792,338.903z
				 M153.744,294.172c-0.452,3.055-0.452,3.055,0.294,3.238c0-0.693,0-1.395,0-2.137c0.416,0.135,0.68,0.22,1.389,0.448
				C154.697,295.05,154.297,294.682,153.744,294.172z"/>
			<path fill-rule="evenodd" clip-rule="evenodd" d="M122.361,338.337c2.144-0.228,4.287-0.454,6.431-0.682
				c0.002-0.149,0.003-0.3,0.004-0.449c-2.759,0-5.518,0-8.275,0c0.001-0.124,0.002-0.248,0.003-0.372
				c2.212-0.271,4.424-0.543,6.636-0.814c-0.006-0.17-0.012-0.34-0.018-0.511c-2.775,0-5.551,0-8.326,0
				c-0.003-0.105-0.005-0.211-0.008-0.316c1.132-0.07,2.268-0.102,3.394-0.221c1.346-0.143,2.681-0.457,4.026-0.503
				c0.635-0.021,1.285,0.408,2.108,0.371c-0.563-0.469-1.127-0.938-1.69-1.406c0.05-0.094,0.099-0.187,0.148-0.28
				c0.327,0.128,0.655,0.257,1.144,0.447c-0.131-0.342-0.211-0.552-0.293-0.76c0.603-0.094,1.206-0.188,1.678-0.262
				c0.039-0.77,0.037-1.448,0.159-2.104c0.013-0.072,0.743-0.01,1.265-0.01c-0.149-0.314-0.32-0.673-0.627-1.317
				c0.818,0.365,1.427,0.637,2.407,1.075c-0.632-0.746-1.005-1.186-1.171-1.382c0.769-1.521,1.48-2.928,2.243-4.437
				c0.326,0.243,0.634,0.472,0.94,0.7c0.075-0.08,0.149-0.159,0.225-0.239c-0.305-0.338-0.609-0.677-1.122-1.246
				c0.698-0.342,1.313-0.643,1.927-0.942c0.093,0.128,0.186,0.256,0.277,0.384c0-0.33,0-0.66,0-0.837
				c-0.52-0.029-1.051-0.059-1.739-0.097c0.686-1.077,1.933-1.699,1.128-2.575c0.741-1.596,1.428-3.076,2.18-4.696
				c0.279,0.042,0.697,0.105,1.313,0.198c-0.669-0.74-1.221-1.351-1.914-2.118c0.596,0.114,1.051,0.201,1.507,0.288
				c0.035-0.079,0.071-0.158,0.106-0.238c-0.554-0.324-1.108-0.649-1.33-0.779c0.379-0.672,0.726-1.289,1.089-1.934
				c0.224,0.293,0.562,0.735,0.899,1.178c0.114-0.094,0.228-0.188,0.342-0.282c-0.619-0.692-1.239-1.386-2.146-2.4
				c1.015,0.54,1.697,0.902,2.379,1.265c0.044-0.022,0.089-0.046,0.133-0.069c-0.503-0.457-1.006-0.915-1.411-1.283
				c0.033-0.443,0.063-0.853,0.108-1.448c-0.033,0.002,0.223-0.014,0.592-0.036c-0.111-0.498-0.226-1.011-0.355-1.595
				c0.706-0.135,1.401-0.268,2.098-0.4c-0.01-0.094-0.02-0.188-0.029-0.281c-0.681-0.104-1.36-0.209-2.041-0.313
				c0.008-0.097,0.016-0.192,0.023-0.289c0.428-0.05,0.854-0.101,1.37-0.16c-0.351-0.462-0.618-0.813-0.996-1.309
				c0.87,0.229,1.451,0.381,1.848,0.484c-0.045-0.638-0.086-1.228-0.146-2.095c0.517,0.412,0.828,0.66,1.251,0.997
				c0.039-0.456,0.065-0.761,0.092-1.065c0.066-0.005,0.133-0.01,0.199-0.015c0.103,0.731,0.205,1.462,0.307,2.192
				c0.157-0.039,0.315-0.079,0.472-0.119c-0.124-0.256-0.249-0.513-0.435-0.895c0.357,0.019,0.641,0.033,1.233,0.064
				c-1.071-1.229-1.957-2.246-2.843-3.262c0.017-0.06,0.034-0.119,0.051-0.178c0.593,0.356,1.186,0.713,1.739,1.046
				c-0.289-1.279,0.671-0.599,1.129-0.461c-0.282-0.937-0.558-1.851-0.832-2.764c0.14-0.07,0.278-0.141,0.418-0.211
				c0.24,0.189,0.479,0.379,0.856,0.676c0.305-1.418,0.595-2.769,0.886-4.12c0.131,0.017,0.263,0.033,0.394,0.05
				c-0.06,0.589-0.147,1.176-0.174,1.767c-0.44,9.861-2.398,19.471-4.98,28.956c-1.471,5.405-4.095,10.179-8.938,13.352
				c-0.923,0.604-2.119,0.87-3.229,1.09c-1.506,0.298-3.049,0.415-4.58,0.579c-0.488,0.052-0.986,0.008-1.48,0.008
				C122.377,338.729,122.369,338.533,122.361,338.337z"/>
			<path fill-rule="evenodd" clip-rule="evenodd" d="M152.035,341.945c-1.226,0.258-2.451,0.515-3.678,0.772
				c-0.047-0.188-0.095-0.378-0.143-0.566c1.213-0.311,2.426-0.621,3.639-0.933C151.914,341.461,151.974,341.703,152.035,341.945z"
				/>
			<path fill-rule="evenodd" clip-rule="evenodd" d="M162.818,339.847c1.757-0.384,3.515-0.767,5.271-1.15
				c0.029,0.155,0.058,0.311,0.086,0.466c-1.813,0.333-3.626,0.667-5.439,1.001C162.763,340.058,162.791,339.952,162.818,339.847z"
				/>
			<path fill-rule="evenodd" clip-rule="evenodd" fill="none" d="M147.171,271.748c-1.091-1.11-0.679-2.461-0.234-3.545
				c3.01-7.345,5.928-14.76,11.35-20.787c0.651-0.724,1.492-1.277,2.584-2.195c0,2.852,0,5.196,0,7.428
				c-0.463-0.056-1.174-0.143-2.128-0.259c1.03,1.152,3.013,0.415,3.21,2.005c-1.215,0.364-2.271,0.681-3.437,1.029
				c-0.104-0.138-0.364-0.486-0.625-0.835c-0.106,0.055-0.213,0.108-0.319,0.163c0.226,0.504,0.451,1.008,0.678,1.512
				c-0.063,0.049-0.128,0.098-0.191,0.146c-0.396-0.361-0.792-0.723-1.188-1.084c-0.063,0.05-0.127,0.099-0.191,0.148
				c0.355,0.566,0.71,1.133,0.997,1.592c0.856-0.505,1.685-1.246,2.642-1.5c1.574-0.417,2.884,0.476,3.688,1.707
				c2.4,3.675,4.646,7.45,6.979,11.169c1.25,1.991,0.411,4.157,0.532,6.233c0.034,0.577-0.684,1.241-1.141,1.796
				c-2.617,3.176-5.261,6.33-8.089,9.504c0.385-0.935,0.607-1.987,1.187-2.779c1.728-2.359,3.563-4.642,5.415-6.906
				c2.265-2.772,2.355-5.78,0.694-8.742c-1.724-3.074-3.734-5.99-5.689-8.929c-0.41-0.616-1.078-1.103-1.712-1.52
				c-0.913-0.601-1.881-0.575-2.651,0.275c-3.271,3.61-5.957,7.609-7.437,12.277c-1.046,3.302,0.483,6.01,2.597,8.401
				c1.835,2.076,3.836,4.007,5.64,6.109c0.593,0.69,0.797,1.716,1.215,2.671c-2.909-3.146-5.607-6.188-8.447-9.089
				c-1.468-1.499-2.133-3.422-2.505-5.245c-0.3-1.472,0.586-3.185,0.939-4.797c0.442-1.267-0.34-2.899-1.977-3.955
				c0.237,0.46,0.426,0.826,0.677,1.314c-0.484-0.072-0.811-0.122-0.717-0.107c0.602,0.817,1.326,1.803,2.051,2.788
				c-0.398-0.353-0.796-0.706-1.368-1.212c0.041,0.69,0.071,1.213,0.1,1.695c-0.48,0.132-0.999,0.273-1.787,0.489
				c0.376,0.791,0.757,1.593,1.151,2.423c-0.51-0.346-0.988-0.671-1.327-0.901c-0.191,0.545-0.39,1.108-0.588,1.671
				C147.556,271.854,147.364,271.801,147.171,271.748z M153.755,262.213c-0.052,0.075-0.104,0.149-0.157,0.224
				c-0.262-0.205-0.523-0.411-1.004-0.788c0.107,0.838,0.178,1.39,0.249,1.941c-0.068,0.022-0.138,0.045-0.206,0.067
				c-0.398-0.659-0.797-1.317-1.195-1.976c-0.182,0.098-0.363,0.195-0.546,0.293c0.266,1.074,1.348,1.731,1.88,2.797
				c0.631-1.14,1.195-2.16,1.761-3.183c-0.438-0.398-0.808-0.736-1.179-1.075c-0.083,0.058-0.165,0.114-0.248,0.172
				C153.326,261.194,153.541,261.704,153.755,262.213z M157.333,257.682c-0.466-0.552-0.946-1.121-1.427-1.69
				c-0.077,0.06-0.153,0.12-0.23,0.18c0.325,0.561,0.649,1.122,0.975,1.683c-0.127,0.1-0.253,0.198-0.379,0.298
				c-0.266-0.495-0.53-0.991-0.795-1.486c-0.149,0.123-0.298,0.246-0.446,0.368c0.317,0.516,0.635,1.031,0.999,1.622
				c-0.465,0.438-0.942,0.887-1.415,1.332C155.381,260.547,155.381,260.547,157.333,257.682z"/>
			<path fill-rule="evenodd" clip-rule="evenodd" fill="none" d="M164.81,337.671c-0.521-0.144-1.042-0.405-1.565-0.411
				c-2.138-0.025-4.276,0.035-6.415,0.043c-0.371,0.001-0.741-0.104-1.101-0.303c4.437-0.695,8.86-0.669,13.284-0.343
				c0.004,0.165,0.009,0.331,0.013,0.496c-1.422,0.162-2.844,0.325-4.264,0.488C164.765,337.643,164.81,337.671,164.81,337.671z"/>
			<path fill-rule="evenodd" clip-rule="evenodd" fill="none" d="M147.171,271.748c0.192,0.053,0.385,0.106,0.577,0.16
				c0.219,0.703,0.438,1.406,0.681,2.182c0.447-0.156,0.795-0.278,1.202-0.421c-0.016,0.187,0.001,0.272-0.031,0.333
				c-0.188,0.352-0.643,0.821-0.543,1.025c0.692,1.425,1.389,2.872,2.297,4.161c1.063,1.509,2.343,2.864,3.416,4.15
				C152.033,282.033,148.276,276.4,147.171,271.748z"/>
			<path fill-rule="evenodd" clip-rule="evenodd" fill="none" d="M156.49,335.632c3.868-0.166,7.722-1.298,11.58-0.399
				c0,0.133,0,0.267,0.001,0.399C164.21,335.632,160.35,335.632,156.49,335.632z"/>
			<path fill-rule="evenodd" clip-rule="evenodd" fill="none" d="M184.415,325.138c1.056,2.044,2.111,4.087,3.073,5.95
				C186.235,330.352,185.009,328.172,184.415,325.138z"/>
			<path fill-rule="evenodd" clip-rule="evenodd" fill="none" d="M145.792,338.903c-0.481,0.549-0.962,1.098-1.442,1.646
				c0.06,0.088,0.12,0.176,0.181,0.264c0.748-0.506,1.496-1.011,2.469-1.669c-0.921,1.705-2.245,1.986-4.161,2.008
				c1.099-0.938,1.918-1.637,2.738-2.337C145.647,338.845,145.719,338.874,145.792,338.903z"/>
			<path fill-rule="evenodd" clip-rule="evenodd" fill="none" d="M153.744,294.172c0.554,0.51,0.953,0.878,1.683,1.55
				c-0.709-0.229-0.973-0.313-1.389-0.448c0,0.742,0,1.443,0,2.137C153.292,297.227,153.292,297.227,153.744,294.172z"/>
			<path fill-rule="evenodd" clip-rule="evenodd" d="M153.755,262.213c-0.215-0.509-0.43-1.019-0.646-1.527
				c0.083-0.058,0.165-0.114,0.248-0.172c0.371,0.339,0.741,0.677,1.179,1.075c-0.565,1.022-1.13,2.043-1.761,3.183
				c-0.532-1.065-1.614-1.723-1.88-2.797c0.183-0.098,0.364-0.195,0.546-0.293c0.398,0.658,0.797,1.316,1.195,1.976
				c0.068-0.022,0.138-0.045,0.206-0.067c-0.071-0.552-0.142-1.104-0.249-1.941c0.48,0.377,0.742,0.583,1.004,0.788
				C153.651,262.362,153.704,262.288,153.755,262.213z"/>
			<path fill-rule="evenodd" clip-rule="evenodd" d="M157.333,257.682c-1.952,2.865-1.952,2.865-2.719,2.306
				c0.473-0.445,0.95-0.895,1.415-1.332c-0.364-0.591-0.682-1.106-0.999-1.622c0.148-0.122,0.297-0.245,0.446-0.368
				c0.265,0.495,0.529,0.991,0.795,1.486c0.126-0.1,0.252-0.198,0.379-0.298c-0.325-0.561-0.649-1.122-0.975-1.683
				c0.077-0.06,0.153-0.12,0.23-0.18C156.387,256.561,156.868,257.13,157.333,257.682z"/>
			<path fill-rule="evenodd" clip-rule="evenodd" d="M151.568,267.743c-0.725-0.985-1.449-1.971-2.051-2.788
				c-0.094-0.015,0.232,0.035,0.717,0.107c-0.251-0.488-0.439-0.854-0.677-1.314c1.637,1.056,2.419,2.688,1.977,3.955
				C151.54,267.71,151.568,267.743,151.568,267.743z"/>
		</g>
	</g>
	<path fill-rule="evenodd" clip-rule="evenodd" d="M471.611,658.026c-3.98-2.329-7.953-4.665-11.938-6.989
		c-5.355-3.125-7.207-7.717-4.802-13.401c2.437-5.758,7.442-8.294,12.952-5.503c9.604,4.866,18.95,10.375,27.875,16.399
		c5.176,3.494,5.168,9.151,1.395,14.001c-3.565,4.581-8.413,5.282-13.533,2.459C479.521,662.771,475.589,660.354,471.611,658.026z"
		/>
</g>
</svg>
