<?xml version="1.0" encoding="utf-8"?>
<!-- Generator: Adobe Illustrator 16.0.0, SVG Export Plug-In . SVG Version: 6.00 Build 0)  -->
<!DOCTYPE svg PUBLIC "-//W3C//DTD SVG 1.1//EN" "http://www.w3.org/Graphics/SVG/1.1/DTD/svg11.dtd">
<svg version="1.1" id="Layer_1" xmlns="http://www.w3.org/2000/svg" xmlns:xlink="http://www.w3.org/1999/xlink" x="0px" y="0px"
	 width="551.463px" height="710.73px" viewBox="0 0 551.463 710.73" enable-background="new 0 0 551.463 710.73"
	 xml:space="preserve">
<g>
	<g>
		<g>
			<path fill-rule="evenodd" clip-rule="evenodd" fill="#D7D1B8" d="M298.589,698.242c-89.08,0-178.159,0-267.239,0
				c-11.556-6.265-15.111-16.221-14.921-28.947c0.458-30.604,0.356-61.221,0.032-91.828c-0.109-10.412,2.523-18.72,10.325-26.25
				c5.106-4.93,12.104-9.613,13.53-16.992c2.689-13.918,3.936-28.11,5.966-42.162c0.366-2.533-0.071-4.145-2.165-5.688
				c-5.899-4.353-11.48-9.151-17.506-13.313c-7.642-5.275-14.133-11.295-16.749-20.573c0-52.821,0-105.642,0-158.463
				c1.3-3.016,2.173-6.315,3.97-8.998c8.398-12.544,16.651-25.235,26.455-36.737c9.612-11.28,9.672-10.8-3.048-18.629
				c-10.784-6.639-23.27-11.729-27.377-25.611c0-58.193,0-116.386,0-174.579c2.462-8.201,6.964-14.801,14.772-18.801
				c168.313,0,336.623,0,504.936,0c7.81,4,12.311,10.6,14.771,18.801c0,16.115,0,32.23,0,48.345
				c-1.695,3.808-3.092,7.784-5.143,11.39c-6.031,10.612-11.975,21.304-18.661,31.499c-3.21,4.896-2.64,7.542,1.079,11.95
				c8.27,9.803,19.895,17.311,22.725,31.107c0,51.926,0,103.853,0,155.778c-2.24,12.171-4.316,24.374-6.771,36.501
				c-2.201,10.869-2.131,22.26-6.478,32.61c-4.146,9.871-8.763,19.579-13.806,29.021c-2.77,5.186-3.424,8.716,1.555,13.173
				c3.201,2.868,5.84,6.684,9.004,9.819c5.65,5.601,8.547,12.063,8.528,20.276c-0.155,70.72-0.278,141.439,0.093,212.157
				c0.063,12.073-4.809,19.831-14.954,25.144c-51.478,0-102.956,0-154.435,0c-15.453-5.5-30.932-10.926-46.332-16.565
				c-2.854-1.045-4.127,0.601-5.691,2.128C309.82,688.908,305.049,694.536,298.589,698.242z"/>
			<path fill-rule="evenodd" clip-rule="evenodd" fill="none" d="M521.513,698.242c10.146-5.313,15.017-13.07,14.954-25.144
				c-0.371-70.718-0.248-141.438-0.093-212.157c0.019-8.214-2.878-14.676-8.528-20.276c-3.164-3.136-5.803-6.951-9.004-9.819
				c-4.979-4.457-4.324-7.987-1.555-13.173c5.043-9.442,9.66-19.15,13.806-29.021c4.347-10.351,4.276-21.741,6.478-32.61
				c2.455-12.127,4.531-24.33,6.771-36.501c0,124.443-0.033,248.887,0.129,373.33c0.006,4.598-0.86,5.905-5.511,5.494
				C533.186,697.854,527.332,698.242,521.513,698.242z"/>
			<path fill-rule="evenodd" clip-rule="evenodd" fill="none" d="M9.862,452.488c2.616,9.278,9.107,15.298,16.749,20.573
				c6.025,4.161,11.606,8.96,17.506,13.313c2.094,1.544,2.531,3.155,2.165,5.688c-2.03,14.052-3.276,28.244-5.966,42.162
				c-1.427,7.379-8.424,12.063-13.53,16.992c-7.802,7.53-10.435,15.838-10.325,26.25c0.324,30.607,0.426,61.224-0.032,91.828
				c-0.19,12.727,3.365,22.683,14.921,28.947c-6.043,0-12.097-0.201-18.126,0.086c-2.905,0.14-3.515-0.551-3.45-3.446
				c0.229-10.066,0.089-20.141,0.089-30.213C9.862,593.941,9.862,523.215,9.862,452.488z"/>
			<path fill-rule="evenodd" clip-rule="evenodd" fill="none" d="M9.862,204.05c4.107,13.883,16.593,18.973,27.377,25.611
				c12.72,7.829,12.66,7.349,3.048,18.629c-9.804,11.502-18.057,24.193-26.455,36.737c-1.797,2.683-2.67,5.982-3.97,8.998
				C9.862,264.033,9.862,234.042,9.862,204.05z"/>
			<path fill-rule="evenodd" clip-rule="evenodd" fill="none" d="M544.342,163.762c-2.83-13.797-14.455-21.305-22.725-31.107
				c-3.719-4.408-4.289-7.055-1.079-11.95c6.687-10.195,12.63-20.887,18.661-31.499c2.051-3.605,3.447-7.582,5.143-11.39
				C544.342,106.465,544.342,135.113,544.342,163.762z"/>
			<path fill-rule="evenodd" clip-rule="evenodd" fill="none" d="M298.589,698.242c6.46-3.706,11.231-9.334,16.466-14.438
				c1.564-1.527,2.838-3.173,5.691-2.128c15.4,5.64,30.879,11.065,46.332,16.565C344.248,698.242,321.418,698.242,298.589,698.242z"
				/>
			<path fill-rule="evenodd" clip-rule="evenodd" fill="none" d="M24.635,10.67c-7.809,4-12.311,10.6-14.772,18.801
				c0-6.267,0-12.534,0-18.801C14.786,10.67,19.711,10.67,24.635,10.67z"/>
			<path fill-rule="evenodd" clip-rule="evenodd" fill="none" d="M544.342,29.471c-2.461-8.201-6.962-14.801-14.771-18.801
				c4.924,0,11.77-1.921,14.231,0.54c2.462,2.463,0.54,9.309,0.54,14.232C544.342,26.785,544.342,28.128,544.342,29.471z"/>
		</g>
	</g>
	<path fill-rule="evenodd" clip-rule="evenodd" d="M119.381,0c4.348,3.806,7.88,8.275,5.451,14.277
		c-2.555,6.313-8.367,6.963-14.504,6.936c-28.9-0.129-57.8-0.057-87.518-0.057c-0.152,2.734-0.405,5.169-0.406,7.604
		c-0.022,53.899,0.035,107.797-0.108,161.693c-0.013,4.693,1.287,7.57,5.507,9.967c8.215,4.668,16.154,9.846,24.021,15.092
		c12.138,8.088,14.081,22.805,5.073,34.277c-10.54,13.424-20.95,26.959-31.052,40.715c-2.005,2.732-3.299,6.682-3.314,10.074
		c-0.209,49.271-0.092,98.545-0.235,147.814c-0.012,4.123,1.166,6.77,4.507,9.215c7.82,5.73,15.336,11.873,22.969,17.861
		c8.395,6.586,11.472,14.891,9.533,25.602c-2.498,13.795-4.432,27.709-6.102,41.633c-0.919,7.637-2.896,14.625-9.033,19.477
		c-12.447,9.836-16.337,22.129-15.538,38.043c1.341,26.764,0.355,53.646,0.386,80.479c0.003,2.709,0.264,5.416,0.444,8.873
		c3.259,0,5.966,0,8.673,0c79.574,0,159.15-0.152,238.721,0.205c9.641,0.043,17.076-1.729,23.586-9.328
		c8.031-9.379,18.412-11.395,30.072-6.533c4.859,2.029,10.051,3.238,15.055,4.932c7.184,2.43,14.219,5.377,21.525,7.326
		c6.355,1.695,12.998,3.225,19.52,3.25c42.557,0.178,85.119-0.195,127.676-0.063c6.627,0.02,8.742-1.891,8.645-8.67
		c-0.381-25.902-0.16-51.813-0.152-77.723c0.006-8.023,3.938-13.262,9.926-13.299c6.281-0.037,11.217,5.586,11.242,13.346
		c0.086,27.758,0.037,55.518,0.031,83.277c-0.002,12.494-6.879,19.975-17.871,24.436c-51.363,0-102.723,0-154.084,0
		c-16.844-5.951-33.639-12.053-50.602-17.631c-1.848-0.607-4.996,1.402-7.018,2.902c-6.377,4.729-12.506,9.795-18.73,14.729
		c-90.229,0-180.458,0-270.689,0c-13.281-5.588-17.471-15.74-17.102-29.797c0.727-27.5,0.122-55.033,0.238-82.553
		c0.138-32.676-2.826-24.941,19.57-49.238c2.164-2.35,3.898-5.697,4.449-8.824c2.438-13.857,4.604-27.771,6.276-41.736
		c0.3-2.506-1.483-6.146-3.497-7.887c-7.508-6.492-15.394-12.566-23.361-18.498c-7.045-5.244-10.322-11.938-10.302-20.744
		c0.112-51.107-0.125-102.217,0.301-153.322c0.049-5.799,2.298-12.396,5.601-17.2c9.672-14.055,20.394-27.39,30.698-41.01
		c1.341-1.773,2.655-3.566,4.323-5.81c-8.975-5.643-17.179-11.221-25.777-16.104C5.7,211.93,1.023,203.479,1.125,190.869
		c0.437-53.648,0.53-107.307-0.048-160.952C0.926,15.857,4.861,5.717,18.046,0C51.824,0,85.604,0,119.381,0z"/>
	<path fill-rule="evenodd" clip-rule="evenodd" d="M534.438,0c13.197,5.721,17.885,15.879,16.898,29.949
		c-0.795,11.281,0.277,22.684-0.357,33.985c-0.299,5.315-1.762,10.993-4.26,15.673c-6.623,12.416-13.969,24.455-21.316,36.465
		c-2.049,3.352-2.01,5.481,0.811,8.338c6.012,6.084,11.602,12.582,17.426,18.851c5.096,5.488,7.635,11.735,7.611,19.407
		c-0.15,50.664,0.537,101.338-0.428,151.982c-0.318,16.678-5.494,33.207-7.068,49.936c-2.014,21.387-12.277,39.428-21.33,58.02
		c-2.133,4.379-1.902,7.139,1.496,10.912c21.428,23.809,20.168,16.158,20.072,52.033c-0.053,20.588-0.004,41.176-0.018,61.768
		c0,2.078,0.133,4.199-0.217,6.23c-1.082,6.277-6.16,10.031-12.555,9.178c-6.127-0.816-8.432-4.889-8.43-10.691
		c0.008-27.297,0.191-54.598-0.203-81.891c-0.057-3.859-2.254-8.191-4.662-11.402c-4.277-5.705-9.74-10.506-14.229-16.07
		c-5.711-7.076-6.115-15.328-2.967-23.486c2.732-7.084,5.799-14.16,9.717-20.637c8.842-14.619,10.32-31.127,13.877-47.258
		c8.117-36.8,4.625-74.006,5.246-111.064c0.408-24.514-0.059-49.043,0.186-73.563c0.051-5.312-1.566-9.117-5.34-12.785
		c-5.791-5.629-11.162-11.712-16.447-17.829c-7.336-8.487-8.17-17.822-2.328-28.21c6.898-12.264,14.199-24.303,21.203-36.508
		c1.23-2.139,2.604-4.603,2.65-6.941c0.264-12.718,0.318-25.449-0.094-38.161c-0.053-1.627-3.102-4.31-4.982-4.516
		c-6.178-0.68-12.461-0.542-18.701-0.542c-111.045-0.021-222.088-0.016-333.13-0.016c-1.851,0-3.702-0.024-5.554,0.004
		c-5.863,0.091-11.07-0.885-13.431-7.334c-2.423-6.619,1.659-10.26,6.052-13.826C284.572,0,409.504,0,534.438,0z"/>
	<path fill-rule="evenodd" clip-rule="evenodd" fill="none" d="M18.046,0C4.861,5.717,0.926,15.857,1.077,29.917
		c0.578,53.646,0.484,107.304,0.048,160.952c-0.102,12.61,4.575,21.061,15.279,27.139c8.599,4.883,16.803,10.461,25.777,16.104
		c-1.668,2.243-2.982,4.036-4.323,5.81c-10.305,13.62-21.026,26.955-30.698,41.01c-3.303,4.804-5.552,11.401-5.601,17.2
		c-0.426,51.105-0.188,102.215-0.301,153.322c-0.021,8.807,3.257,15.5,10.302,20.744c7.968,5.932,15.854,12.006,23.361,18.498
		c2.014,1.74,3.797,5.381,3.497,7.887c-1.673,13.965-3.838,27.879-6.276,41.736c-0.551,3.127-2.285,6.475-4.449,8.824
		c-22.396,24.297-19.433,16.563-19.57,49.238c-0.116,27.52,0.488,55.053-0.238,82.553c-0.369,14.057,3.82,24.209,17.102,29.797
		c-8.328,0-16.656,0-24.986,0C0,473.82,0,236.911,0,0C6.016,0,12.031,0,18.046,0z"/>
	<path fill-rule="evenodd" clip-rule="evenodd" fill="none" d="M295.676,710.73c6.225-4.934,12.354-10,18.73-14.729
		c2.021-1.5,5.17-3.51,7.018-2.902c16.963,5.578,33.758,11.68,50.602,17.631C346.576,710.73,321.127,710.73,295.676,710.73z"/>
	<path fill-rule="evenodd" clip-rule="evenodd" fill="#00AEEF" d="M300.814,424.082c-14.783,0.042-25.021-3.477-34.936-8.145
		c-4.893-2.304-11.27-3.72-17.316-4.57c-6.514-0.918-10.435-2.923-10.02-6.861c0.387-3.691,5.184-5.896,11.868-5.624
		c10.894,0.446,20.144,3.197,28.587,7.476c14.465,7.327,23.709,7.299,38.629,0.22c22.33-10.59,41.053-10.501,63.104,0.301
		c13.314,6.521,23.34,6.678,36.625,0.21c8.633-4.201,17.574-7.622,28.84-8.12c7.338-0.322,12.734,1.639,13.557,5.499
		c0.787,3.702-4.08,5.87-11.504,6.937c-6.217,0.894-12.57,2.723-17.686,5.134c-21.033,9.919-40.361,10.214-61.105,0.381
		c-16.596-7.864-24.838-7.878-41.234,0.28C319.482,421.548,309.738,423.912,300.814,424.082z"/>
	<path fill-rule="evenodd" clip-rule="evenodd" d="M398.035,149.325c4.52,0.929,9.078,1.702,13.549,2.829
		c6.209,1.568,9.518,6.486,8.502,12.183c-1.043,5.83-5.762,9.729-12.025,8.723c-9.555-1.538-19.082-3.471-28.438-5.938
		c-6.564-1.73-9.316-7.398-7.609-13.369c1.535-5.363,6.732-8.217,13.139-7.059C389.465,147.473,393.742,148.443,398.035,149.325z"/>
	<path fill-rule="evenodd" clip-rule="evenodd" d="M84.752,478.56c-3.624-2.852-7.24-5.71-10.867-8.557
		c-4.879-3.83-6.082-8.63-2.922-13.932c3.201-5.372,8.508-7.197,13.582-3.679c8.848,6.135,17.354,12.871,25.368,20.059
		c4.649,4.172,3.867,9.774-0.534,14.063c-4.16,4.051-9.057,4.081-13.744,0.583C91.939,484.343,88.375,481.412,84.752,478.56z"/>
	<path fill-rule="evenodd" clip-rule="evenodd" d="M468.08,207.865c0.293,8.261-3.371,12.314-8.277,12.404
		c-3.766,0.072-8.814-2.756-11.16-5.892c-5.295-7.085-9.232-15.179-13.801-22.819c-2.889-4.83-2.402-9.355,1.49-13.199
		c3.701-3.658,8.703-4.447,12.627-1.332C459.613,185.479,465.463,197.021,468.08,207.865z"/>
	<circle fill-rule="evenodd" clip-rule="evenodd" fill="#BE1E2D" cx="264.368" cy="153.222" r="24.217"/>
	<g>
		<path fill-rule="evenodd" clip-rule="evenodd" fill="#D3C1A3" stroke="#000000" stroke-width="3" stroke-miterlimit="10" d="
			M307.971,297.084c-3.129,0.502-6.314,0.244-9.475,0.468c-10.359,0.733-20.398,2.478-30.164,5.36
			c-12.266,3.621-23.344,8.91-33.516,15.488c-2.693,1.743-5.037,3.861-8.084,5.227c-9.578,4.297-21.348,0.377-24.583-8.119
			c-0.173-0.453,0.006-1.047-0.638-1.363c0-1.572,0-3.146,0-4.717c0.656-1.335,1.021-2.744,1.811-4.053
			c2.023-3.361,5.799-5.344,9.029-7.758c4.166-2.584,8.332-5.168,12.498-7.752c0.832-0.022,1.352-0.538,1.973-0.863
			c4.066-2.121,8.189-4.156,12.541-5.875c4.076-1.713,8.234-3.279,12.473-4.712c4.906-1.622,9.912-3.028,15.008-4.182
			c4.617-1.046,9.242-2.11,14.029-2.56c0.596-0.107,1.188-0.242,1.791-0.32c3.553-0.458,7.111-0.902,10.666-1.352
			c4.891,0.014,9.76-0.625,14.66-0.298C307.984,278.831,307.979,287.957,307.971,297.084z"/>
		<path fill-rule="evenodd" clip-rule="evenodd" fill="#A3967E" stroke="#000000" stroke-width="3" stroke-miterlimit="10" d="
			M307.971,297.084c0.008-9.127,0.014-18.253,0.02-27.38c1.855,0.001,3.709-0.019,5.564,0.006c2.939,0.038,5.861,0.577,8.818,0.222
			c4.035,0.827,8.176,1.082,12.291,1.482c0.92,0.205,1.83,0.454,2.762,0.609c8.986,1.496,17.762,3.557,26.254,6.386
			c4.156,1.467,8.314,2.934,12.471,4.401c4.75,2.416,9.785,4.449,14.42,7.023c0.18,0.099,0.523,0.001,0.791-0.004
			c0.219,0.275,0.363,0.633,0.668,0.818c3.875,2.344,7.773,4.662,11.666,6.987c1.566,1.155,3.111,2.331,4.705,3.464
			c3.266,2.318,4.963,5.342,6.01,8.664c0,1.461,0,2.921,0,4.381c-1.273,2.014-1.986,4.217-3.789,6.065
			c-5.346,5.478-15.848,6.815-22.76,2.637c-4.988-3.018-9.545-6.476-14.715-9.329c-13.574-7.494-28.389-12.473-44.541-14.88
			C321.779,297.621,314.883,297.313,307.971,297.084z"/>
		<path fill-rule="evenodd" clip-rule="evenodd" fill="#C23735" stroke="#000000" stroke-width="3" stroke-miterlimit="10" d="
			M212.223,271.373c-0.033-2.033,1.379-3.395,3.148-4.652c7.318-5.207,15.275-9.646,23.963-13.221c0,3.922,0,7.844,0,11.768
			c-5.148,2.098-9.557,5.055-14.023,7.945c-0.518,0.336-0.523,0.742-0.521,1.192c0.021,5.153,0.041,10.307,0.061,15.46
			c-4.166,2.584-8.332,5.168-12.498,7.752c-0.039-0.678-0.078-1.355-0.117-2.032C212.416,287.515,212.402,279.443,212.223,271.373z"
			/>
		<path fill-rule="evenodd" clip-rule="evenodd" fill="none" stroke="#000000" stroke-width="3" stroke-miterlimit="10" d="
			M280.873,271.674c-4.787,0.449-9.412,1.514-14.029,2.56c-5.096,1.153-10.102,2.56-15.008,4.182
			c0.004-6.171,0.006-12.341,0.01-18.511c0.26-0.065,0.527-0.113,0.777-0.196c9.119-3.013,18.5-5.255,28.277-6.339
			C280.891,259.471,280.883,265.572,280.873,271.674z"/>
		<path fill-rule="evenodd" clip-rule="evenodd" fill="none" stroke="#000000" stroke-width="3" stroke-miterlimit="10" d="
			M322.371,269.932c-2.955,0.355-5.877-0.184-8.816-0.222c-1.855-0.024-3.709-0.005-5.564-0.006c-4.9-0.327-9.77,0.312-14.658,0.298
			c0.02-5.97,0.039-11.939,0.059-17.908c4.838-0.525,9.73-0.277,14.578-0.666c4.568,0.149,9.137,0.299,13.705,0.447
			c0.154,0.06,0.307,0.119,0.461,0.178c0.059,0.439,0.164,0.878,0.166,1.316C322.334,258.891,322.35,264.41,322.371,269.932z"/>
		<path fill-rule="evenodd" clip-rule="evenodd" fill="#E09A5D" stroke="#000000" stroke-width="3" stroke-miterlimit="10" d="
			M251.846,259.904c-0.004,6.17-0.006,12.34-0.01,18.511c-4.238,1.433-8.396,2.999-12.473,4.713
			c-0.01-5.954-0.02-11.907-0.029-17.86c0-3.924,0-7.846,0-11.768c0.004-2.021-0.023-4.041,0.018-6.061
			c0.059-2.921,2.449-5.014,5.803-5.133c3.648-0.131,6.279,1.793,6.639,4.824c0.072,0.596-0.232,1.246,0.352,1.775
			c-0.359,0.445-0.342,0.947-0.338,1.451C251.824,253.54,251.834,256.722,251.846,259.904z"/>
		<path fill-rule="evenodd" clip-rule="evenodd" fill="#DF9A5D" stroke="#000000" stroke-width="3" stroke-miterlimit="10" d="
			M293.391,252.094c-0.02,5.969-0.039,11.938-0.059,17.908c-3.557,0.449-7.115,0.894-10.668,1.352
			c-0.604,0.078-1.195,0.213-1.791,0.32c0.01-6.102,0.018-12.203,0.027-18.305c-0.002-3.455-0.006-6.911-0.01-10.367
			c-0.002-1.74-0.055-3.481,0.008-5.221c0.092-2.625,2.432-4.669,5.471-4.867c3.43-0.223,6.066,1.429,6.732,4.131
			c0.385,1.563,0.049,3.141,0.291,4.699C293.393,245.194,293.391,248.644,293.391,252.094z"/>
		<path fill-rule="evenodd" clip-rule="evenodd" fill="none" stroke="#000000" stroke-width="3" stroke-miterlimit="10" d="
			M239.334,265.268c0.01,5.953,0.02,11.906,0.029,17.86c-4.352,1.718-8.475,3.753-12.541,5.874
			c-0.621,0.325-1.141,0.841-1.973,0.863c-0.02-5.153-0.039-10.307-0.061-15.46c-0.002-0.45,0.004-0.856,0.521-1.192
			C229.777,270.322,234.186,267.365,239.334,265.268z"/>
		<path fill-rule="evenodd" clip-rule="evenodd" fill="none" stroke="#000000" stroke-width="3" stroke-miterlimit="10" d="
			M363.68,278.408c-8.492-2.828-17.268-4.889-26.254-6.385c-0.932-0.155-1.842-0.404-2.762-0.609
			c-0.016-6.055-0.029-12.107-0.043-18.161c1.293,0.146,2.596,0.251,3.877,0.442c8.641,1.293,17.006,3.345,25.158,5.984
			C363.664,265.922,363.672,272.166,363.68,278.408z"/>
		<path fill-rule="evenodd" clip-rule="evenodd" fill="#7F3129" stroke="#000000" stroke-width="3" stroke-miterlimit="10" d="
			M376.197,253.387c9.217,3.719,17.602,8.424,25.252,14c1.535,1.119,2.293,2.482,2.289,4.15c-0.02,8.7-0.029,17.399-0.043,26.099
			c-3.893-2.325-7.791-4.644-11.666-6.987c-0.305-0.186-0.449-0.543-0.668-0.82c-0.004-4.986-0.006-9.973-0.016-14.959
			c0-0.604,0.105-1.212-0.607-1.686c-4.588-3.049-9.209-6.051-14.561-8.207C376.184,261.113,376.191,257.25,376.197,253.387z"/>
		<path fill-rule="evenodd" clip-rule="evenodd" fill="#A66D46" stroke="#000000" stroke-width="3" stroke-miterlimit="10" d="
			M376.197,253.387c-0.006,3.863-0.014,7.727-0.02,11.59c-0.01,5.945-0.018,11.889-0.027,17.834
			c-4.156-1.468-8.314-2.935-12.471-4.401c-0.008-6.243-0.016-12.487-0.023-18.729c0.016-2.52,0.072-5.039,0.025-7.557
			c-0.02-1.1,0.363-2.245-0.385-3.293c0.795-0.373,0.404-1,0.463-1.514c0.363-3.193,2.898-5.139,6.588-5.02
			c3.498,0.112,5.813,2.233,5.85,5.391C376.219,249.587,376.197,251.486,376.197,253.387z"/>
		<path fill-rule="evenodd" clip-rule="evenodd" fill="#A66D46" stroke="#000000" stroke-width="3" stroke-miterlimit="10" d="
			M334.621,253.253c0.014,6.054,0.027,12.106,0.043,18.161c-4.115-0.4-8.256-0.655-12.291-1.482
			c-0.023-5.521-0.039-11.041-0.072-16.563c-0.002-0.438-0.107-0.877-0.166-1.316c0.02-0.088,0.023-0.178,0.01-0.268
			c0.729-3.104,0.217-6.234,0.25-9.354c0.002-0.2-0.428-0.404-0.656-0.605c0.549-0.171,0.635-0.527,0.623-0.951
			c-0.021-0.672-0.01-1.346-0.004-2.02c0.031-4.676,3.34-6.756,8.891-5.591c2.572,1.302,3.643,3.172,3.486,5.628
			c-0.088,1.373-0.256,2.779,0.25,4.141c-0.537,0.396-0.377,0.922-0.377,1.406C334.602,247.377,334.615,250.315,334.621,253.253z"/>
		<path fill-rule="evenodd" clip-rule="evenodd" fill="none" stroke="#000000" stroke-width="3" stroke-miterlimit="10" d="
			M376.15,282.811c0.01-5.945,0.018-11.889,0.027-17.834c5.352,2.156,9.973,5.158,14.561,8.207c0.713,0.474,0.607,1.081,0.607,1.686
			c0.01,4.986,0.012,9.973,0.016,14.959c-0.268,0.007-0.611,0.104-0.791,0.006C385.936,287.26,380.9,285.227,376.15,282.811z"/>
		<path fill-rule="evenodd" clip-rule="evenodd" fill="#C23735" stroke="#000000" stroke-width="3" stroke-miterlimit="10" d="
			M280.891,243.002c0.004,3.456,0.008,6.912,0.01,10.367c-9.777,1.084-19.158,3.326-28.277,6.339
			c-0.25,0.083-0.518,0.131-0.777,0.196c-0.012-3.183-0.021-6.364-0.039-9.547c-0.004-0.504-0.021-1.006,0.338-1.451
			c8.855-2.688,17.996-4.494,27.301-5.797C279.92,243.043,280.408,243.037,280.891,243.002z"/>
		<path fill-rule="evenodd" clip-rule="evenodd" fill="#C23735" stroke="#000000" stroke-width="3" stroke-miterlimit="10" d="
			M293.391,252.094c0-3.45,0.002-6.899,0.002-10.35c4.861-0.033,9.703-0.631,14.576-0.317c0,3.334,0,6.667,0,10.001
			C303.121,251.816,298.229,251.568,293.391,252.094z"/>
		<path fill-rule="evenodd" clip-rule="evenodd" fill="#80332A" stroke="#000000" stroke-width="3" stroke-miterlimit="10" d="
			M307.969,251.428c0-3.334,0-6.667,0-10.001c4.6-0.105,9.182,0.192,13.77,0.399c0.229,0.201,0.658,0.405,0.656,0.605
			c-0.033,3.119,0.479,6.25-0.252,9.354c-0.156,0.031-0.313,0.061-0.469,0.09C317.105,251.727,312.537,251.577,307.969,251.428z"/>
		<path fill-rule="evenodd" clip-rule="evenodd" fill="#7F322A" stroke="#000000" stroke-width="3" stroke-miterlimit="10" d="
			M334.621,253.253c-0.006-2.938-0.02-5.876-0.014-8.813c0-0.484-0.16-1.011,0.377-1.406c9.684,1.141,19.139,3.019,28.311,5.797
			c0.75,1.048,0.367,2.193,0.387,3.293c0.047,2.518-0.01,5.037-0.025,7.557c-8.152-2.64-16.518-4.691-25.158-5.984
			C337.217,253.504,335.914,253.398,334.621,253.253z"/>
		<path fill-rule="evenodd" clip-rule="evenodd" fill="#A3967E" stroke="#000000" stroke-width="3" stroke-miterlimit="10" d="
			M321.674,251.875c0.156-0.029,0.313-0.059,0.469-0.09c0.016,0.09,0.012,0.18-0.008,0.268
			C321.98,251.994,321.828,251.935,321.674,251.875z"/>
	</g>
	<g>
		<g>
			<path fill-rule="evenodd" clip-rule="evenodd" fill="#070A08" d="M244.908,587.212c-43.406,0-86.811,0-130.217,0
				c-1.182-1.01-1.975-2.152-1.297-3.798c0.754-1.832,1.449-3.69,2.271-5.49c1.389-3.046,3.807-4.954,7.034-5.654
				c1.479-0.321,3.061-0.175,4.597-0.211c3.388-0.079,5.108-1.791,5.2-5.176c0.184-6.663,0.355-13.326,0.586-19.987
				c0.035-1.008-0.207-1.405-1.262-1.507c-2.271-0.218-2.816-0.825-3.111-3.056c1.055-2.104,1.725-2.365,4.465-1.988
				c11.566,1.59,22.847,0.356,33.85-3.514c0.344-0.12,0.78-0.148,0.866-0.805c-0.897-0.137-1.778-0.289-2.663-0.404
				c-4.297-0.556-8.475-1.694-12.697-2.614c-2.453-0.844-4.916-1.656-7.355-2.538c-3.969-1.436-4.988-2.841-5.174-6.977
				c0.418-0.994,0.785-2.014,1.264-2.978c2.756-5.551,5.531-11.093,8.322-16.627c0.375-0.743,0.577-1.206-0.457-1.65
				c-4.004-1.722-5.053-4.653-3.128-8.525c2.276-4.579,4.559-9.156,6.878-13.715c0.416-0.817,0.525-1.466,0.072-2.355
				c-3.2-6.278-6.327-12.594-9.492-18.891c-0.188-0.373-0.227-0.906-0.896-1.022c-1.155,2.378-2.318,4.771-3.48,7.163
				c-4.424,8.789-8.848,17.578-13.269,26.367c-1.023,2.034-1.02,2.036,1.124,2.758c2.76,0.928,3.314,2.2,2.036,4.767
				c-2.411,4.84-4.793,9.695-7.29,14.49c-0.701,1.346-0.721,1.914,0.924,2.398c2.948,0.867,3.402,2.219,2.023,5.006
				c-2.496,5.043-4.989,10.088-7.483,15.132c0.417,1.162,1.597,1.038,2.454,1.344c1.664,0.593,2.59,1.574,2.455,3.397
				c-0.67,1.477-1.774,2.235-3.395,1.765c-2.856-0.828-5.775-1.619-7.055-4.792c0-0.913,0-1.827,0-2.741
				c2.742-4.615,4.852-9.556,7.342-14.299c0.301-0.572-0.082-0.609-0.443-0.827c-3.095-1.864-3.722-4.064-2.098-7.321
				c2.13-4.271,4.29-8.526,6.398-12.808c0.229-0.468,0.98-0.994-0.226-1.548c-3.31-1.521-4.011-3.812-2.372-7.089
				c6.493-12.982,13.004-25.957,19.477-38.95c0.682-1.369,1.497-2.472,3.147-2.445c1.565,0.024,2.376,1.089,3.017,2.397
				c1.948,3.977,3.947,7.929,6.01,12.056c3.078-6.143,6.073-12.121,9.072-18.099c1.141-2.273,1.463-2.441,4.01-2.145
				c1.488,1.197,1.574,2.592,0.74,4.239c-2.879,5.684-5.709,11.391-8.555,17.089c-1.853,3.708-1.852,3.709,2.109,5.02
				c2.748,0.91,3.307,2.19,2.025,4.76c-3.149,6.312-6.313,12.615-9.475,18.921c-1.716,3.426-1.719,3.425,1.977,4.698
				c2.758,0.951,3.264,2.162,1.957,4.784c-3.277,6.568-6.566,13.13-9.85,19.696c-1.012,2.025-0.994,2.056,1.309,2.637
				c0.402,0.196,0.791,0.436,1.212,0.581c12.94,4.479,26.222,6.173,39.878,4.971c8.5-0.748,16.721-2.65,24.746-5.523
				c1.606-0.574,1.786-1.307,0.975-2.606c-0.181-0.289-0.318-0.604-0.472-0.909c-3.208-6.411-6.427-12.816-9.614-19.236
				c-1.029-2.075-0.424-3.495,1.742-4.286c1.014-0.37,2.021-0.774,3.059-1.065c0.867-0.242,0.901-0.637,0.521-1.349
				c-0.749-1.406-1.438-2.845-2.15-4.271c-2.881-5.752-5.771-11.499-8.635-17.259c-1.113-2.239-0.482-3.687,1.895-4.474
				c0.863-0.285,1.717-0.624,2.602-0.813c1.502-0.32,1.469-0.968,0.842-2.211c-7.17-14.226-14.281-28.481-21.41-42.729
				c-0.777-1.553-1.564-3.101-2.478-4.911c-1.341,2.729-2.563,5.22-3.786,7.71c-1.461,2.877-2.908,5.759-4.387,8.626
				c-0.965,1.874-1.863,2.25-3.843,1.694c-1.525-1.19-1.536-2.579-0.705-4.216c3.153-6.209,6.275-12.435,9.356-18.68
				c0.557-1.13,1.248-2.083,2.244-2.831c0.686,0,1.371,0,2.057,0c1.162,0.598,1.841,1.585,2.414,2.737
				c5.916,11.886,11.861,23.757,17.8,35.631c1.265,2.526,2.536,5.05,3.892,7.751c3.374-6.768,6.641-13.312,9.899-19.86
				c0.601-1.207,1.449-2.021,2.888-2.032c1.422-0.011,2.313,0.71,2.932,1.947c7.414,14.858,14.859,29.701,22.253,44.569
				c1.407,2.83,0.345,5.575-2.6,6.637c-1.327,0.479-1.284,0.927-0.729,2.011c2.563,5.003,5.073,10.034,7.546,15.083
				c1.396,2.847,0.44,5.742-2.43,6.973c-1.269,0.543-0.907,1.027-0.497,1.848c2.653,5.311,5.275,10.636,7.908,15.956
				c0,0.686,0,1.371,0,2.057c-0.898,2.566-2.83,3.863-5.334,4.701c-5.658,1.895-11.391,3.443-17.318,4.185
				c-0.974,0.122-1.225,0.442-1.167,1.386c0.124,2.046,0.073,4.102,0.191,6.146c0.106,1.832-0.667,2.915-2.444,3.305
				c-2.116-0.471-2.66-1.136-2.717-3.236c-0.049-1.881-0.193-3.761-0.18-5.641c0.007-1.096-0.433-1.289-1.429-1.259
				c-2.563,0.078-5.132,0.112-7.692-0.003c-1.273-0.058-1.646,0.265-1.664,1.564c-0.08,6.214-0.207,12.429-0.448,18.639
				c-0.107,2.765,0.175,5.613-1.073,8.236c-0.329,0.692-0.111,0.929,0.6,0.929c4.276-0.007,8.553-0.005,12.83-0.002
				c0.609,0.001,0.827-0.162,0.525-0.811c-1.25-2.677-1.038-5.557-1.119-8.397c-0.051-1.754,0.725-2.807,2.463-3.125
				c2.08,0.416,2.645,1.09,2.697,3.219c0.023,0.967,0.038,1.935,0.082,2.9c0.197,4.368,1.947,6.074,6.331,6.263
				c4.261,0.183,7.278,2.263,9.036,6.132c0.701,1.543,1.312,3.127,1.939,4.702C247.066,585.048,246.82,585.83,244.908,587.212z
				 M214.285,450.919c-1.8,3.549-3.502,7.152-5.447,10.619c-0.859,1.534-0.818,2.69-0.011,4.207c1.994,3.744,0.813,6.619-3.21,8.045
				c-1.191,0.422-1.428,0.797-0.813,1.993c3.122,6.076,6.167,12.193,9.196,18.316c1.714,3.465,0.523,6.705-3.074,8.05
				c-1.297,0.484-1.119,0.933-0.637,1.884c2.884,5.682,5.73,11.382,8.564,17.088c2.031,4.09,0.667,7.6-3.617,9.149
				c-3.039,1.099-6.127,2.058-9.193,3.079c-2.435,0.538-4.869,1.077-7.643,1.69c0.525,0.26,0.662,0.362,0.814,0.397
				c15.736,3.64,31.195,2.666,46.398-2.755c1.094-0.39,1.23-0.821,0.71-1.844c-2.587-5.071-4.981-10.243-7.68-15.252
				c-2.253-4.182-1.412-5.475,2.577-6.515c1.028-0.268,1.262-0.643,0.723-1.698c-2.979-5.832-5.887-11.699-8.786-17.571
				c-1.028-2.083-0.419-3.484,1.758-4.253c0.534-0.188,1.078-0.372,1.632-0.487c1.29-0.271,1.563-0.741,0.9-2.052
				c-6.341-12.544-12.604-25.128-18.896-37.696c-0.221-0.44-0.307-0.992-0.947-1.28
				C216.494,446.333,215.391,448.626,214.285,450.919z M119.714,582.07c0.585,0,1.138,0,1.692,0c38.936,0,77.872,0,116.809,0
				c0.343,0,0.686-0.021,1.027,0.003c0.797,0.054,0.956-0.168,0.674-0.98c-0.922-2.661-2.607-3.859-5.729-3.86
				c-36.195-0.003-72.392-0.003-108.588,0.001C122.162,577.234,120.578,578.522,119.714,582.07z M191.863,552.333
				c0.68,4.157,0.568,8.327,0.7,12.491c0.075,2.393,0.735,4.542,2.823,5.914c2.617,1.722,5.488,1.809,8.316,0.658
				c1.678-0.682,2.736-2.147,2.803-3.983c0.293-8.099,0.487-16.2,0.742-24.299c0.025-0.802-0.244-1.054-1.044-1.151
				c-4.351-0.527-8.626-1.451-12.807-2.759c-1.264-0.396-1.618-0.32-1.575,1.15C191.939,544.344,191.863,548.34,191.863,552.333z
				 M167.892,542.057c-4.941,1.539-9.698,2.828-14.618,3.381c-0.934,0.104-0.832,0.736-0.813,1.376
				c0.209,6.892,0.402,13.784,0.624,20.676c0.06,1.853,0.837,3.449,2.616,4.033c2.945,0.967,5.959,0.998,8.691-0.745
				c1.605-1.024,2.627-2.612,2.703-4.525C167.411,558.283,167.629,550.311,167.892,542.057z M189.449,572.022
				c-1.953-3.055-2.043-6.174-2.113-9.329c-0.186-8.333-0.465-16.664-0.654-24.997c-0.022-0.992-0.309-1.344-1.275-1.188
				c-0.447,0.072-0.914,0.099-1.366,0.062c-1.158-0.093-1.582,0.339-1.543,1.559c0.091,2.795,0.05,5.596,0.021,8.394
				c-0.02,1.84-1.039,2.974-2.587,2.987c-1.546,0.013-2.55-1.114-2.567-2.962c-0.025-2.627-0.113-5.259,0.031-7.878
				c0.09-1.648-0.441-2.322-2.068-2.134c-0.225,0.026-0.461,0.016-0.684-0.024c-1.113-0.204-1.463,0.237-1.467,1.365
				c-0.012,2.91-0.014,5.833-0.273,8.729c-0.758,8.441,0.82,17.081-2.11,25.418c1.569,0,3.169-0.085,4.755,0.025
				c1.385,0.096,1.881-0.292,1.844-1.771c-0.102-4.166-0.037-8.336-0.031-12.505c0.001-0.68-0.04-1.364,0.402-1.972
				c0.721-0.992,1.694-1.391,2.843-1.059c1.306,0.377,1.915,1.369,1.917,2.715c0.008,4.397,0.029,8.795-0.016,13.191
				c-0.01,0.994,0.186,1.454,1.306,1.397C185.57,571.957,187.338,572.022,189.449,572.022z M148.945,572.021
				c-0.754-1.863-0.998-3.519-1.039-5.251c-0.148-6.449-0.43-12.896-0.572-19.347c-0.026-1.211-0.479-1.367-1.515-1.327
				c-2.052,0.08-4.113,0.108-6.161-0.007c-1.166-0.066-1.43,0.326-1.442,1.408c-0.044,3.653-0.02,7.319-0.331,10.954
				c-0.369,4.301,0.421,8.698-1.04,12.905c-0.302,0.868,0.368,0.652,0.743,0.654C141.296,572.028,145.004,572.021,148.945,572.021z"
				/>
			<path fill-rule="evenodd" clip-rule="evenodd" fill="none" d="M164.941,443.706c-2.547-0.297-2.869-0.129-4.01,2.145
				c-2.999,5.978-5.994,11.956-9.072,18.099c-2.063-4.127-4.062-8.079-6.01-12.056c-0.641-1.309-1.451-2.373-3.017-2.397
				c-1.65-0.026-2.466,1.076-3.147,2.445c-6.473,12.993-12.983,25.968-19.477,38.95c-1.639,3.277-0.938,5.567,2.372,7.089
				c1.206,0.554,0.455,1.08,0.226,1.548c-2.108,4.281-4.269,8.536-6.398,12.808c-1.624,3.257-0.997,5.457,2.098,7.321
				c0.361,0.218,0.744,0.255,0.443,0.827c-2.49,4.743-4.6,9.684-7.342,14.299c0-40.55,0.007-81.1-0.032-121.648
				c-0.001-1.174,0.229-1.407,1.403-1.404c21.932,0.045,43.862,0.033,65.793,0.033c-0.996,0.748-1.688,1.701-2.244,2.831
				c-3.081,6.245-6.203,12.471-9.356,18.68c-0.831,1.637-0.82,3.025,0.704,4.215C166.897,439.562,165.92,441.634,164.941,443.706z"
				/>
			<path fill-rule="evenodd" clip-rule="evenodd" fill="none" d="M252.104,531.014c-2.633-5.32-5.255-10.646-7.908-15.956
				c-0.41-0.82-0.771-1.305,0.497-1.848c2.87-1.23,3.825-4.126,2.43-6.973c-2.473-5.049-4.983-10.08-7.546-15.083
				c-0.555-1.084-0.598-1.532,0.729-2.011c2.944-1.062,4.007-3.807,2.6-6.637c-7.394-14.868-14.839-29.711-22.253-44.569
				c-0.618-1.237-1.51-1.958-2.932-1.947c-1.438,0.012-2.287,0.825-2.888,2.032c-3.259,6.549-6.525,13.093-9.899,19.86
				c-1.355-2.701-2.627-5.225-3.892-7.751c-5.938-11.874-11.884-23.745-17.8-35.631c-0.573-1.152-1.252-2.14-2.414-2.737
				c23.28,0,46.562,0.015,69.842-0.038c1.295-0.003,1.463,0.339,1.463,1.515C252.098,452.498,252.104,491.756,252.104,531.014z"/>
			<path fill-rule="evenodd" clip-rule="evenodd" fill="none" d="M244.908,587.212c1.912-1.382,2.158-2.164,1.305-4.309
				c-0.628-1.575-1.238-3.159-1.939-4.702c-1.758-3.869-4.775-5.949-9.036-6.132c-4.384-0.188-6.134-1.895-6.331-6.263
				c-0.044-0.966-0.059-1.934-0.082-2.9c-0.053-2.129-0.617-2.803-2.697-3.219c-0.031-2.299-0.063-4.597-0.096-6.895
				c1.777-0.39,2.551-1.473,2.444-3.305c-0.118-2.045-0.067-4.101-0.191-6.146c-0.058-0.943,0.193-1.264,1.167-1.386
				c5.928-0.741,11.66-2.29,17.318-4.185c2.504-0.838,4.436-2.135,5.334-4.701c0,17.59-0.015,35.181,0.033,52.771
				c0.004,1.173-0.221,1.48-1.406,1.404C248.797,587.121,246.85,587.212,244.908,587.212z"/>
			<path fill-rule="evenodd" clip-rule="evenodd" fill="none" d="M128.709,542.333c0.295,2.23,0.84,2.838,3.111,3.056
				c1.055,0.102,1.297,0.499,1.262,1.507c-0.23,6.661-0.402,13.324-0.586,19.987c-0.092,3.385-1.813,5.097-5.2,5.176
				c-1.536,0.036-3.118-0.11-4.597,0.211c-3.228,0.7-5.646,2.608-7.034,5.654c-0.821,1.8-1.517,3.658-2.271,5.49
				c-0.678,1.646,0.115,2.788,1.297,3.798c-1.027,0-2.457,0.401-2.971-0.112c-0.514-0.515-0.113-1.943-0.113-2.972
				c0-15.534,0-31.069,0-46.604c1.279,3.173,4.198,3.964,7.055,4.792c1.62,0.471,2.725-0.288,3.396-1.765
				C124.154,541.599,126.479,541.789,128.709,542.333z"/>
			<path fill-rule="evenodd" clip-rule="evenodd" fill="#82C88E" d="M164.941,443.706c0.979-2.072,1.956-4.145,2.934-6.217
				c1.98,0.557,2.879,0.181,3.844-1.693c1.479-2.867,2.926-5.749,4.387-8.625c0.428,0.24,0.604,0.669,0.807,1.077
				c5.383,10.765,10.772,21.527,16.144,32.3c0.907,1.82,0.474,3.051-1.478,3.743c-2.438,0.865-3.975,3.612-2.408,6.48
				c3.169,5.805,5.988,11.801,8.936,17.726c1.148,2.308,0.761,3.367-1.522,4.33c-2.069,0.872-3.13,3.274-2.319,5.351
				c0.391,1.005,0.867,1.977,1.305,2.964c-0.67,0.136-1.336,0.287-2.008,0.405c-4.332,0.756-8.699,1.082-13.096,1.13
				c-2.186,0.024-3.283,1.174-3.076,2.978c0.176,1.549,1.316,2.295,3.439,2.262c5.879-0.093,11.688-0.827,17.461-1.888
				c1.541,3.178,3.084,6.354,4.623,9.533c1.118,2.31,0.438,4.456-1.922,5.323c-4.322,1.589-8.705,3.015-13.224,3.965
				c-5.001,1.053-10.032,1.807-15.146,2.163c-5.527,0.385-11.02,0.317-16.512-0.307c-2.982-0.339-5.953-0.768-8.93-1.156
				c-2.303-0.581-2.32-0.611-1.309-2.637c3.283-6.566,6.572-13.128,9.85-19.696c1.307-2.622,0.801-3.833-1.957-4.784
				c-3.695-1.273-3.692-1.272-1.977-4.698c3.161-6.306,6.325-12.609,9.475-18.921c1.281-2.569,0.723-3.85-2.025-4.76
				c-3.961-1.311-3.962-1.312-2.109-5.02c2.846-5.698,5.676-11.405,8.555-17.089C166.516,446.298,166.43,444.903,164.941,443.706z
				 M176.622,478.338c0.853,0.043,1.706,0.111,2.56,0.123c2.023,0.028,3.332-1.011,3.335-2.612c0.002-1.52-1.203-2.619-3.161-2.635
				c-3.537-0.027-7.039-0.38-10.541-0.819c-2.077-0.261-3.24,0.501-3.418,2.105c-0.188,1.705,0.832,2.771,2.909,3.039
				C171.068,477.896,173.824,478.332,176.622,478.338z"/>
			<path fill-rule="evenodd" clip-rule="evenodd" fill="#66B39C" d="M147.18,525.55c2.977,0.389,5.947,0.817,8.93,1.156
				c5.492,0.624,10.984,0.691,16.512,0.307c5.113-0.356,10.145-1.11,15.146-2.163c4.519-0.95,8.901-2.376,13.224-3.965
				c2.359-0.867,3.04-3.014,1.922-5.323c-1.539-3.179-3.082-6.355-4.623-9.533c1.659-1.133,2.197-2.357,1.611-3.665
				c-0.574-1.28-1.834-1.69-3.826-1.255c-0.163,0.036-0.338,0.023-0.506,0.033c-0.438-0.987-0.914-1.959-1.305-2.964
				c-0.811-2.076,0.25-4.479,2.319-5.351c2.283-0.963,2.671-2.022,1.522-4.33c-2.947-5.925-5.767-11.921-8.936-17.726
				c-1.566-2.868-0.029-5.615,2.408-6.48c1.951-0.692,2.385-1.923,1.478-3.743c-5.371-10.772-10.761-21.535-16.144-32.3
				c-0.203-0.408-0.379-0.837-0.807-1.077c1.223-2.491,2.445-4.981,3.786-7.711c0.913,1.811,1.7,3.358,2.478,4.911
				c7.129,14.247,14.24,28.503,21.41,42.729c0.627,1.243,0.66,1.891-0.842,2.211c-0.885,0.188-1.738,0.527-2.602,0.813
				c-2.377,0.787-3.008,2.234-1.895,4.474c2.864,5.76,5.754,11.507,8.635,17.259c0.713,1.426,1.401,2.864,2.15,4.271
				c0.38,0.712,0.346,1.106-0.521,1.349c-1.038,0.291-2.045,0.695-3.059,1.065c-2.166,0.791-2.771,2.211-1.742,4.286
				c3.188,6.42,6.406,12.825,9.614,19.236c0.153,0.305,0.291,0.62,0.472,0.909c0.812,1.3,0.632,2.032-0.975,2.606
				c-8.025,2.873-16.246,4.775-24.746,5.523c-13.656,1.202-26.938-0.492-39.878-4.971
				C147.971,525.985,147.582,525.746,147.18,525.55z"/>
			<path fill-rule="evenodd" clip-rule="evenodd" fill="#81C78D" d="M206.043,533.35c3.066-1.021,6.154-1.98,9.193-3.079
				c4.284-1.55,5.648-5.06,3.617-9.149c-2.834-5.706-5.681-11.406-8.564-17.088c-0.482-0.951-0.66-1.399,0.637-1.884
				c3.598-1.345,4.788-4.585,3.074-8.05c-3.029-6.123-6.074-12.24-9.196-18.316c-0.614-1.196-0.378-1.571,0.813-1.993
				c4.022-1.426,5.204-4.301,3.21-8.045c-0.808-1.517-0.849-2.673,0.011-4.207c1.945-3.467,3.647-7.07,5.447-10.619
				c0.307,0.735,0.572,1.491,0.926,2.202c3.488,7,6.997,13.989,10.483,20.99c0.38,0.763,0.812,1.551,0.949,2.372
				c0.238,1.412,0.347,2.826-1.313,3.683c-2.502,1.29-2.922,2.771-1.658,5.306c2.522,5.058,5.055,10.11,7.578,15.168
				c0.941,1.887,0.689,2.563-1.242,3.413c-2.087,0.919-2.84,2.83-1.928,4.949c0.449,1.044,0.937,2.072,1.406,3.107
				c-2.121,0.438-4.269,0.651-6.428,0.825c-1.985,0.159-2.973,1.263-2.828,2.917c0.143,1.612,1.379,2.379,3.359,2.259
				c2.9-0.177,5.75-0.716,8.621-1.103c0.928,1.949,1.842,3.906,2.789,5.846c1.318,2.701,0.732,4.375-2.03,5.343
				c-2.411,0.844-4.85,1.624-7.31,2.312C219.248,532.301,212.689,533.146,206.043,533.35z"/>
			<path fill-rule="evenodd" clip-rule="evenodd" fill="#65B39C" d="M229.486,512.109c-0.47-1.035-0.957-2.063-1.406-3.107
				c-0.912-2.119-0.159-4.03,1.928-4.949c1.932-0.851,2.184-1.526,1.242-3.413c-2.523-5.058-5.056-10.11-7.578-15.168
				c-1.264-2.535-0.844-4.016,1.658-5.306c1.66-0.856,1.552-2.271,1.313-3.683c-0.138-0.821-0.569-1.609-0.949-2.372
				c-3.486-7.001-6.995-13.99-10.483-20.99c-0.354-0.711-0.619-1.467-0.926-2.202c1.105-2.293,2.209-4.586,3.318-6.885
				c0.641,0.288,0.727,0.84,0.947,1.28c6.293,12.568,12.556,25.152,18.896,37.696c0.662,1.311,0.39,1.781-0.9,2.052
				c-0.554,0.115-1.098,0.299-1.632,0.487c-2.177,0.769-2.786,2.17-1.758,4.253c2.899,5.872,5.807,11.739,8.786,17.571
				c0.539,1.056,0.306,1.431-0.723,1.698c-3.989,1.04-4.83,2.333-2.577,6.515c2.698,5.009,5.093,10.181,7.68,15.252
				c0.521,1.022,0.384,1.454-0.71,1.844c-15.203,5.421-30.662,6.395-46.398,2.755c-0.152-0.035-0.289-0.138-0.814-0.397
				c2.773-0.613,5.208-1.152,7.643-1.69c6.646-0.203,13.205-1.049,19.617-2.842c2.46-0.688,4.898-1.468,7.31-2.312
				c2.763-0.968,3.349-2.642,2.03-5.343c-0.947-1.939-1.861-3.896-2.789-5.846c1.672-1.13,2.244-2.343,1.566-3.634
				c-0.779-1.487-2.069-1.81-3.621-1.325C229.947,512.114,229.711,512.092,229.486,512.109z"/>
			<path fill-rule="evenodd" clip-rule="evenodd" fill="#81C78D" d="M140,523.493c0.186,4.136,1.205,5.541,5.174,6.977
				c2.439,0.882,4.902,1.694,7.355,2.538c-6.42,2.201-13.064,3.32-19.799,3.771c-5.211,0.35-10.425-0.057-15.583-0.969
				c2.494-5.044,4.987-10.089,7.483-15.132c1.379-2.787,0.925-4.139-2.023-5.006c-1.645-0.484-1.625-1.053-0.924-2.398
				c2.497-4.795,4.879-9.65,7.29-14.49c1.278-2.566,0.724-3.839-2.036-4.767c-2.144-0.722-2.147-0.724-1.124-2.758
				c4.421-8.789,8.845-17.578,13.269-26.367c2.67,4.165,3.102,8.408,0.701,12.894c-1.965,3.671-3.746,7.44-5.6,11.171
				c-1.113,2.238-0.721,3.096,1.717,3.845c0.49,0.149,0.969,0.338,1.441,0.534c2.336,0.971,2.572,1.59,1.434,3.874
				c-2.9,5.824-5.777,11.66-8.744,17.45c-0.732,1.431-1.142,2.837-0.898,4.422c-0.578,1.311-0.588,2.534,0.607,3.527
				c1.352,1.123,5.352,1.199,6.855,0.152C137.73,523.006,138.865,523.249,140,523.493z"/>
			<path fill-rule="evenodd" clip-rule="evenodd" fill="#66B39C" d="M129.133,519.082c-0.243-1.585,0.166-2.991,0.898-4.422
				c2.967-5.79,5.844-11.626,8.744-17.45c1.139-2.284,0.902-2.903-1.434-3.874c-0.473-0.196-0.951-0.385-1.441-0.534
				c-2.438-0.749-2.83-1.606-1.717-3.845c1.854-3.73,3.635-7.5,5.6-11.171c2.4-4.485,1.969-8.729-0.701-12.894
				c1.162-2.393,2.325-4.785,3.48-7.163c0.67,0.116,0.709,0.649,0.896,1.022c3.165,6.297,6.292,12.612,9.492,18.891
				c0.453,0.89,0.344,1.538-0.072,2.355c-2.319,4.559-4.602,9.136-6.878,13.715c-1.925,3.872-0.876,6.804,3.128,8.525
				c1.034,0.444,0.832,0.907,0.457,1.65c-2.791,5.534-5.566,11.076-8.322,16.627c-0.479,0.964-0.846,1.983-1.264,2.978
				c-1.135-0.244-2.27-0.487-3.404-0.731c0.639-1.337,0.787-2.639-0.491-3.688C134.623,517.856,130.621,517.895,129.133,519.082z"/>
			<path fill-rule="evenodd" clip-rule="evenodd" fill="#82C88E" d="M119.714,582.07c0.864-3.548,2.448-4.836,5.886-4.837
				c36.196-0.004,72.393-0.004,108.588-0.001c3.121,0.001,4.807,1.199,5.729,3.86c0.282,0.813,0.123,1.034-0.674,0.98
				c-0.342-0.023-0.685-0.003-1.027-0.003c-38.937,0-77.873,0-116.809,0C120.852,582.07,120.299,582.07,119.714,582.07z"/>
			<path fill-rule="evenodd" clip-rule="evenodd" fill="none" d="M191.863,552.333c0-3.993,0.076-7.989-0.041-11.979
				c-0.043-1.471,0.312-1.546,1.575-1.15c4.181,1.308,8.456,2.231,12.807,2.759c0.8,0.098,1.069,0.35,1.044,1.151
				c-0.255,8.099-0.449,16.2-0.742,24.299c-0.066,1.836-1.125,3.302-2.803,3.983c-2.828,1.15-5.699,1.063-8.316-0.658
				c-2.088-1.372-2.748-3.521-2.823-5.914C192.432,560.66,192.543,556.49,191.863,552.333z"/>
			<path fill-rule="evenodd" clip-rule="evenodd" fill="none" d="M167.892,542.057c-0.263,8.254-0.48,16.227-0.796,24.195
				c-0.076,1.913-1.098,3.501-2.703,4.525c-2.732,1.743-5.746,1.712-8.691,0.745c-1.779-0.584-2.557-2.181-2.616-4.033
				c-0.222-6.892-0.415-13.784-0.624-20.676c-0.02-0.64-0.121-1.271,0.813-1.376C158.193,544.885,162.95,543.596,167.892,542.057z"
				/>
			<path fill-rule="evenodd" clip-rule="evenodd" fill="#E09169" d="M189.449,572.022c-2.111,0-3.879-0.065-5.638,0.023
				c-1.12,0.057-1.315-0.403-1.306-1.397c0.045-4.396,0.023-8.794,0.016-13.191c-0.002-1.346-0.611-2.338-1.917-2.715
				c-1.148-0.332-2.122,0.066-2.843,1.059c-0.442,0.607-0.401,1.292-0.402,1.972c-0.006,4.169-0.07,8.339,0.031,12.505
				c0.037,1.479-0.459,1.867-1.844,1.771c-1.586-0.11-3.186-0.025-4.755-0.025c2.931-8.337,1.353-16.977,2.11-25.418
				c0.26-2.896,0.262-5.818,0.273-8.729c0.004-1.128,0.354-1.569,1.467-1.365c0.223,0.04,0.459,0.051,0.684,0.024
				c1.627-0.188,2.158,0.485,2.068,2.134c-0.145,2.619-0.057,5.251-0.031,7.878c0.018,1.848,1.021,2.975,2.567,2.962
				c1.548-0.014,2.567-1.147,2.587-2.987c0.029-2.798,0.07-5.599-0.021-8.394c-0.039-1.22,0.385-1.651,1.543-1.559
				c0.452,0.037,0.919,0.011,1.366-0.062c0.967-0.156,1.253,0.195,1.275,1.188c0.189,8.333,0.469,16.664,0.654,24.997
				C187.406,565.849,187.496,568.968,189.449,572.022z"/>
			<path fill-rule="evenodd" clip-rule="evenodd" fill="#E1916A" d="M226.031,552.793c0.032,2.298,0.064,4.596,0.096,6.895
				c-1.738,0.318-2.514,1.371-2.463,3.125c0.081,2.841-0.131,5.721,1.119,8.397c0.302,0.648,0.084,0.812-0.525,0.811
				c-4.277-0.003-8.554-0.005-12.83,0.002c-0.711,0-0.929-0.236-0.6-0.929c1.248-2.623,0.966-5.472,1.073-8.236
				c0.241-6.21,0.368-12.425,0.448-18.639c0.018-1.3,0.391-1.622,1.664-1.564c2.561,0.115,5.13,0.081,7.692,0.003
				c0.996-0.03,1.436,0.163,1.429,1.259c-0.014,1.88,0.131,3.76,0.18,5.641C223.371,551.657,223.915,552.322,226.031,552.793z"/>
			<path fill-rule="evenodd" clip-rule="evenodd" fill="#E0916A" d="M148.945,572.021c-3.941,0-7.649,0.007-11.357-0.01
				c-0.375-0.002-1.045,0.214-0.743-0.654c1.461-4.207,0.671-8.604,1.04-12.905c0.312-3.635,0.287-7.301,0.331-10.954
				c0.013-1.082,0.276-1.475,1.442-1.408c2.048,0.115,4.109,0.087,6.161,0.007c1.036-0.04,1.488,0.116,1.515,1.327
				c0.143,6.45,0.424,12.897,0.572,19.347C147.947,568.503,148.191,570.158,148.945,572.021z"/>
			<path fill-rule="evenodd" clip-rule="evenodd" fill="#65B39C" d="M117.147,535.811c5.158,0.912,10.372,1.318,15.583,0.969
				c6.734-0.451,13.379-1.57,19.799-3.771c4.223,0.92,8.4,2.059,12.697,2.614c0.885,0.115,1.766,0.268,2.663,0.404
				c-0.086,0.656-0.522,0.685-0.866,0.805c-11.003,3.87-22.283,5.104-33.85,3.514c-2.74-0.377-3.41-0.116-4.465,1.988
				c-2.23-0.544-4.555-0.734-6.651-1.781c0.134-1.823-0.792-2.805-2.456-3.397C118.744,536.849,117.564,536.973,117.147,535.811z"/>
			<path fill-rule="evenodd" clip-rule="evenodd" fill="#050E08" d="M195.568,501.142c0.168-0.01,0.343,0.003,0.506-0.033
				c1.992-0.436,3.252-0.025,3.826,1.255c0.586,1.308,0.048,2.532-1.611,3.665c-5.773,1.061-11.582,1.795-17.461,1.888
				c-2.123,0.033-3.264-0.713-3.439-2.262c-0.207-1.804,0.891-2.953,3.076-2.978c4.396-0.048,8.764-0.374,13.096-1.13
				C194.232,501.429,194.898,501.277,195.568,501.142z"/>
			<path fill-rule="evenodd" clip-rule="evenodd" fill="#050E08" d="M176.622,478.338c-2.798-0.006-5.554-0.442-8.316-0.799
				c-2.077-0.268-3.097-1.334-2.909-3.039c0.178-1.604,1.341-2.366,3.418-2.105c3.502,0.439,7.004,0.792,10.541,0.819
				c1.958,0.016,3.163,1.115,3.161,2.635c-0.003,1.602-1.312,2.641-3.335,2.612C178.328,478.449,177.475,478.381,176.622,478.338z"
				/>
			<path fill-rule="evenodd" clip-rule="evenodd" fill="#050E08" d="M229.486,512.109c0.225-0.018,0.461,0.005,0.67-0.061
				c1.552-0.484,2.842-0.162,3.621,1.325c0.678,1.291,0.105,2.504-1.566,3.634c-2.871,0.387-5.721,0.926-8.621,1.103
				c-1.98,0.12-3.217-0.646-3.359-2.259c-0.145-1.654,0.843-2.758,2.828-2.917C225.218,512.761,227.365,512.547,229.486,512.109z"/>
			<path fill-rule="evenodd" clip-rule="evenodd" fill="#050E08" d="M129.133,519.082c1.488-1.188,5.49-1.226,6.972-0.009
				c1.278,1.05,1.13,2.352,0.491,3.688c-1.504,1.047-5.504,0.971-6.855-0.152C128.545,521.616,128.555,520.393,129.133,519.082z"/>
		</g>
	</g>
	<path fill-rule="evenodd" clip-rule="evenodd" d="M56.089,411.659c-0.002-4.611,0.006-9.221-0.002-13.832
		c-0.011-6.202,3.016-10.118,9.137-10.917c6.2-0.809,10.918,2.23,11.295,8.395c0.654,10.747,0.625,21.597-0.063,32.341
		c-0.4,6.234-5.285,9.086-11.377,8.281c-5.756-0.762-8.81-4.59-8.963-10.436C55.993,420.884,56.091,416.271,56.089,411.659z"/>
	<path fill-rule="evenodd" clip-rule="evenodd" d="M151.684,292.506c4.484-1.074,8.971-2.14,13.453-3.22
		c6.029-1.453,10.541,0.579,12.742,6.347c2.229,5.842,0.371,11.137-5.537,12.938c-10.299,3.137-20.857,5.633-31.467,7.464
		c-6.156,1.061-10.066-3.026-10.701-9.139c-0.598-5.775,2.414-9.636,8.064-11.145C142.691,294.56,147.199,293.581,151.684,292.506z"
		/>
	<path fill-rule="evenodd" clip-rule="evenodd" d="M434.58,253.314c3.135-3.383,6.275-6.757,9.404-10.143
		c4.211-4.555,9.092-5.367,14.123-1.79c5.096,3.624,6.488,9.06,2.572,13.835c-6.828,8.324-14.229,16.259-22.039,23.668
		c-4.533,4.299-10.055,3.068-13.973-1.665c-3.701-4.474-3.338-9.356,0.525-13.746C428.236,260.012,431.445,256.695,434.58,253.314z"
		/>
	<path fill-rule="evenodd" clip-rule="evenodd" d="M294.406,577.654c-4.568-0.633-9.133-1.274-13.703-1.9
		c-6.143-0.842-9.605-4.378-9.557-10.551c0.053-6.253,3.711-10.508,9.869-10.034c10.734,0.83,21.477,2.352,32.023,4.509
		c6.121,1.255,8.273,6.484,6.639,12.407c-1.545,5.598-5.756,8.096-11.568,7.443C303.529,579.017,298.973,578.286,294.406,577.654z"
		/>
	<path fill-rule="evenodd" clip-rule="evenodd" d="M358.75,594.692c-4.324-1.599-8.645-3.205-12.973-4.798
		c-5.82-2.142-8.441-6.339-7.066-12.356c1.393-6.096,5.879-9.466,11.791-7.681c10.307,3.115,20.471,6.907,30.309,11.28
		c5.709,2.539,6.688,8.11,3.818,13.544c-2.711,5.134-7.361,6.67-12.896,4.785C367.369,597.983,363.076,596.291,358.75,594.692z"/>
	<path fill-rule="evenodd" clip-rule="evenodd" d="M417.24,623.66c-4.066-2.176-8.125-4.359-12.193-6.53
		c-5.471-2.919-7.494-7.437-5.309-13.209c2.217-5.847,7.123-8.57,12.734-5.991c9.781,4.497,19.33,9.647,28.477,15.327
		c5.307,3.296,5.514,8.949,1.928,13.938c-3.389,4.714-8.207,5.598-13.432,2.972C425.326,628.101,421.305,625.836,417.24,623.66z"/>
	<path fill-rule="evenodd" clip-rule="evenodd" d="M89.234,339.557c3.135-3.382,6.275-6.756,9.404-10.143
		c4.211-4.553,9.092-5.366,14.123-1.789c5.096,3.623,6.488,9.061,2.572,13.836c-6.828,8.322-14.229,16.258-22.039,23.668
		c-4.533,4.297-10.055,3.066-13.973-1.666c-3.701-4.473-3.338-9.355,0.525-13.746C82.891,346.255,86.1,342.939,89.234,339.557z"/>
	<path fill-rule="evenodd" clip-rule="evenodd" fill="#00AEEF" d="M412.098,457.879c-10.408,0.504-19.082-1.955-26.461-6.132
		c-11.135-6.303-24.779-6.202-35.045-0.184c-15.215,8.921-39.703,8.502-54.137,0c-4.729-2.787-10.271-4.56-17.246-4.626
		c-5.629-0.054-8.597-2.668-8.239-5.952c0.321-2.954,3.907-4.954,9.317-4.92c9.604,0.062,17.979,2.276,25.248,6.186
		c6.879,3.701,14.385,6.366,23.689,4.466c3.826-0.781,7.678-2.096,10.699-3.762c16.85-9.289,39.018-8.869,55.137-0.375
		c12.768,6.73,21.111,6.437,34.293-0.035c7.627-3.746,15.848-6.396,25.691-6.484c5.916-0.052,9.969,2.156,10.121,5.31
		c0.139,2.837-3.768,5.593-9.184,5.623c-6.547,0.04-11.484,1.88-16.232,4.348C431.678,455.536,422.846,458.51,412.098,457.879z"/>
	<path fill-rule="evenodd" clip-rule="evenodd" d="M328.053,140.525c4.613-0.002,9.234-0.164,13.84,0.039
		c6.398,0.283,10.631,4.432,10.785,10.217c0.154,5.92-3.682,10.69-10.018,10.969c-9.668,0.422-19.391,0.45-29.051-0.08
		c-6.779-0.369-10.619-5.366-10.15-11.559c0.422-5.563,4.938-9.406,11.445-9.564C319.285,140.441,323.67,140.527,328.053,140.525z"
		/>
	<path fill-rule="evenodd" clip-rule="evenodd" fill="none" d="M130.936,32.775c32.51,0,65.018,0.008,97.525-0.035
		c1.242-0.002,1.486,0.244,1.486,1.484c-0.041,48.099-0.035,96.197-0.035,144.295c-0.1-0.051-0.271-0.087-0.285-0.156
		c-1.244-6.002-2.467-12.008-3.709-18.01c-3.646-17.597-7.295-35.193-10.961-52.785c-0.664-3.176-2.404-5.576-5.301-7.149
		c-2.428-1.319-4.693-2.981-7.209-4.091c-4.963-2.187-8.576-5.541-10.514-10.656c-0.697-1.846-2.064-2.589-4.029-2.084
		c-1.252-1.371-2.189-2.914-2.586-4.751c1.48-1.188,1.52-2.61,0.672-4.173c-2.289-4.217-4.611-8.418-6.863-12.656
		c-1.592-2.997-3.99-4.826-7.275-5.693c-5.676-1.498-11.313-3.138-16.973-4.693c-0.836-0.229-1.523-0.608-2.154-1.213
		c-3.828-3.671-7.703-7.295-11.527-10.97C138.197,36.557,135.424,33.353,130.936,32.775z"/>
	<path fill-rule="evenodd" clip-rule="evenodd" fill="none" d="M44.286,177.795c0-47.797,0.007-95.592-0.034-143.389
		c-0.002-1.359,0.307-1.668,1.666-1.666c27.855,0.047,55.711,0.035,83.566,0.035c-4.836,1.68-9.66,3.395-14.516,5.019
		c-1.283,0.429-2.172,1.143-2.863,2.288c-2.424,4.018-4.846,8.037-7.377,11.986c-5.094,7.945-10.525,15.568-19.764,19.273
		c-0.221,0.088-0.41,0.254-0.629,0.35c-1.5,0.647-2.247,1.824-2.713,3.369c-2.963,9.821-6.002,19.619-8.971,29.438
		c-0.261,0.864-0.674,1.462-1.371,2.013c-4.641,3.66-9.235,7.377-13.873,11.039c-2.023,1.599-3.361,3.584-3.807,6.135
		c-0.371,2.134-0.714,4.271-1.068,6.408c-2.275,13.711-4.516,27.428-6.857,41.127C45.299,173.42,45.354,175.734,44.286,177.795z"/>
	<path fill-rule="evenodd" clip-rule="evenodd" fill="#080908" d="M44.286,177.795c1.067-2.061,1.013-4.375,1.39-6.574
		c2.342-13.699,4.582-27.416,6.857-41.127c0.354-2.137,0.697-4.274,1.068-6.408c0.445-2.551,1.783-4.536,3.807-6.135
		c4.638-3.662,9.232-7.379,13.873-11.039c0.697-0.551,1.11-1.148,1.371-2.013c2.969-9.819,6.008-19.617,8.971-29.438
		c0.466-1.545,1.213-2.722,2.713-3.369c0.219-0.096,0.408-0.262,0.629-0.35c9.238-3.705,14.67-11.328,19.764-19.273
		c2.531-3.949,4.953-7.969,7.377-11.986c0.691-1.146,1.58-1.859,2.863-2.288c4.855-1.624,9.68-3.339,14.516-5.019
		c0.484,0,0.967,0,1.451,0c4.488,0.577,7.262,3.781,10.262,6.663c3.824,3.675,7.699,7.299,11.527,10.97
		c0.631,0.604,1.318,0.983,2.154,1.213c5.66,1.556,11.297,3.195,16.973,4.693c3.285,0.867,5.684,2.696,7.275,5.693
		c2.252,4.238,4.574,8.439,6.863,12.656c0.848,1.563,0.809,2.984-0.672,4.173c-2.133,0.728-3.084,0.397-4.158-1.552
		c-1.801-3.271-3.537-6.579-5.361-9.838c-0.695-1.24-1.205-2.607-2.195-3.715c-1.199,2.703-2.311,5.354-3.539,7.947
		c-1.162,2.455-2.492,4.828-4.314,6.872c-3.143,3.523-7.494,3.589-10.758,0.167c-1.256-1.316-2.195-2.867-3.111-4.434
		c-0.852-1.455-1.77-2.871-2.652-4.309c-0.635-1.037-1.563-1.38-2.752-1.371c-4.137,0.033-8.156,3.482-9.025,7.761
		c-0.754,3.718-1.504,7.445-3.461,10.774c-2.289,3.896-5.658,5.816-10.227,5.463c-4.076-0.316-6.305-2.908-7.787-6.385
		c-0.613-1.438-1.135-2.914-1.756-4.35c-0.221-0.515-0.314-1.286-1.1-1.254c-0.73,0.029-0.904,0.73-1.127,1.27
		c-0.369,0.885-0.734,1.781-0.99,2.704c-1.27,4.59-1.871,9.321-2.922,13.959c-0.957,4.229-1.863,8.483-4.59,12.042
		c-3.105,4.053-8.414,4.346-11.951,0.641c-1.479-1.548-2.502-3.391-3.354-5.334c-1.551-3.537-2.582-7.248-3.668-10.941
		c-0.473-1.602-0.988-3.192-1.613-5.207c-1.863,6.112-3.593,11.746-5.289,17.388c-0.359,1.198-0.969,2.138-1.971,2.925
		c-4.89,3.844-9.727,7.754-14.609,11.605c-1.201,0.947-1.966,2.104-2.211,3.601c-2.617,15.931-5.23,31.862-7.846,47.794
		c-0.116,0.647-0.167,1.316-0.362,1.939c-0.493,1.575-0.179,2.19,1.681,2.154c6.211-0.117,12.426-0.053,18.639-0.039
		c2.357,0.004,3.204,0.723,3.55,2.91c-0.169,1.363-0.831,2.289-2.253,2.541c-8.48,0.005-16.963,0.012-25.443,0.018
		c-1.279-0.041-1.883-0.977-2.505-1.889C44.286,179.729,44.286,178.762,44.286,177.795z M130.857,38.486
		c-1.049,0.01-1.805,0.154-2.557,0.421c-3.063,1.085-6.104,2.255-9.221,3.152c-1.783,0.514-2.822,1.556-3.762,3.062
		c-3.533,5.676-6.738,11.563-10.926,16.824c-3.549,4.46-6.584,9.418-12.297,11.582c-0.834,0.316-1.539,0.973-2.371,1.305
		c-2.203,0.882-3.371,2.435-3.801,4.783c-0.184,1.014-0.184,1.854,0.201,2.766c1.121,2.66,1.922,5.429,2.781,8.18
		c1.488,4.748,2.545,9.65,4.783,14.135c0.781,1.561,1.48,3.641,3.691,3.471c2.207-0.17,2.83-2.241,3.426-3.984
		c1.809-5.282,2.689-10.783,3.715-16.254c0.582-3.113,1.334-6.205,2.826-9.057c1.365-2.609,3.393-3.892,6.432-3.715
		c2.682,0.154,4.133,1.713,5.143,3.909c0.951,2.072,1.791,4.196,2.736,6.272c0.578,1.275,1.621,1.781,3.043,1.854
		c2.277,0.115,3.588-1.143,4.592-2.908c1.57-2.762,2.053-5.877,2.725-8.91c1.199-5.428,4.381-9.123,9.465-11.214
		c4.465-1.835,9.359-1.29,11.859,2.147c0.814,1.117,1.516,2.315,2.254,3.486c0.93,1.479,1.789,3.002,2.777,4.439
		c1.236,1.799,2.225,1.802,3.693,0.147c0.807-0.909,1.404-1.952,1.977-3.015c1.518-2.813,2.768-5.745,4.006-8.689
		c0.531-1.258,0.332-1.723-0.979-2.072c-4.705-1.252-9.379-2.623-14.076-3.898c-1.434-0.39-2.619-1.052-3.703-2.102
		c-5.072-4.912-10.215-9.754-15.328-14.623C133.016,39.078,131.982,38.392,130.857,38.486z"/>
	<path fill-rule="evenodd" clip-rule="evenodd" fill="none" d="M82.314,182.58c-0.014,0.1,0,0.197,0.039,0.291
		c-3.384,0-6.768,0-10.15,0c0.002-0.104,0.014-0.205,0.031-0.305c1.422-0.252,2.084-1.178,2.253-2.541
		c1.776-0.209,3.557-0.14,5.337-0.054C80.092,181.377,80.827,182.338,82.314,182.58z"/>
	<path fill-rule="evenodd" clip-rule="evenodd" fill="#9FACBA" d="M50.98,173.061c2.615-15.932,5.229-31.863,7.846-47.794
		c0.245-1.497,1.01-2.653,2.211-3.601c4.883-3.852,9.72-7.762,14.609-11.605c1.002-0.787,1.611-1.727,1.971-2.925
		c1.696-5.642,3.426-11.275,5.289-17.388c0.625,2.015,1.141,3.605,1.613,5.207c1.086,3.693,2.117,7.404,3.668,10.941
		c0.852,1.943,1.875,3.786,3.354,5.334c3.537,3.705,8.846,3.412,11.951-0.641c2.727-3.559,3.633-7.813,4.59-12.042
		c1.051-4.638,1.652-9.369,2.922-13.959c0.256-0.923,0.621-1.819,0.99-2.704c0.223-0.539,0.396-1.24,1.127-1.27
		c0.785-0.032,0.879,0.739,1.1,1.254c0.621,1.436,1.143,2.912,1.756,4.35c1.482,3.477,3.711,6.068,7.787,6.385
		c4.568,0.354,7.938-1.567,10.227-5.463c1.957-3.329,2.707-7.057,3.461-10.774c0.869-4.278,4.889-7.728,9.025-7.761
		c1.189-0.009,2.117,0.334,2.752,1.371c0.883,1.438,1.801,2.854,2.652,4.309c0.916,1.566,1.855,3.117,3.111,4.434
		c3.264,3.422,7.615,3.356,10.758-0.167c1.822-2.044,3.152-4.417,4.314-6.872c1.229-2.594,2.34-5.244,3.539-7.947
		c0.99,1.107,1.5,2.475,2.195,3.715c1.824,3.259,3.561,6.566,5.361,9.838c1.074,1.949,2.025,2.279,4.158,1.552
		c0.396,1.837,1.334,3.38,2.586,4.751c-1.75,1.426-1.965,2.399-0.959,4.348c0.027,0.053,0.082,0.094,0.102,0.148
		c2.277,6.039,6.357,10.268,12.326,12.836c2.637,1.133,5.018,2.855,7.543,4.254c1.539,0.852,2.359,2.101,2.717,3.814
		c4.299,20.723,8.631,41.438,12.947,62.156c0.098,0.47,0.117,0.957,0.174,1.436c-0.578,0.805-1.436,0.49-2.176,0.492
		c-10.688,0.029-21.377,0.031-32.064,0.04c-0.707-3.896-1.441-7.789-2.107-11.692c-0.414-2.425-0.879-2.98-3.213-3.43
		c-0.729-1.65-0.459-3.516-1.123-5.18c1.801-0.664,2.506-1.917,2.172-3.824c-0.883-5.043-1.723-10.092-2.594-15.137
		c-0.115-0.667-0.486-1.239-0.941-1.73c-7.039-7.609-12.516-16.389-18.539-24.759c-1.789-2.484-2.242-2.663-5.117-1.743
		c-7.957,2.551-15.906,5.131-23.877,7.639c-1.457,0.457-2.391,1.262-2.9,2.687c-0.588,1.642-1.373,3.218-1.889,4.88
		c-1.91,6.161-5.24,11.483-9.623,16.135c-1.732,1.839-1.758,4.012-1.908,6.209c-0.662,9.697-1.281,19.396-1.922,29.094
		c-0.02,0.295-0.125,0.582-0.191,0.875c-0.904-0.017-1.811-0.047-2.715-0.047C91.678,173.076,71.329,173.068,50.98,173.061z"/>
	<path fill-rule="evenodd" clip-rule="evenodd" fill="#5A6C76" d="M120.453,173.074c0.254-4.328,0.482-8.656,0.768-12.981
		c0.307-4.626,0.766-9.243,0.973-13.872c0.139-3.127,0.463-6.023,2.922-8.367c4.693-4.473,6.773-10.445,8.863-16.342
		c0.795-2.242,1.871-3.711,4.352-4.107c1.525-0.244,3.002-0.872,4.461-1.431c1.033-0.396,1.695-0.141,2.295,0.742
		c1.355,1.995,2.799,3.929,4.141,5.933c2.859,4.268,6.105,8.225,9.5,12.069c1.301,1.475,1.041,3.403,1.35,5.142
		c1.926,10.825,3.781,21.664,5.654,32.5c0.041,0.234,0.008,0.48,0.01,0.723C150.645,173.079,135.549,173.076,120.453,173.074z"/>
	<path fill-rule="evenodd" clip-rule="evenodd" fill="#798B97" d="M182.07,152.811c0.664,1.664,0.395,3.529,1.123,5.18
		c-2.18,0.859-2.648,1.665-2.277,3.945c0.604,3.713,1.211,7.426,1.818,11.139c-3.725,0-7.445,0.002-11.168,0.003
		c-0.979-5.51-1.975-11.017-2.93-16.53c-1.266-7.295-2.498-14.594-3.746-21.892c-0.197-1.155-0.707-2.13-1.516-3.013
		c-5.031-5.48-9.299-11.543-13.572-17.891c2.623-0.859,5.152-1.687,7.682-2.516c0.869-0.285,0.99,0.517,1.301,0.949
		c2.697,3.781,5.385,7.57,8.039,11.385c2.068,2.975,4.057,6.051,6.703,8.521c2.701,2.522,3.313,5.714,3.811,9.071
		c0.441,2.976,0.98,5.938,1.484,8.904C179.131,151.892,180.238,152.785,182.07,152.811z"/>
	<path fill-rule="evenodd" clip-rule="evenodd" fill="#929DA8" d="M50.98,173.061c20.349,0.008,40.697,0.016,61.045,0.027
		c0.904,0,1.811,0.03,2.715,0.047c-0.148,3.976-0.148,3.976-4.152,3.976c-8.963,0-17.926-0.004-26.889,0.003
		c-2.473,0.002-3.187,0.541-3.875,2.858c-1.78-0.086-3.561-0.155-5.337,0.054c-0.346-2.188-1.192-2.906-3.55-2.91
		c-6.213-0.014-12.428-0.078-18.639,0.039c-1.859,0.036-2.174-0.579-1.681-2.154C50.813,174.377,50.864,173.708,50.98,173.061z"/>
	<path fill-rule="evenodd" clip-rule="evenodd" fill="#4F5F67" d="M120.453,173.074c15.096,0.002,30.191,0.005,45.287,0.008
		c1.123,4.005,1.123,4.005-2.9,4.005c-13.514,0-27.027,0-40.541-0.001c-2.188,0-2.18,0-1.947-2.207
		C120.414,174.28,120.42,173.676,120.453,173.074z"/>
	<path fill-rule="evenodd" clip-rule="evenodd" fill="#929DA8" d="M188.514,173.112c10.688-0.009,21.377-0.011,32.064-0.04
		c0.74-0.002,1.598,0.313,2.176-0.492c0.037,0.049,0.098,0.091,0.107,0.144c0.266,1.405,1.193,3.3,0.615,4.089
		c-0.678,0.923-2.695,0.281-4.129,0.285c-9.215,0.025-18.428,0.014-27.643,0.014c-2.734,0-2.738,0-3.109-2.738
		C188.539,173.957,188.539,173.533,188.514,173.112z"/>
	<path fill-rule="evenodd" clip-rule="evenodd" fill="#6F7F88" d="M171.566,173.077c3.723-0.001,7.443-0.003,11.168-0.003
		c0.865,4.027,0.865,4.027-3.197,4.027c-1.869,0-3.742-0.074-5.607,0.024c-1.33,0.07-2.061-0.277-2.061-1.737
		C171.867,174.619,171.674,173.848,171.566,173.077z"/>
	<path fill-rule="evenodd" clip-rule="evenodd" fill="#5A6D76" d="M130.857,38.486c1.125-0.095,2.158,0.592,3.105,1.494
		c5.113,4.869,10.256,9.711,15.328,14.623c1.084,1.05,2.27,1.712,3.703,2.102c4.697,1.275,9.371,2.646,14.076,3.898
		c1.311,0.35,1.51,0.814,0.979,2.072c-1.238,2.944-2.488,5.876-4.006,8.689c-0.572,1.063-1.17,2.105-1.977,3.015
		c-1.469,1.654-2.457,1.651-3.693-0.147c-0.988-1.438-1.848-2.961-2.777-4.439c-0.738-1.171-1.439-2.369-2.254-3.486
		c-2.5-3.438-7.395-3.982-11.859-2.147c-5.084,2.091-8.266,5.786-9.465,11.214c-0.672,3.033-1.154,6.148-2.725,8.91
		c-1.004,1.766-2.314,3.023-4.592,2.908c-1.422-0.072-2.465-0.578-3.043-1.854c-0.945-2.076-1.785-4.2-2.736-6.272
		c-1.01-2.196-2.461-3.755-5.143-3.909c-3.039-0.177-5.066,1.105-6.432,3.715c-1.492,2.852-2.244,5.943-2.826,9.057
		c-1.025,5.471-1.906,10.972-3.715,16.254c-0.596,1.743-1.219,3.814-3.426,3.984c-2.211,0.17-2.91-1.91-3.691-3.471
		c-2.238-4.484-3.295-9.387-4.783-14.135c-0.859-2.751-1.66-5.52-2.781-8.18c-0.385-0.912-0.385-1.752-0.201-2.766
		c0.43-2.349,1.598-3.901,3.801-4.783c0.832-0.332,1.537-0.988,2.371-1.305c5.713-2.164,8.748-7.122,12.297-11.582
		c4.188-5.262,7.393-11.148,10.926-16.824c0.939-1.506,1.979-2.548,3.762-3.062c3.117-0.897,6.158-2.067,9.221-3.152
		C129.053,38.641,129.809,38.496,130.857,38.486z"/>
	<g>
		<path fill-rule="evenodd" clip-rule="evenodd" fill="none" d="M152.924,121.602c-3.881,1.01-7.104,2.545-9.77,4.767
			c2.291-0.579,4.578-1.156,6.867-1.734c0.047,0.082,0.095,0.167,0.143,0.25c-5.323,3.171-10.98,5.991-15.434,10.098
			c3.242-1.304,6.635-2.269,10.533-2.644c-0.827,0.527-1.48,0.983-2.175,1.396c-2.351,1.392-4.385,3.049-6.004,5.077
			c-2.09,2.616-4.301,5.148-6.293,7.824c-1.228,1.646-2.858,2.852-4.851,3.724c-0.564,0.251-0.688,0.528-0.615,1.06
			c0.284,2.099,0.487,4.193,0.804,6.293c0.494,3.288,2.165,6.272,4.89,8.949c0.246,0.245,0.573,0.43,0.861,0.641
			c0.067-0.042,0.14-0.086,0.209-0.125c-0.197-0.308-0.357-0.636-0.595-0.921c-1.098-1.319-1.667-2.761-1.879-4.226
			c-0.286-2.011-0.308-4.013-0.638-6.025c-0.258-1.586-0.203-2.912,1.532-3.57c0.153-0.06,0.253-0.197,0.382-0.293
			c0.734-0.558,1.469-1.112,2.202-1.666c-0.382,2.301-0.908,4.516-2.394,6.303c-0.409,0.494-0.309,0.828,0.028,1.403
			c1.013,1.732,2.208,3.479,2.733,5.265c0.361,1.226,0.911,2.042,2.028,2.78c0.213,0.141,0.398,0.316,0.594,0.476
			c1.866,1.494,3.982,2.364,6.317,2.666c1.314,0.166,2.481-0.097,3.643-0.463c-0.4-0.212-0.788-0.286-1.17-0.396
			c-1.416-0.4-2.87-0.703-4.238-1.246c-1.283-0.507-2.326-1.375-2.792-2.598c-0.601-1.568-1.052-3.172-1.816-4.699
			c-0.536-1.065-1.223-2.003-0.157-2.837c0.076-0.058,0.063-0.191,0.102-0.288c0.725-1.715,1.447-3.427,2.232-5.276
			c0.137,0.253,0.211,0.345,0.235,0.44c0.56,2.338,0.802,4.628,0.106,6.796c-0.067,0.208,0.001,0.583,0.182,0.744
			c1.412,1.255,2.91,2.441,4.303,3.717c3.389,3.111,7.328,4.595,11.791,4.623c0.303,0.002,0.582-0.103,0.867-0.156
			c-0.011-0.077-0.027-0.154-0.041-0.231c-0.322-0.077-0.646-0.161-0.969-0.226c-2.342-0.469-4.356-1.792-6.053-3.167
			c-1.95-1.575-3.246-3.744-5.584-5.14c0.634-0.402,1.65-0.313,1.653-1.22c-0.51-0.143-0.959-0.267-1.442-0.398
			c0.242-2.051,0.479-4.041,0.715-6.024c0.41-0.182,0.937-0.334,1.346-0.61c0.81-0.541,1.534-1.168,2.336-1.716
			c0.193-0.135,0.687-0.239,0.809-0.14c1.204,0.983,2.416,1.066,3.676,0.627c0.331,1.081,1.175,2.006,1.189,3.119
			c0.01,0.563,0.517,1.186,0.739,1.79c0.125,0.34,0.25,0.734,0.17,1.038c-0.389,1.51-1.085,2.873-2.134,4.056
			c-0.1,0.114-0.154,0.265-0.23,0.396c0.082,0.077,0.161,0.151,0.241,0.227c0.743-0.43,1.599-0.758,2.207-1.298
			c2.922-2.585,3.438-6.229,4.11-9.839c-0.372-0.17-0.693-0.31-1.012-0.456c-1.408-0.653-2.846-1.265-3.915-2.395
			c-1.066-1.129-2.144-2.252-3.17-3.406c-0.163-0.181-0.192-0.541-0.112-0.748c0.429-1.127,0.884-2.244,1.395-3.332
			c0.129-0.277,0.497-0.441,0.751-0.657c0.079,0.055,0.156,0.108,0.234,0.165c-0.227,0.849-0.452,1.702-0.679,2.549
			c0.063,0.042,0.125,0.085,0.188,0.126c1.777-1.379,3.555-2.755,5.331-4.133c0.068,0.042,0.139,0.087,0.209,0.13
			c-0.298,0.593-0.596,1.187-0.892,1.784c0.093,0.066,0.189,0.136,0.282,0.204c1.839-1.053,3.678-2.103,5.519-3.156
			c0.074,0.074,0.147,0.145,0.221,0.22c-0.258,0.489-0.523,0.977-0.89,1.669c0.97-0.653,1.825-1.121,2.521-1.724"/>
		<path fill-rule="evenodd" clip-rule="evenodd" d="M164.408,135.812c-0.695,0.603-1.551,1.07-2.521,1.724
			c0.366-0.692,0.632-1.18,0.89-1.669c-0.073-0.075-0.146-0.146-0.221-0.22c-1.841,1.054-3.68,2.104-5.519,3.156
			c-0.093-0.068-0.189-0.138-0.282-0.204c0.296-0.598,0.594-1.191,0.892-1.784c-0.07-0.043-0.141-0.088-0.209-0.13
			c-1.776,1.378-3.554,2.754-5.331,4.133c-0.063-0.041-0.125-0.084-0.188-0.126c0.227-0.847,0.452-1.7,0.679-2.549
			c-0.078-0.057-0.155-0.11-0.234-0.165c-0.254,0.216-0.622,0.38-0.751,0.657c-0.511,1.088-0.966,2.205-1.395,3.332
			c-0.08,0.207-0.051,0.567,0.112,0.748c1.026,1.154,2.104,2.277,3.17,3.406c1.069,1.13,2.507,1.741,3.915,2.395
			c0.318,0.146,0.64,0.286,1.012,0.456c-0.672,3.61-1.188,7.254-4.11,9.839c-0.608,0.54-1.464,0.868-2.207,1.298
			c-0.08-0.075-0.159-0.149-0.241-0.227c0.076-0.132,0.131-0.282,0.23-0.396c1.049-1.183,1.745-2.546,2.134-4.056
			c0.08-0.304-0.045-0.698-0.17-1.038c-0.223-0.604-0.729-1.228-0.739-1.79c-0.015-1.113-0.858-2.038-1.189-3.119
			c-1.26,0.439-2.472,0.356-3.676-0.627c-0.122-0.1-0.615,0.005-0.809,0.14c-0.802,0.548-1.526,1.175-2.336,1.716
			c-0.409,0.276-0.936,0.429-1.346,0.61c-0.235,1.983-0.473,3.974-0.715,6.024c0.483,0.132,0.933,0.256,1.442,0.398
			c-0.003,0.907-1.02,0.817-1.653,1.22c2.338,1.396,3.634,3.564,5.584,5.14c1.696,1.375,3.711,2.698,6.053,3.167
			c0.323,0.064,0.646,0.148,0.969,0.226c0.014,0.077,0.03,0.154,0.041,0.231c-0.285,0.054-0.564,0.158-0.867,0.156
			c-4.463-0.028-8.402-1.512-11.791-4.623c-1.393-1.275-2.891-2.462-4.303-3.717c-0.181-0.161-0.249-0.536-0.182-0.744
			c0.695-2.168,0.453-4.458-0.106-6.796c-0.024-0.096-0.099-0.188-0.235-0.44c-0.785,1.85-1.508,3.562-2.232,5.276
			c-0.039,0.097-0.025,0.23-0.102,0.288c-1.065,0.834-0.379,1.771,0.157,2.837c0.765,1.527,1.216,3.131,1.816,4.699
			c0.466,1.223,1.509,2.091,2.792,2.598c1.368,0.543,2.822,0.846,4.238,1.246c0.382,0.11,0.77,0.185,1.17,0.396
			c-1.161,0.366-2.328,0.629-3.643,0.463c-2.335-0.302-4.451-1.172-6.317-2.666c-0.195-0.159-0.381-0.335-0.594-0.476
			c-1.117-0.738-1.667-1.555-2.028-2.78c-0.525-1.785-1.721-3.532-2.733-5.265c-0.337-0.575-0.438-0.909-0.028-1.403
			c1.485-1.787,2.012-4.002,2.394-6.303c-0.733,0.554-1.468,1.108-2.202,1.666c-0.129,0.096-0.229,0.233-0.382,0.293
			c-1.735,0.658-1.79,1.984-1.532,3.57c0.33,2.013,0.352,4.015,0.638,6.025c0.212,1.465,0.781,2.906,1.879,4.226
			c0.237,0.285,0.397,0.613,0.595,0.921c-0.069,0.039-0.142,0.083-0.209,0.125c-0.288-0.211-0.615-0.396-0.861-0.641
			c-2.725-2.677-4.396-5.661-4.89-8.949c-0.316-2.1-0.52-4.194-0.804-6.293c-0.072-0.531,0.051-0.809,0.615-1.06
			c1.992-0.872,3.623-2.077,4.851-3.724c1.992-2.676,4.203-5.208,6.293-7.824c1.619-2.028,3.653-3.686,6.004-5.077
			c0.694-0.412,1.348-0.868,2.175-1.396c-3.898,0.375-7.291,1.34-10.533,2.644c4.453-4.106,10.11-6.927,15.434-10.098
			c-0.048-0.083-0.096-0.168-0.143-0.25c-2.289,0.578-4.576,1.155-6.867,1.734c2.666-2.222,5.889-3.757,9.77-4.767"/>
	</g>
	<path fill-rule="evenodd" clip-rule="evenodd" fill="#060708" d="M187.904,83.588c1.965-0.505,3.332,0.238,4.029,2.084
		c1.938,5.115,5.551,8.47,10.514,10.656c2.516,1.109,4.781,2.771,7.209,4.091c2.896,1.573,4.637,3.974,5.301,7.149
		c3.666,17.592,7.314,35.188,10.961,52.785c1.242,6.002,2.465,12.008,3.709,18.01c0.014,0.069,0.186,0.105,0.285,0.156
		c0,0.725,0,1.45,0,2.176c-0.621,0.912-1.225,1.85-2.506,1.886c-0.48-0.024-0.961-0.068-1.443-0.068
		c-47.463-0.003-94.926-0.003-142.389,0c-0.42,0-0.84,0.044-1.26,0.067c-1.487-0.242-2.223-1.203-2.49-2.608
		c0.688-2.317,1.402-2.856,3.875-2.858c8.963-0.007,17.926-0.003,26.889-0.003c4.004,0,4.004,0,4.152-3.976
		c0.066-0.293,0.172-0.58,0.191-0.875c0.641-9.697,1.26-19.396,1.922-29.094c0.15-2.197,0.176-4.37,1.908-6.209
		c4.383-4.651,7.713-9.974,9.623-16.135c0.516-1.662,1.301-3.238,1.889-4.88c0.51-1.425,1.443-2.229,2.9-2.687
		c7.971-2.508,15.92-5.088,23.877-7.639c2.875-0.92,3.328-0.741,5.117,1.743c6.023,8.37,11.5,17.149,18.539,24.759
		c0.455,0.491,0.826,1.063,0.941,1.73c0.871,5.045,1.711,10.094,2.594,15.137c0.334,1.907-0.371,3.16-2.172,3.824
		c-1.832-0.025-2.939-0.919-3.248-2.743c-0.504-2.967-1.043-5.929-1.484-8.904c-0.498-3.357-1.109-6.549-3.811-9.071
		c-2.646-2.471-4.635-5.547-6.703-8.521c-2.654-3.814-5.342-7.604-8.039-11.385c-0.311-0.433-0.432-1.234-1.301-0.949
		c-2.529,0.829-5.059,1.656-7.682,2.516c4.273,6.348,8.541,12.41,13.572,17.891c0.809,0.883,1.318,1.857,1.516,3.013
		c1.248,7.298,2.48,14.597,3.746,21.892c0.955,5.514,1.951,11.021,2.93,16.53c0.107,0.771,0.301,1.542,0.303,2.312
		c0,1.46,0.73,1.808,2.061,1.737c1.865-0.099,3.738-0.024,5.607-0.024c4.063,0,4.063,0,3.197-4.027
		c-0.607-3.713-1.215-7.426-1.818-11.139c-0.371-2.28,0.098-3.086,2.277-3.945c2.334,0.449,2.799,1.005,3.213,3.43
		c0.666,3.903,1.4,7.796,2.107,11.692c0.025,0.421,0.025,0.845,0.082,1.261c0.371,2.738,0.375,2.738,3.109,2.738
		c9.215,0,18.428,0.012,27.643-0.014c1.434-0.004,3.451,0.638,4.129-0.285c0.578-0.789-0.35-2.684-0.615-4.089
		c-0.01-0.053-0.07-0.095-0.107-0.144c-0.057-0.479-0.076-0.966-0.174-1.436c-4.316-20.719-8.648-41.434-12.947-62.156
		c-0.357-1.714-1.178-2.963-2.717-3.814c-2.525-1.398-4.906-3.121-7.543-4.254c-5.969-2.568-10.049-6.797-12.326-12.836
		c-0.02-0.055-0.074-0.096-0.102-0.148C185.939,85.987,186.154,85.014,187.904,83.588z M120.453,173.074
		c-0.033,0.602-0.039,1.206-0.102,1.805c-0.232,2.207-0.24,2.207,1.947,2.207c13.514,0.001,27.027,0.001,40.541,0.001
		c4.023,0,4.023,0,2.9-4.005c-0.002-0.242,0.031-0.488-0.01-0.723c-1.873-10.836-3.729-21.675-5.654-32.5
		c-0.309-1.738-0.049-3.667-1.35-5.142c-3.395-3.845-6.641-7.802-9.5-12.069c-1.342-2.004-2.785-3.938-4.141-5.933
		c-0.6-0.883-1.262-1.138-2.295-0.742c-1.459,0.559-2.936,1.187-4.461,1.431c-2.48,0.396-3.557,1.865-4.352,4.107
		c-2.09,5.896-4.17,11.869-8.863,16.342c-2.459,2.344-2.783,5.24-2.922,8.367c-0.207,4.629-0.666,9.246-0.973,13.872
		C120.936,164.418,120.707,168.746,120.453,173.074z"/>
	<path fill-rule="evenodd" clip-rule="evenodd" d="M474.611,657.026c-3.98-2.329-7.953-4.665-11.938-6.989
		c-5.355-3.125-7.207-7.717-4.802-13.401c2.437-5.758,7.442-8.294,12.952-5.503c9.604,4.866,18.95,10.375,27.875,16.399
		c5.176,3.494,5.168,9.151,1.395,14.001c-3.565,4.581-8.413,5.282-13.533,2.459C482.521,661.771,478.59,659.354,474.611,657.026z"/>
</g>
</svg>
